<svg id="Layer_1" data-name="Layer 1" xmlns="http://www.w3.org/2000/svg" viewBox="0 0 181.01 135.33"><path d="M58.12,152.85c1.13-2.53,2.85-7.18,5.21-11.47,2.71-4.93,6.12-9.48,9-14.33,5.23-8.8,11.09-10.13,19.29-4,6,4.47,12,8.93,17.7,13.77,7.74,6.57,8.51,14.9,2.34,20.7-3.19,3-6.92,4.11-11.05,2.8-9.07-2.89-17-.86-24.21,5-3.34,2.72-7.1,4.25-11.44,1.84C61,165,58.12,160.11,58.12,152.85Z" transform="translate(-39.97 -33.08)"/><path d="M199.86,102.34c-.41,5.22-2.66,9.2-7.25,11.81-4.36,2.47-8.29,1.45-12.09-1.22-.68-.48-1.38-.93-2-1.46-6.68-5.46-13.91-7.67-22.71-5.63-9.43,2.18-16-5.62-12.5-14.63A21.76,21.76,0,0,1,150.44,82a245,245,0,0,1,21.49-13.55c5.81-3.37,11-2.61,14.23,3.2,5,8.93,8.93,18.48,13.24,27.81A10.65,10.65,0,0,1,199.86,102.34Z" transform="translate(-39.97 -33.08)"/><path d="M160,59.74c-1.7,3.47-2.84,7.39-5.21,10.33-4.94,6.14-12.22,4.54-15.07-2.93-2.39-6.24.24-14.76,6.13-17.81a9.4,9.4,0,0,1,7.39-.16C157.13,51.05,159.55,54.52,160,59.74Z" transform="translate(-39.97 -33.08)"/><path d="M40,126.2c.05-5.1,3.2-9.78,7.27-10.81,3.92-1,8.29,1.5,10.86,6.21.16.29.28.6.43.9,2.89,6,2.56,11.68-.93,15.4-2.48,2.65-5.4,3.8-9,2.41C43.84,138.46,39.91,132,40,126.2Z" transform="translate(-39.97 -33.08)"/><path d="M186.7,53.89c1.16-2.69,2-5.62,3.54-8,2.1-3.19,4.8-6.39,9.25-5.27a8.86,8.86,0,0,1,7,9.19,29.41,29.41,0,0,1-4.25,13.29c-3,4.71-9.74,3.73-12.8-1.4C188.15,59.49,187.7,56.79,186.7,53.89Z" transform="translate(-39.97 -33.08)"/><path d="M182.79,45.43a14.67,14.67,0,0,1-6.85,11.33c-5.09,3.43-12.42-1-12.75-7.76a21.63,21.63,0,0,1,1.35-8.26c2-5.44,6.76-8.47,11-7.47S182.84,39.34,182.79,45.43Z" transform="translate(-39.97 -33.08)"/><path d="M100.89,101.73c-.7,5.39-3.65,8.11-7.32,10s-6.37-.32-8.82-2.79c-4.6-4.64-6.06-11.28-3.64-16.46,2.83-6.07,8.81-7.44,13.1-2.4C97.07,93.39,98.71,97.8,100.89,101.73Z" transform="translate(-39.97 -33.08)"/><path d="M103.23,113.46c.08-5,4.75-9.64,9.55-9.52,5.4.13,11,7,11,13.44,0,5.8-4.52,10.81-9.58,10.6C108.42,127.73,103.11,120.71,103.23,113.46Z" transform="translate(-39.97 -33.08)"/><path d="M54.22,102.22c.62-5.1,2.51-9,7-10.66S68.9,93,71.35,96.2c3.16,4.19,4.89,9.12,2.16,14-1.38,2.44-4.43,5.26-6.89,5.43-2.71.19-6.33-1.84-8.26-4C56.21,109.11,55.54,105.38,54.22,102.22Z" transform="translate(-39.97 -33.08)"/><path d="M221,77.58c0,6.5-5.3,13.09-10.54,13.17-4.87.07-9.44-5.56-9.35-11.53.11-7,4.89-13,10.44-13C216.69,66.22,221,71.41,221,77.58Z" transform="translate(-39.97 -33.08)"/></svg>