<svg xmlns="http://www.w3.org/2000/svg" viewBox="0 0 234.58 233.7"><g id="Layer_2" data-name="Layer 2"><g id="Layer_1-2" data-name="Layer 1"><path d="M0,116.68C0,52.16,52,.49,116.74,0c65.31-.49,117.59,53.45,117.84,116.23.25,64.28-53,117.36-117.16,117.47C53,233.81-.89,180.68,0,116.68Zm117.11,97.17c54.68-.79,97.44-43.31,97.41-97.07,0-53.34-42.17-96.56-97-96.83-53.6-.27-97.44,41.77-97.64,96.66C19.69,170,62,212.91,117.12,213.85Z"/><path d="M101.26,180.54c-3.78,0-7.56,0-11.33,0-5.32,0-5.58-.33-4.25-5.3q5.23-19.6,10.53-39.21c3.1-11.55,6.29-23.08,9.23-34.67.88-3.46,2.41-5,6.14-4.81A133.42,133.42,0,0,0,137,95.11c4.55-.68,3.1,2.32,2.54,4.41-4.19,15.82-8.47,31.62-12.71,47.42-2.62,9.73-5.32,19.43-7.79,29.2-.84,3.33-2.51,4.67-6,4.45C109.15,180.34,105.2,180.53,101.26,180.54Z"/><path d="M133.13,53.09c10,.07,16.14,6.12,16.09,15.73-.06,11-10,20.47-21.23,20.36C118,89.09,111.57,82.66,111.67,73,111.8,61.82,121.32,53,133.13,53.09Z"/></g></g></svg>