<svg xmlns="http://www.w3.org/2000/svg" viewBox="0 0 239.49 239.23"><g id="Layer_2" data-name="Layer 2"><g id="Layer_1-2" data-name="Layer 1"><path d="M119.68,239.21c-27.12,0-54.24,0-81.36,0-15-.05-26.32-6.83-33.79-19.83A33.4,33.4,0,0,1,.05,202.52C0,147.28-.08,92,.12,36.79.17,22.93,7,12.41,18.71,5.2A36,36,0,0,1,37.87,0q81.87,0,163.74,0a38,38,0,0,1,37.18,30.46,32.76,32.76,0,0,1,.67,6.32c0,55.21.11,110.41-.08,165.61,0,13.86-6.8,24.39-18.55,31.62a36.36,36.36,0,0,1-19.53,5.22Q160.5,239.16,119.68,239.21ZM115.59,159c5.21,0,10.42,0,15.62,0,1,0,1.39-.28,1.42-1.33.07-2.33.26-4.65.43-7a25.85,25.85,0,0,1,9.6-18.67c2.2-1.84,4.5-3.58,6.76-5.36,6.26-4.91,12.55-9.79,18-15.61a40.67,40.67,0,0,0,9.88-17.71,58.36,58.36,0,0,0,1.3-21.55,48.08,48.08,0,0,0-6.08-19.14c-4.83-8.29-12-13.93-20.38-18.26C140.5,28.42,128,26.24,115,26a79.7,79.7,0,0,0-18.61,1.71A55.18,55.18,0,0,0,69.74,41.17C61.9,48.48,57.29,57.63,54.67,67.9a97.73,97.73,0,0,0-2.45,16.77c-.08,1,.37,1.11,1.17,1.11,4.33,0,8.67,0,13,0,6.75,0,13.5,0,20.25,0,.82,0,1.4,0,1.44-1.15A36.88,36.88,0,0,1,93.65,66.7a20,20,0,0,1,12.56-9.39,37.94,37.94,0,0,1,14.51-.69c4.35.52,8.64,1.58,11.92,4.64,6.77,6.33,9.06,14.42,8.14,23.41-.77,7.54-4.92,13.32-10.54,18.12-2.15,1.84-4.44,3.52-6.69,5.24-5.42,4.16-10.8,8.38-15.38,13.5a27.44,27.44,0,0,0-6.63,11.73c-2,8.09-2.42,16.36-2.86,24.63-.05,1,.45,1.16,1.29,1.15C105.18,159,110.38,159,115.59,159Zm1,53.31c5.74,0,11.49,0,17.23,0,1.15,0,1.5-.35,1.49-1.5q0-16.37,0-32.73c0-1.13-.31-1.52-1.47-1.52q-17.17.06-34.35,0c-1.2,0-1.57.37-1.56,1.57q0,16.29,0,32.6c0,1.18.32,1.59,1.54,1.58C105.16,212.31,110.86,212.34,116.57,212.34Z"/></g></g></svg>