<svg xmlns="http://www.w3.org/2000/svg" viewBox="0 0 241.95 241.71"><g id="Layer_2" data-name="Layer 2"><g id="Layer_1-2" data-name="Layer 1"><path d="M121,241.69c-27.33,0-54.67,0-82,0A38.05,38.05,0,0,1,11.6,230.9,37.48,37.48,0,0,1,.29,208.46a36.2,36.2,0,0,1-.27-5q0-82.6,0-165.23A38.32,38.32,0,0,1,33.62.26,35.6,35.6,0,0,1,38.23,0Q121,0,203.72,0a38.34,38.34,0,0,1,38,33.62,37.51,37.51,0,0,1,.23,4.49q0,82.74,0,165.48a38.25,38.25,0,0,1-32.13,37.63,39.31,39.31,0,0,1-6.22.48ZM216.13,71.77c-.14-.2-.28-.39-.4-.59-4.38-7.12-10.82-10.72-19.07-11.29a27.67,27.67,0,0,0-9,1.06c-4.68,1.23-9.43.79-14.17.7a22.59,22.59,0,0,1-8.37-1.78c-1.64-.69-3-1.55-2.87-3.59a2.34,2.34,0,0,0-.18-.59A18.1,18.1,0,0,0,155.55,47a9.47,9.47,0,0,0-3.93-2.32c-1.6-.31-1.61-.27-1.21-1.88,2.3-9,.85-17.58-3.41-25.74a8.52,8.52,0,0,0-2.54-3,1.84,1.84,0,0,0-2.77.27,8.11,8.11,0,0,0-1.66,3,34.58,34.58,0,0,0-1.82,11A34.74,34.74,0,0,0,141,42.82c.2.48.71,1.08-.15,1.47s-.94-.4-1.14-.88A32.89,32.89,0,0,1,136.82,29a8.08,8.08,0,0,0-1.76-5.66,13.44,13.44,0,0,0-3.28-3.53,1.74,1.74,0,0,0-2.82.87,9,9,0,0,0-.74,3.26,45.61,45.61,0,0,0,1.18,13.47,42.57,42.57,0,0,0,3.86,9.55,1.3,1.3,0,0,1-.27,1.84,10.2,10.2,0,0,0-2.44,3.73,19.29,19.29,0,0,0,0,15c2.48,6.08,7.6,8.31,13.63,7.68,2-.21,2-.31,1.94,1.75a14.66,14.66,0,0,0,2.19,8.42c2.49,4.13,5.83,7.36,10.61,8.41a3.32,3.32,0,0,1,2.93,2.54c1,2.55,2.43,4.9,3.59,7.38a9.36,9.36,0,0,1,1,5.76,14.88,14.88,0,0,1-1.31,3.73c-.9,2-.05,3.21,2.07,3.33a5.22,5.22,0,0,0,4.46-2.07c.74,2.21,1.52,2.79,3.19,2.21a9.23,9.23,0,0,0,4.43-3.5c2-2.83,1.92-6.08,1.63-9.24a51.34,51.34,0,0,0-5-17.63c-.18-.38-.77-.86-.08-1.27a1,1,0,0,1,1.55.51c.49,1,1,1.93,1.45,2.91,3.38,7.36,9.52,10.92,17.57,10.19.31,0,.72-.2.9.17s-.18.63-.41.84c-1.85,1.72-3.65,3.38-6.35,3.9a7.91,7.91,0,0,0-5.69,4.64c-.74,1.56-.25,2.27,1.41,2.33a9.34,9.34,0,0,0,4.56-1c1.82-.9,3.18-2.38,4.74-3.61,2.58-2,5.71-2.59,8.82-3.09,5-.78,8.49-3.29,10.43-8a38.16,38.16,0,0,0,2.38-8.36,1.66,1.66,0,0,1,1.37-1.56,11.3,11.3,0,0,0,4.18-2.14c3-2.12,5.48-7.5,2.09-11.74a80.1,80.1,0,0,1-5.09-7.21,6.17,6.17,0,0,0-1-1.14c-.83-.76-1.52-.59-1.88.48a13.52,13.52,0,0,0-.57,3.17C216.28,68.1,216.43,69.91,216.13,71.77ZM16.64,207.19a7.86,7.86,0,0,0,.86-.29L30.55,201q6.57-3,13.16-5.94c6.13-2.75,12.27-5.47,18.4-8.22,4.47-2,8.92-4,13.39-6l18.29-8.17c4.47-2,8.92-4.05,13.38-6.05,6.21-2.79,12.42-5.55,18.63-8.33,4.39-2,8.77-4,13.16-5.94,6.06-2.71,12.13-5.39,18.19-8.1,5.26-2.36,10.5-4.76,15.76-7.13l20.79-9.29,15.43-7q9.66-4.32,19.31-8.63c.73-.33.92-.65.57-1.41-1.43-3.09-2.78-6.21-4.2-9.3-.7-1.53-.74-1.5-2.31-.77q-3.1,1.45-6.22,2.86l-18.63,8.33c-4.39,2-8.77,4-13.16,5.94-6.06,2.71-12.13,5.39-18.18,8.1-4.51,2-9,4.09-13.49,6.11-6.21,2.79-12.43,5.55-18.63,8.34L121,146.36l-20.79,9.3c-4.39,2-8.77,4-13.16,5.93l-18.63,8.33c-4.39,2-8.77,4-13.16,5.93q-10.45,4.69-20.91,9.34L23,190.27l-11.11,5c-.52.23-.85.43-.55,1.1,1.55,3.39,3.07,6.81,4.61,10.21C16.1,206.89,16.23,207.25,16.64,207.19Zm103.64,24.57h8.25q14.17,0,28.36,0c.39,0,.91.22,1.15-.21s-.17-.7-.35-1c-1-1.69-2-3.36-2.95-5.05L146,210.29q-4.5-7.8-9-15.61-4.39-7.59-8.76-15.2c-2.43-4.2-4.88-8.39-7.29-12.59-.4-.69-.64-.78-1.07,0-2.75,4.78-5.52,9.54-8.28,14.32l-9.89,17.13-8.67,15-9.82,17c-.23.39-.67.81-.5,1.22s.82.23,1.25.23Q102.1,231.78,120.28,231.76ZM83.19,108.47a6.89,6.89,0,0,0,1.63,0c5.44-1.16,9.91-6.23,7.63-13a24.64,24.64,0,0,0-7.78-11.23c-3.3-2.74-7-4.69-11.54-4.59a9.39,9.39,0,0,0-8.72,6.27c-1.44,4.25-.63,8.56-.06,12.81.42,3.19,1.29,6.33,1.57,9.55.45,5-1,9.61-3.08,14a58,58,0,0,1-9.16,13.72,101.56,101.56,0,0,1-12.83,12.14c-2.73,2.17-5.54,4.22-8.16,6.52a51.84,51.84,0,0,1-5.91,4.75,23.85,23.85,0,0,0-7.62,7.37,12.32,12.32,0,0,0-2.23,6.89c0,.89.2,1.19,1.05.57a33.22,33.22,0,0,0,3-2.83,18,18,0,0,1,6.24-3.77,3.24,3.24,0,0,1,4.17,1.16,4.13,4.13,0,0,1,.83,4.3,8.16,8.16,0,0,0-.5,3.42A2.27,2.27,0,0,0,34.25,179c3.21,0,5.65-1.64,7.91-3.7a4.15,4.15,0,0,0,1.56-3.86c-.19-1.31-.46-2.61-.67-3.91-.26-1.63-.06-1.95,1.46-2.49.66-.23,1.32-.49,2-.74a58.81,58.81,0,0,0,21.15-13c1.3-1.27,2-1.28,3.07.2a23.66,23.66,0,0,0,2.46,2.64,10.86,10.86,0,0,0,13.33,1.13,6.74,6.74,0,0,0,3.28-6.07c-.12-2.33-1.76-3.65-3.32-4.89a38.75,38.75,0,0,1-9.71-10.55,18.23,18.23,0,0,1-2.68-9.46,25.15,25.15,0,0,1,1.81-8,26.9,26.9,0,0,0,1.89-8.2c0-.86.46-.73,1-.45A7.45,7.45,0,0,0,83.19,108.47Zm-47.28-9.2a18.31,18.31,0,0,0-2.87,0A22.68,22.68,0,0,0,21,105.77,39.89,39.89,0,0,0,16,111.7c-2.19,3.13-4.51,6.21-5.82,9.84-2.16,6-1.6,11.9.71,17.74,1.32,3.32,3.13,6.41,4.49,9.72a3.39,3.39,0,0,1-.16,3.09,4.9,4.9,0,0,0,4.3,7.19A8.61,8.61,0,0,0,24.16,158,103.15,103.15,0,0,0,42.57,143.6a118.59,118.59,0,0,0,13.55-14.78c3-4,5.81-8.13,7.15-13,.86-3.1,1-6.3-.69-9.18-1.45-2.38-3.34-3.73-6.11-2.39a6.06,6.06,0,0,1-4.14.26,39.1,39.1,0,0,1-7.11-3C42.27,100.17,39.26,99,35.91,99.27Z"/><path d="M148.21,32.13A22.86,22.86,0,0,1,146.45,41c-.26.6-.53,1.35-1.31,1.34s-1.14-.81-1.34-1.46c-2-6.45-2.86-13-1.06-19.63.23-.85.36-2,1.44-2.09s1.36,1.12,1.68,1.94A32.15,32.15,0,0,1,148.21,32.13Z"/><path d="M175.22,108.36c-.15,1.59-.33,3.19-2,4.12-.69.39-1,.28-.95-.53.18-1.74-.57-3.22-1.23-4.75a20.11,20.11,0,0,1-1.53-10.67c.08-.65.27-.76.87-.44a6.32,6.32,0,0,1,2.12,2.39C174.41,101.48,174.86,104.88,175.22,108.36Z"/><path d="M143.68,56.68a3.37,3.37,0,0,1-2.41,3.12c-.68.2-1-.07-1.19-.7a4.54,4.54,0,0,1,2-4.36.84.84,0,0,1,1.3.48A3.29,3.29,0,0,1,143.68,56.68Z"/><path d="M75.68,88a4,4,0,0,1,4.13,3c.26.89,0,1.46-1,1.64a5.16,5.16,0,0,1-4.52-1.86,2,2,0,0,1-.41-2.09C74.32,87.93,75.12,88.05,75.68,88Z"/></g></g></svg>