<svg id="Layer_1" data-name="Layer 1" xmlns="http://www.w3.org/2000/svg" viewBox="0 0 163.14 117.84"><path d="M75.37,110.44c-3.47-.32-5.94-2-8.59-.36a1.05,1.05,0,0,1-1.57-.56,1.44,1.44,0,0,1,.47-1.72c1.35-.93,2.73-1.91,4.51-1.16a11.62,11.62,0,0,0,11-1.22c5.09-3.43,11-3.22,16.34-5.06.76-.27,2.3-.19,2.53.24,1.85,3.45,4.19,1.35,6.45.8,2.06-.49,4.16-.84,6.26-1.2,2.78-.47,5.4-.48,7.89-2.77a19.66,19.66,0,0,1,7.66-4.14c2.31-.66,3.4-3,4.23-5,1.37-3.2,4.38-3.49,6.84-4.75.6-.31,1.91-.56,2.16.75.18,1,.35,1.89-1.21,2.24-3.84.84-5.92,3.53-6.52,7.3-.4,2.49-2.45,2.75-4.16,3.6-.8.39-2.14.58-1.7,2,.38,1.25,1.48.73,2.26.75,4.55.11,7.62-2.48,9.87-6,.86-1.35,1.78-2,3-1.49,1.59.66.45,1.63,0,2.67a11.14,11.14,0,0,1-4.12,5.28c6.59.77,7.12.3,10.32-4.8,5.72-9.09,9.94-19.1,16.8-27.47,3.24-3.94,6.65-7.75,10.13-11.48a54.46,54.46,0,0,0,8.18-10.77C185,45,185.74,44,186.93,44.6c1.5.79.23,2-.2,2.93-2.43,5-6.29,9-9.87,13.22-8,9.27-15.92,18.49-20.94,29.89a36.87,36.87,0,0,1-7.83,11.84c-2,1.87.08,3.06-.14,5.06a58.93,58.93,0,0,0,8.78-6.65c10.5-10.35,21.62-20,34.1-27.91a70.76,70.76,0,0,1,17.22-8.2c.88-.27,1.79-.88,2.3.14.67,1.32-.63,1.75-1.5,2.11-6.82,2.85-13.58,5.88-19.55,10.28-5,3.71-9.87,7.73-14.65,11.78-7.69,6.51-15.23,13.2-22.92,19.7a14.78,14.78,0,0,1-4.34,2.14c-2.67,1-3.79,4.87-8,3.65-1.27-.36-3.37,3.34-5.57,4.7-1,.62.12,1.59.45,2.26a30.63,30.63,0,0,1,2.91,8c.71,3.84,3.7,5.84,7.06,7.15,1.13.44,2,.79,2.46,1.95.24.63.43,1.26-.06,1.76s-1.12.33-1.75.09c-5.07-1.9-9.37-4.61-11.54-10-1.74-4.31-2.1-4.33-5.61-2a25.64,25.64,0,0,1-2.53,1.6c-3.47,1.72-5.26.88-6.33-3.64-2.25,6.16-4.29,11.55-2.8,17.57.15.62.51,1.5-.07,1.7-3.35,1.17-2.7,3.36-2.09,6,.54,2.31.6,4.81,2.36,6.51,1.23,1.19,1,2.09,0,2.72s-2.25,1.13-3-.81a29.09,29.09,0,0,1-1.86-6.42c-.87-6.21-3-12.43.14-18.64.48-1,.78-2.49-.38-3.06s-2.22.35-3.15,1.4c-3.81,4.26-8.7,7.07-13.75,9.55a39.67,39.67,0,0,0-10.59,7.18c-2.66,2.62-2.21,5,1.35,8.11,1.26,1.1,2.16,1.94.8,3.32s-2-.08-2.94-.89c-5.88-5.17-3.38-12.35,1.51-16.84,2.68-2.46,6.61-3.32,8.73-6.66.34-.53,1.73-.4,2.59-.83-3.92-.06-7.61,1.16-11.36,2-4.77,1.05-9.51,2.36-14.43,2.32-3.09,0-6.08-.17-8.15,2.81A5.42,5.42,0,0,1,59.63,145c-1.82.9-4.22,3.43-5.59,1.37-1.53-2.29,1.64-2.88,3.37-3.73.58-.29,1.42-.89,1.15-1.75s-1.12-.82-1.92-.92c-5.17-.61-7.73-3.76-6.49-8.86.47-1.9-.67-1.82-1.35-2.41-1.08-.92-1.83-2.15-1.14-3.32.85-1.48,1.9-.38,2.77.36s1.78.85,2.38,0C58.3,118.31,66.57,114.8,75.37,110.44Z" transform="translate(-47.4 -44.42)"/></svg>