<svg id="Layer_1" data-name="Layer 1" xmlns="http://www.w3.org/2000/svg" viewBox="0 0 139.05 149.33"><path d="M105.79,82.59c-.29-3.56,0-7.29-1-10.65-3.8-13.26-1-26.73-1.66-40.08-.08-1.43,1.68-3.6,3.12-4.26,1-.47,3.37.65,4.37,1.75a18.91,18.91,0,0,1,4.19,6.54q7.5,22.92,14.53,46c.7,2.31.38,4.92.83,7.34.19,1,1.2,1.78,1.83,2.67a11.34,11.34,0,0,0,2.38-1.86c7.2-9.76,19-12.46,29-4.47,7.34,5.89,16.72,6.51,25.77,7.49a43.78,43.78,0,0,1,8.71,1.54c1,.32,1.34,2.41,2,3.7-1.23.43-2.52,1.36-3.68,1.22-8.76-1.06-17.47-2.61-26.25-3.35a10.49,10.49,0,0,0-7.33,3c-6.71,6.81-13.27,13.84-19.3,21.25-3.67,4.51-5.7,10.38-9.48,14.76-7.7,8.9-17,15.5-29,18-6.32,1.32-12.42,3.85-18.44,6.28C84.9,160,83.94,162.3,83,164c-4,7-9.33,12.22-17.81,12.86-1.34.1-2.78-1.15-4.37-1.87,5.93-9.12,11.68-17.64,17.06-26.39,4.18-6.8,7.94-13.87,11.73-20.9.39-.72-.06-2.24-.61-3.06-5.76-8.56-11.48-17.15-17.5-25.53-10.27-14.29-10-30.83-10.41-47.24-.11-4.48,2.82-8.31,6.63-8.69,3.64-.37,8.72,1.1,11.14,3.67C83.94,52.21,87.79,58.81,92,65c3.46,5.14,6.61,10.49,10,15.68a16.86,16.86,0,0,0,2.78,2.68Z" transform="translate(-60.81 -27.49)"/></svg>