<svg id="Layer_1" data-name="Layer 1" xmlns="http://www.w3.org/2000/svg" viewBox="0 0 133.41 55.32"><path d="M113.54,92.86a37.3,37.3,0,0,0,2.53-8.07,46.81,46.81,0,0,1,2.63-8.19A1.8,1.8,0,0,1,121,75.25c1.43.36.84,1.39.74,2.24-.25,2.31-.55,4.61-.78,6.93,0,.49-.29,1.22.51,1.34.58.1.78-.49,1-.92a10.39,10.39,0,0,1,12.18-5.17c.29.1.73.34.85.23,1.83-1.55,4.15-.59,6.14-1.24a9.41,9.41,0,0,1,8.27,1.23,45.24,45.24,0,0,1,4.14,3,2.38,2.38,0,0,0,2.26.32,30.64,30.64,0,0,1,14-.28c2.87.59,5.83.76,8.74,1.18a11.93,11.93,0,0,1,4.18,1.39c.73.41,1.53.82,1.58,1.83-.14.07-.28.21-.34.18-5.22-2.62-11-2.72-16.61-3.73a29.81,29.81,0,0,0-11.28.35c-.58.12-1.34.11-1.54.81a1.59,1.59,0,0,0,.92,1.67,24.5,24.5,0,0,1,6.42,5.71c.75.87,1.57.32,2.35,0s1.74-.73,2.29.45c-.07.1-.12.19-.14.19-1.23-.31-2.54.21-2.81,1.12s.69,2,1.6,2.61c2.56,1.79,5.22,3.44,7.71,5.31a19,19,0,0,1,6.13,7,4.72,4.72,0,0,1,.56,3.78c-.42.11-.61-.09-.68-.31-1.75-5.65-6.25-8.93-10.64-12.28-2.7-2.06-6-3.3-8-6.28-.52-.77-1.38-.92-1.5.5-.1,1.09-.26,2.18-.45,3.26-.31,1.7-1.12,2-2.47,1A19.31,19.31,0,0,0,149.18,95,17.18,17.18,0,0,1,139,88.57c-.46-.62-1.17-1.33-1.81-.68-.87.87-2.4,1.66-1.68,3.31a55.94,55.94,0,0,0,2.59,5.66A19.89,19.89,0,0,1,140,102a4.87,4.87,0,0,0,5.81,4c.56-.07,1.12-.17,1.54.31a.87.87,0,0,1,.17,1c-.26.51-.51.18-.87.06-1.47-.47-3,.25-4.58-.61-2.36-1.29-3.8-3-4-5.61a5.6,5.6,0,0,0-1.4-2.91c-.14-.19-.47-.47-.55-.43-1.92,1.08-1.21-.71-1.43-1.34a6.43,6.43,0,0,0-.8-1.84c-.42-.59-.81-.67-1.29,0a13.92,13.92,0,0,1-4.58,3.32c-.69.38-1.34,1-2.2.45s-.74-1.34-.7-2.15c0-.42,0-.84,0-1.44a3.47,3.47,0,0,0-1.9,3c-.33,2.69-.9,5.4-1.46,8.07a97.9,97.9,0,0,0-1.26,10.34,14,14,0,0,0,.21,5.28c.41,1.44.84,2.83,2.48,3.39.38.12.88.38.79.87a1.41,1.41,0,0,1-.69.78c-.45.27-.65-.15-1-.39-4.21-2.81-3.64-7.09-3.29-11.13.32-3.64.62-7.27.7-10.94,0-1.86-1.43-3.08-1.46-4.9a4.38,4.38,0,0,1-3,3,6.07,6.07,0,0,1-4.14-.07c-.76-.31-1.07-.11-1.45.54A35.63,35.63,0,0,1,98.5,114.35a4.94,4.94,0,0,0-2,2.75c-1,3-1.64,6.28-4.13,8.64-1.71,1.64-3.46,3.17-5.86,3.68-.61.13-1.26.13-1.66.67-.51.71-1,.38-1.33-.08s.1-.95.54-1.17a5.42,5.42,0,0,1,1.58-.46c3.62-.46,5.65-3,7.34-5.81a24.06,24.06,0,0,0,1.72-4.83c.12-.35.27-.75,0-1s-.63.08-.95.16c-2.2.54-3.69-1-4.79-2.28-2.88-3.44-3.22-7.41-1.93-11.72a18.66,18.66,0,0,1,5.07-8.75c.61-.55.46-1-.22-1.44a14.43,14.43,0,0,0-6.44-2.43c-.83-.11-.84.56-1.1,1q-5,8.06-9.9,16.14A4,4,0,0,1,72.62,109c-1.61.74-2.33,2.46-3.23,3.87-1.74,2.74-3.74,5.31-5.72,7.87a8.18,8.18,0,0,1-3.85,2.64c-2,.57-3.5,2.32-5.78,1.91a1.33,1.33,0,0,0-1.37.75c-.3.63-.65.35-1,0s-.32-.74,0-1.1a2.45,2.45,0,0,1,1.49-.66A17.17,17.17,0,0,0,65,117c3.64-5,6.41-10.42,9.92-15.43C77.36,98,79.8,94.39,82.58,91c2.07-2.49,4.32-3.9,7.63-2.57a20.14,20.14,0,0,1,2.64.76c2.2,1.24,4.19,1,6.56.19a5.09,5.09,0,0,0,3.48-3.5c1-2.51,1.89-2.69,3.72-.69.7.77,1.38,1.57,2,2.39.46.59.68,1.17,1.67.48s1.38.37,1.7,1.1C112.53,90.4,113,91.64,113.54,92.86Z" transform="translate(-51.4 -75.18)"/></svg>