<svg id="Layer_1" data-name="Layer 1" xmlns="http://www.w3.org/2000/svg" viewBox="0 0 193.08 152.88"><path d="M200,154.89c-.26,1.72,1.86,2.2,1.36,3.81-1.8.5-3.07-.89-4.59-1.36s-3-2.05-4.13.52a2,2,0,0,1-1.65.74c-7.88-1-15.81,2.06-23.44.54-6-1.19-12.17,1.67-17.43-.79-8-3.74-17.67-2.89-24.54-9.36a9.83,9.83,0,0,0-2.07-1.38c-2-1.11-4.22-3.26-6.29-1.68s.65,3.5,1.18,5.23c1.44,4.75.48,5.94-4.38,7.85-6.59,2.59-13.43,4.3-20.06,6.68-2.07.75-3.42.78-5.39-.6s-4.21-3.28-7.46-1.39c-2.65,1.54-3.68-2.55-4.7-3.63-2.16-2.27-9.42-3-4.9-9.06a2.33,2.33,0,0,0-.18-1.75c-7.33-1-.61-7.06-3.47-10.08-.93-1,2.82-2.61,4.48-3.86-.15-.32-.19-.74-.39-.83-1.8-.82-5.16-.36-4.44-3.45.58-2.51,3.42-1.16,5.27-1.21,5.32-.15,10.65-.19,16-.21a3,3,0,0,0,3.2-2.51c.53-1.68-.83-2.19-1.7-2.58-11.55-5.29-19.71-14.61-28.1-23.63A98.94,98.94,0,0,1,54,91c-3.8-5.29-4.49-11.57-4.94-17.85-.06-.79.43-1.73-.35-2.28C40.52,65,42,56.12,41.4,47.83a14.19,14.19,0,0,0-1.11-3.27c-.39-1.16-2.11-2.34-.75-3.48s2.37.53,3.52,1.09l2.16,1c-1.78-4.82-6.6-7.4-8.87-13.31,5.55,2.8,9.06,6.53,13.59,9.05-2.76-6.07-7.34-11.2-9.23-17.74,5.79,3.62,8.42,10.28,15.15,15-3.46-7.55-7.44-13.54-6.46-20.93C53,21.11,55.18,27.71,60.24,34.37c-.74-7.93-4.66-14.16-2.56-21,3.29,6.5,4.24,13.82,8.15,20.87,2.15-6.71-1.15-13.64,3.32-19.31,0,8.86.26,17.61,3.94,26.95,1.23-5.61.21-10.85,4.4-15.48.29,6.85-1.77,12.78-.43,18.82,1.38,6.21,2,12,8.4,16.36,3.91,2.63,5.29,9,8.14,13.47,7.18,11.38,17.73,19.8,26,30.26,3.54,4.49,9.36,6.08,15.46,4.23,4.07-1.24,8.42-.19,12.61-1.77,2.7-1,9.46,5.2,9.5,8.19,0,2.57-.13,5.16-4.19,3.44-2.13-.9-4.61-.32-6.74.87a3.44,3.44,0,0,0-2.07,2.64c-.15,1.62,1.23,1.82,2.29,2.17,12.48,4.16,23.94,10.87,36.54,14.75,4,1.24,8.19,2.1,12.27,3.13-.44,2-2.13,1.21-3.23,2.34,4.51,1.56,8.23,4.31,12.88,4.34a20.19,20.19,0,0,0,12.58-4.11c1.34-1,2.88-5.23,5-.51a7.48,7.48,0,0,0,2.18-.8c1.38-.82,2.41-2.31,4.74-2.25-1,3.32-3.89,4.38-6,6.16-.81.68-3.07.79-.21,2.18,1.29.63-.59,1.29-1.28,1.71-5.6,3.42-11.36,2.5-17.14.4-.65,1.73,1.83,1.5,1.37,2.09C204.47,156.63,202.27,154.4,200,154.89Z" transform="translate(-36.35 -13.32)"/></svg>