<svg id="Layer_1" data-name="Layer 1" xmlns="http://www.w3.org/2000/svg" viewBox="0 0 214.3 89.67"><path d="M123.21,96.71c1,1,1.59,1.6,2.18,2.18,2.36,2.32,2.49,2.53,5.12.94a4.53,4.53,0,0,1,3.17-.8c4.16.67,6.23-1.77,7.84-5,.47.47,1.24.88,1.35,1.43a2.62,2.62,0,0,0,1.83,2.35c-.52-2,3-1.29,2.31-3.46-.5-1.54.59-2.39,1.5-3.38A62.38,62.38,0,0,1,160.76,80.7c1.8-1.15,3.91-1,5.83-1.59,3.06-1,3.39-.74,3.35-3.54,0-1.68.54-2.37,2-3.15,5.88-3.09,11.65-6.29,16.44-11.14,2.23-2.27,5.3-3.82,8.15-5.49,2-1.2,4-2.08,6.27-1.77,3.06.41,5.2-2,8-2.5a8.61,8.61,0,0,0,4.63-2.21c1.28-1.25,3.71-1.32,5.63-1.91a20.89,20.89,0,0,1,10.52-.5c2,.36,1.64,1.84,1.29,2.44-1,1.73-1.68,3.64-2.77,5.39a96.28,96.28,0,0,0-8.88,16.78c-1.47,3.89-4.21,5.41-7.33,6.39C207.12,80,200.44,82.34,194.27,86c-3.6,2.13-7.3,4.1-10.92,6.19A3.31,3.31,0,0,0,182,93.59c-1.64,3.85-5.28,6.37-6.84,10.16-.58,1.4-1.21,1.21-2.11,1.24a4.72,4.72,0,0,1-2.25-.61,17.11,17.11,0,0,0-8.92-1.38c-2.5.27-4.63,1.72-7.14,2.16-1.35.24-2.46,2.07-3.58,3.28-.26.28,0,1-.14,1.43-.34,1.14,1.61,1.31.82,3-1.55,3.33-1.88,7.2-3.85,10.39a24.19,24.19,0,0,1-3.34,3.62c-.19.19-9,4.14-9.29,4.1-4.29-.65-7,1.87-9.52,4.78-1.4,0-1.56-1.93-3.08-1.81a5.3,5.3,0,0,0-3.54,1.23c-1.91,1.67-3.6,1.07-4.09-1.53-.42-2.21-.93-1.89-2.42-.93-1.14.75-1.83.11-1.67-1.23a2.77,2.77,0,0,1,0-.5c.42-1.27,1.59-2.26.64-4s-2.37-.79-3.5-1.32c-1.81-.86-3.68-2-5.77-1.69-1.92.28-3.73-1.31-5.71-.09-.73.46-1.55-.16-2.09-.87-2.3,1.79-5.57.35-7.91,2.58-1.24,1.19-3.33,1.5-5,2.2-.83-1.4-1.68-2.78-2.46-4.2-.22-.4-.11-1-.39-1.33-6.32-6.64-12.6-13.39-21.89-15.88-2.26-.6-4.47-1.59-6.91-1.46-2.74.15-5.24-1.23-8.08-1.17-1.84,0-3.85-1.54-4.89-3.47-3-5.5-6.87-10.43-10.17-15.74a29.86,29.86,0,0,0-5.12-6.42c-2.58-2.35-3.81-5.11-1.92-8.52a3,3,0,0,0,.19-.92c.17-.92-.34-2.71.52-2.6,1.93.23,3.4-2.23,5-1s3.47.74,5.18.77a20,20,0,0,1,7.75,1.87C41.29,69,44.32,70.2,47.54,70c2.94-.19,5.57,1.64,8.59,1.06s5.45,1.52,8.18,1.81c1.91.2,2.41,1.89,4.13,2.27,5.58,1.22,10.22,5.14,16,5.88,2,3.49,6.69,2,9,4.9.19.25.94.12,1.43.09a4.34,4.34,0,0,1,2.63.92c2.67,1.61,7.93,6.65,9.08,9.2a27.68,27.68,0,0,0,7,9c1.44,1.17,2.52,1.31,3.81,0,.43-.45.73-1.1,1.53-1.14,3.48-.16,4.25-2.41,4.08-5.38A13.6,13.6,0,0,1,123.21,96.71Z" transform="translate(-18.89 -46.46)"/></svg>