<svg id="Layer_1" data-name="Layer 1" xmlns="http://www.w3.org/2000/svg" viewBox="0 0 229.19 154.88"><path d="M136.15,156.85c-4.86,3.31-6.06,1.43-7.62-2.29-2.5-5.95-5.39-11.52-1.73-17.95,1.73-3.06,3.36-6.18,5-9.29.12-.23-.1-.64-.14-.88-13.57-9.33-27.73-6.68-42.3-2.29.42.66.73,1.19,1.07,1.69s.76,1,1.22,1.67l-4.8,6.26c.55-7.74-4.78-9.11-9.09-11.8-5.9-3.68-11.37-8-17.38-12.35-.86,1.84-1.82,3.11-2,4.48-1.51,10.16-3.84,20.32-4,30.52-.18,10.84,7.23,18.51,14.53,25.79A86.11,86.11,0,0,1,75,178c-8,4.56-13.21,0-17.37-2.48-2.15-5-3.56-9.19-5.65-13-3.76-6.84-8.07-13.37-11.85-20.21-.93-1.67-1-4-.88-6,.19-2.93.9-5.83,1.46-9.15C28.75,135.21,24,146.78,22.45,159.78c-.36,3,1.55,6.37,2.95,9.31,1.18,2.49,3.13,4.61,5,7.3a10.81,10.81,0,0,1-11.77.78c-2.5-1.3-5.21-3.8-4.15-8.08.4-1.64-1.57-3.88-2.83-6.64,3.74-7,5.15-15.92,6.52-24.94,1-6.28,1.49-12.77,7.08-17.93,6.9-6.36,6.9-11.23,2.7-19.7-4.3-8.7-8.6-17.43-5.94-27.58.73-2.82,1.94-5.52,3-8.4C18.23,66.35,15.49,76,18.15,84.73c1.15,3.77.91,8,.81,12.07,0,1.38-1.58,2.73-2.67,4.45-.93-7.18-1.42-13.53-2.64-19.74S17.47,62.45,23,60c3.9-1.75,7.81-3.49,11.76-5.14,4.1-1.72,8.22-3.4,12.4-4.93,3.23-1.18,6.56-2.06,9.83-3.13,8.76-2.86,17.46-5.89,26.27-8.56,5.21-1.57,10.61-2.5,15.89-3.83,12-3,23.86-7.5,36-8.81,11.86-1.26,24.14,0,36.09,1.41,11.75,1.38,21.57,7,25.67,19,1.82,5.35,6.52,5.47,9.38,4.34,7-2.76,12.93,0,19.21,1.61.78.2,1.58.36,2.45.56.49-1.16.89-2.14,1.69-4.07C231,55.86,233.58,61.2,239,65.49c1.9,1.52,2.08,6.17,1.76,9.27-.47,4.54-2.16,8.95-3.15,13.45a6.44,6.44,0,0,0,.27,3.82c3.43,7.41-4,14-1.6,21.41.31,1-1.62,3.22-3,4.06A95.07,95.07,0,0,1,224,122c-.61,4.26-.52,8.72-2,12.55-1.3,3.26-4.45,5.78-6.78,8.62-5.79-3.09-9-7.07-10.17-12.88-1.19-6-7.77-9.2-13.58-7-2,.73-4,1.22-6,1.88s-5,.88-5.79,2.28c-1.71,3.09-3.38,6.91-3.08,10.24.52,5.69.76,11.34,4.58,16.81,3.1,4.46,2.77,11.34,3.79,17.17.12.73-.85,2.38-1.24,2.35a36.94,36.94,0,0,1-9-1.25c-1.08-.34-1.77-2.57-2.24-4.06-.71-2.27-1.07-4.64-1.75-7.73l-1.25-.36,1.76-5.19c-9.6,2.84-15.46-2.9-21.54-8.12-4.88,8.3-5.21,16.37-.73,24.73,1.05,2,3.82,4.68,0,6.76-2.81,1.51-11.28-1-11.61-3.49-.5-3.78-2.68-7.4-.58-11.55C137.46,162.13,136.42,159.63,136.15,156.85Z" transform="translate(-11.67 -25.04)"/></svg>