<svg id="Layer_1" data-name="Layer 1" xmlns="http://www.w3.org/2000/svg" viewBox="0 0 198.16 137.19"><path d="M154.17,124.93c13.9,1,27.6,1.31,41.05,3.3,7.51,1.1,14.72,4.74,21.83,7.79,4.65,2,6.42,6.2,5.15,11.19-1.16,4.5-5,4.67-8.77,5A22,22,0,0,0,210,153l5.1,6.25-7.85,4-.89-1.52,3.18-2.59a21.46,21.46,0,0,0-14.39-2.69c-12.67,1.71-25.54,1.9-38.31,3-7.89.66-15.86,1.22-23.58,2.85-23.42,4.92-47,5.18-70.53,2.26a138.7,138.7,0,0,1-29-6.63c-10.12-3.58-12-11.74-5.39-20.27a22.17,22.17,0,0,1,9.71-7.3c7.18-2.43,14.76-3.77,22.23-5.25,21.09-4.19,42.14-1.3,63.17.65,4.93.46,7.22-.38,9-5.86A49.47,49.47,0,0,1,154,92.5c3.83-2.33,7.61-4.76,11.24-7.39,3.28-2.37,4-5.48,3.22-9.66A214.26,214.26,0,0,1,165,50.87c-1-13.74,15.21-25.66,28.25-20.51a18.75,18.75,0,0,1,12,13.54C209.31,61,198.13,90.66,179,100.11c-10.06,5-19.38,11.2-24,22.23-.25.61-.61,1.18-.82,1.8A1.63,1.63,0,0,0,154.17,124.93Zm-22,24.47c-.33-3.88-1.9-5.53-5.43-5.48a75.08,75.08,0,0,1-9.48-.5c-19.55-2.26-39.13-3.8-58.78-1.3-4,.51-8,1.63-11.93,2.46l.31,1.8C74.87,154.12,103.19,154,132.18,149.4Z" transform="translate(-24.44 -29.14)"/></svg>