<svg id="Layer_1" data-name="Layer 1" xmlns="http://www.w3.org/2000/svg" viewBox="0 0 231.09 91.59"><path d="M66,129.3c.84-3.17-.18-5.22-1.65-7.71a49,49,0,0,0-11.53-14c-4.22-3.36-5.24-8.71-6.65-14-2.58.58-4.44,2.65-6.77,3.77a22.46,22.46,0,0,1-9.33,2.66,15.42,15.42,0,0,0-10.5,3.83c-2.12,1.82-4.73,3.36-9.09,1,6.29-2.07,10.16-6.85,16.19-7.57A19.51,19.51,0,0,0,39.4,90.88c4.67-4.93,8.52-9.7,11.1-16.2,4.22-10.62,14.4-13.45,24.58-14.77,8-1,16.08.45,24.1,1.32a174.85,174.85,0,0,0,37.3,0c9-1,18.28-2.35,27.4.77,3.18,1.09,6.8,1,10.24,1.21s6.83.79,9.64,3.16c2.55,2.16,7.15.49,8.54,2.58,1.85,2.8,4.53,3.71,6.69,5.62,2.35,2.08,2.49-.56,3.08-1.34,4.16-5.48,4.11-5.51,8.54-7.06,1,3.32-.11,6.12-2.37,8.32-3.44,3.35-1.14,5.81,1,8.24,2.5,2.82,5.37,2.79,8,.22,2.86-2.78,5.54-5.75,8.62-9,2.07,3.6-.16,6.75-.43,9.92-.15,1.76-2.1,3.76.3,5.15a5.79,5.79,0,0,0,6.53-.19A56.66,56.66,0,0,0,237,84.57c1.36-1.26,2.26-3.07,4.5-3.93.55,4.88-1.68,8.47-4.41,11.57-3.67,4.18-6.28,8.66-6.6,14.31-.15,2.58-1.46,3.85-4,4.85-10.32,4.08-19.67.49-29.09-3.08-.89-.34-1.66-1-2.52-1.38-8.11-3.91-15.28-2.49-22.13,4.49,3.16,3.54,7.44,5.85,10.4,9.71,6.15,8,5,14.52-4.09,18.93-3.59,1.74-5.47,4.49-7,7.94-1.75,4.07-3,4.14-6,.71a20.48,20.48,0,0,1-4.14-8.15c-1-3.87.44-5.6,4.54-5.77,1.15-.05,2.31,0,3.44-.19a2.34,2.34,0,0,0,2.32-2.13c.14-1.48-.83-1.91-2-2.24-3.67-1-7.32-2.06-11-3.12-.84,2.88-.33,5.58-.54,8.24-.65,8.22-5.21,12-13.09,10-5.52-1.39-10.95-.89-16.92-.35,1.05-5.59,4.39-9.33,8-12.84,1.36-1.31,2.58-.26,3.39.77,1.27,1.63,2.06,3.66,4,4.78,1.39-7.47-4-13.54-11.08-12.55-12.29,1.75-24-.37-35.44-5-7.68-3.09-9.85-1.44-9.13,6.81a11.29,11.29,0,0,0,6.23,9.64,83.5,83.5,0,0,0,7.65,3.93c3.07,1.26,3.11,3.05.21,4.74-1,.57-1.92,1.2-2.9,1.76-4.16,2.39-8,3.8-12.56,0-2.86-2.42-6.52-3.87-9.13-6.84-4.06-4.61-7.67-5.3-13.14-2.36a44.44,44.44,0,0,1-6.4,2.43c-2.66.94-3.76.43-3.82-2.69C54.43,129.07,57.4,126.72,66,129.3Z" transform="translate(-10.46 -59.56)"/></svg>