<svg id="Layer_1" data-name="Layer 1" xmlns="http://www.w3.org/2000/svg" viewBox="0 0 211.82 71.74"><path d="M230.29,97.07c-11.52,2.28-22.86,1.86-34.25,2.26.73,1.08,2.45.41,2.83,2.45-7.38,0-12,6.06-18.36,8.51a72.71,72.71,0,0,1-10,2.93c-3.24.73-5.69,2-7.21,5.29-1.21,2.68-3,5.43-7,2.64-1.46-1-4-.69-6.19.39A22.26,22.26,0,0,1,141,124c-1,0-2.2-.08-2.38-1.29-.13-.87.79-1.39,1.52-1.8,2.14-1.22,4.7-1.73,6.36-3.74-.18-.3-.34-.77-.49-.77a201.12,201.12,0,0,1-27.29-2.23,13.2,13.2,0,0,0-8.19,1.62c-2.49,1.31-5.12,2.39-7.74,3.45s-3.86.61-3.12-2.59c.62-2.66-.76-4.35-3.13-5.55-6.41-3.25-13.23-4.78-20.28-3.66a8.68,8.68,0,0,1-7.71-2.09c-5.14-4.33-11-4.43-16.3-.4a37,37,0,0,0-4.86,5c-6.92,7.69-14,15.17-23.94,19.13a33.74,33.74,0,0,1-3.3,1.13,6.62,6.62,0,0,1-1.56,0c-.55-1.92.93-2.78,1.88-3.7,6.74-6.55,11.78-14.38,17-22.09A18,18,0,0,0,40,88.77a109.34,109.34,0,0,0-5.67-16,44.47,44.47,0,0,0-9.61-13.62c2.65-1.45,4.27-.1,5.93.67C40.76,64.57,46,73.74,51.34,82.79c.94,1.57,1.65,3.28,2.66,4.8,2.58,3.89,5.4,4.8,9.79,2.92,5-2.16,10.93-1.55,15.54-5a1.93,1.93,0,0,1,2.35.2c6.44,5.18,13.29,1.69,19.38,0,13.4-3.78,27.15-4.82,40.78-6.88,4.1-.62,8.23-1.15,12.32-1.88,6-1.08,7.69-3.27,7.78-9.52,0-1.57-1-3.7.82-4.56,2.16-1,3.62,1,5.11,2.27a23.62,23.62,0,0,1,7,10.79c2.64,8.19,8.71,13.07,15.93,16.87,3,1.58,6.23,2.54,9.61,1.56,4.31-1.24,8.13,1.27,12.24,1.33,5,.08,10,0,15,0A2.66,2.66,0,0,1,230.29,97.07Zm-183.62.34c3.14,2,5.74.81,8.11,1.41,17.21,4.39,34.63,7.9,52,11.64a178,178,0,0,0,38.06,4.34c2.17,0,4.47.21,5.77-2.06,2.17-3.8,5.69-4.75,9.71-5,1.5-.09,4,1,3.73-2.3-.45-5-2.1-6.87-5-6.87-6.89,0-13.77,1.24-20.66.11a22.13,22.13,0,0,0-6.93.33,64.86,64.86,0,0,1-15.53.45c-11.22-1-22.45-1.09-33.65-1.87-6.52-.46-13.12-.54-19.51-1.71C57.36,94.91,52.56,96,46.67,97.41Z" transform="translate(-18.47 -58.55)"/></svg>