<svg id="Layer_1" data-name="Layer 1" xmlns="http://www.w3.org/2000/svg" viewBox="0 0 220.54 82.06"><path d="M156.09,60.46c4.58,5.36,8.1,10,12.19,14.06,2,2,5,4,7.73,4.33,18.7,2.6,36.49,8.2,54.08,15.32l-9.38,10.41,16.23,4.9c-2.82,1.21-4.44,2.21-6.19,2.62-16.81,3.9-33.6,7.87-50.48,11.41-4,.85-6.25,2-6.47,6.48-.21,4.18-1.33,8.32-2.05,12.47l-1.21.06c-2.47-5.32-4.94-10.65-7.09-15.27l-51.91-4.85c-8.9,5.24-17.91,15.69-31.36,18.86a53.28,53.28,0,0,0,22-19.82c-1.93-5.55-5.66-3-8.89-2.51l-2.69-3.83-5.9,1.41c-1-4.7-4.23-3.83-7.87-2.62-1.86-4-5-4.09-9.12-1.85l-2-3.42-5,1.07-2.18-1.8-8.69-.39-.43-1.1c-2.12,1.76-4.3,3.45-6.36,5.27-6.22,5.49-12.28,11.17-18.65,16.48-1.88,1.56-4.58,2.15-6.91,3.19l-.75-1.17c4.15-4.93,8.28-9.87,12.44-14.79,5.23-6.19,5.63-13.46.69-19.91-4.43-5.78-9.19-11.31-13.46-17.39,14,3.71,21.7,16.56,32.39,23.25h8.54L66.91,99l-.1-.85,4.4,1.13,3.67-2.43.23.8,8.22-2.35L83,93.93c3.54.88,7.23,2.23,8.58-2.43l6.73.45,2.94-3.37,10.57-2.24C109.27,74.1,99.07,71.7,91,67.11l.64-1.39c5,2,10.2,3.65,15,6.13s9.12,6.13,14,8.68a9.49,9.49,0,0,0,6.75.24c6.37-2.2,12.49-5.15,18.85-7.37C151.87,71.41,155.53,68,156.09,60.46Z" transform="translate(-16.4 -60.46)"/></svg>