<svg id="Layer_1" data-name="Layer 1" xmlns="http://www.w3.org/2000/svg" viewBox="0 0 177.16 129.03"><path d="M156.93,159.14c5.61,6.45,12.81,2.74,18.92,4.13-2.19,3.89-23.79,3.53-34.1-1h10.8l.7-1.54c-1.81-.88-3.55-2.11-5.47-2.58-3.49-.84-7.09-1.23-10.64-1.81l.21-1.53,9.22,1.13.8-1.11L136.63,146c-3.28-2.73-6.82-5.07-6.26-10.44.13-1.28-3-3.69-4.93-4.23a63.07,63.07,0,0,1-21-10.69c-1.38-1-3.36-1.29-5.09-1.81q-7.38-2.22-14.77-4.35a7.07,7.07,0,0,0-2.9-.36c-9.55,1.33-19.14,2.45-28.6,4.23-6.21,1.17-12.23,3.32-18.6,4.36,3.69-5.7,9.29-8.35,15.28-9.78,9.71-2.32,19.57-4,29.36-6,3.9-.78,8-1.11,11.62-2.54,3.14-1.23,5.73-3.81,8.66-5.65,10.92-6.89,22.41-12.08,35.4-14.17,6.09-1,11.76-4.47,17.68-6.66,4.49-1.65,9.21-2.72,13.59-4.61,4.88-2.1,7.14-6.29,7.2-11.59.05-4.71-1.63-10.51.52-13.82,2.47-3.77-3.22-9.12,2.7-11,6.82,7.39,13.65,14.43,20,21.88,2.39,2.8,3.57,6.62,5.54,9.83a24,24,0,0,0,4.24,5.14c1.74,1.59,3.84,2.78,5.35,5.16-1.09.08-2.17.22-3.25.22-8.31,0-9.4,1.18-12.44,8.89-3.2,8.13-6.85,16.12-10.83,23.9-5.85,11.42-16.22,17.24-27.9,21.19-2,.67-3.84,1.85-5.86,2.34-1.56.38-3.31-.09-5,.09-2,.24-4.08.76-6.11,1.15.42,1.72.47,3.66,1.36,5.08,1.31,2.09,3.44,3.66,4.84,5.7,5.47,8,13.11,10.33,22.3,9a4.29,4.29,0,0,1,1.45.19c.15,0,.28.17.77.5Z" transform="translate(-34.46 -36.92)"/></svg>