<svg id="Layer_1" data-name="Layer 1" xmlns="http://www.w3.org/2000/svg" viewBox="0 0 207.53 66.5"><path d="M116.13,125.23c-2.64-8.14-9.41-8.42-16-10.52-7-2.23-12.56-2.17-19,3.85.61-3,.84-4.12,1.13-5.57A57.41,57.41,0,0,0,75,110.13c-6.84-1.78-12.35-1-15.93,6.53-2.5,5.25-7.69,8.37-14.29,11.71,1.81-5.59,3-9.77,4.51-13.84,1.64-4.44.63-8.13-2.55-11.42C39.58,95.69,32.47,88.2,25.2,80.88c-1.29-1.3-3.23-1.95-4.93-2.94l-3-9c15.63,10.37,31.34,20.84,47.1,31.22,4.4,2.89,17.22-1.27,19.18-6.26,12.28,7.21,25.12,1.85,37.74,1.55,5.27-.12,10.52-1.35,15.76-2.14,6.39-1,9.35-5.14,10.19-11.18.41-2.94.75-5.9,1.31-10.35,2.49,1.69,5.18,2.51,6,4.21,5.67,12.24,15,16.35,28.36,16.53,12.67.17,25.29,3.62,37.92,5.69,1,.17,2,.83,4,1.68-2.46,2-4.11,4-6.22,4.87-8.06,3.41-16.17,6.79-24.47,9.5-3.54,1.16-3.6,3.3-3.77,6-.35,5.26.22,10.83-5.7,15.23-2.3-4.13-5-7.91-6.56-12.11-1.38-3.67-3.38-4.72-7-4.67-13,.18-26,.19-39,.14-4.65,0-8.88.71-12.31,4.22C119,123.86,117.65,124.32,116.13,125.23Z" transform="translate(-17.31 -68.89)"/></svg>