<svg xmlns="http://www.w3.org/2000/svg" viewBox="0 0 172.85 100.63"><defs><style>.cls-1{fill:none;stroke:#000;stroke-linecap:round;stroke-linejoin:round;stroke-width:2px;}</style></defs><g id="Layer_2" data-name="Layer 2"><g id="Layer_1-2" data-name="Layer 1"><path d="M23.8,60.87C16.85,63.83,11,68.65,4.25,72c-1,.51-2.13,2.18-3.22.85s.49-2.43,1.31-3.52c5-6.72,11.53-11.88,18.16-16.85C25.2,49,29.85,45.54,33,40.4c1.32-2.16,3.62-2.83,6.05-3.28,7.32-1.35,14.63-2.82,21.89-4.58-2.06-.85-4.23.68-6.85-.88C60.44,29.38,66.94,30,72.58,27.2c-.47-1.14-2.08,0-2.41-1.86,12,2.43,22.21-3.56,33.13-6.23C108,18,110.82,14,114.14,10.9c1.21-1.14,2.22-2.4,4.27-2,7.89,1.4,15.2-.76,21.89-4.59,8.19-4.67,16.37-5.74,25.14-2.06,5.13,2.14,7.78,6,7.37,11.38-.6,7.9-3.28,15-10.09,19.74-4.54,3.14-8.43,7.12-13.71,9.38-3.19,1.37-6.84,3.62-5.83,8.53.32,1.54-1,2.32-2.27,2.53C129.18,55.76,120.26,64,109.44,68c-4.55,1.68-8.62,4.56-13.51,5.41l-.09-.12c4.92-3.68,11.07-5,16.4-8.34-17.48,3.41-33.42,9.65-47,21.17-4.87,4.13-10,7.92-14.83,12.14-1.67,1.48-3.18,1.84-6,1.32L77.8,75.29c-9.28,3.08-19.37,3.93-27.8,9.38A206.29,206.29,0,0,1,24.54,98.94c-1.35.63-2.71,1.52-4.38.6,0-2,1.63-2.33,3-2.84-.13.94.31,1.37,1.17,1a116.42,116.42,0,0,0,19.18-11c-5.14,2-10.81,2.48-15.37,5.86,1.57-4.07-1.51-2.16-2.73-2A159.33,159.33,0,0,0,2.15,96.92c5.58-1.71,9.85-6.26,15.93-6.81A43.71,43.71,0,0,0,43.75,79.5c5.68-4.93,12.68-8,19.45-11.22a13.26,13.26,0,0,0,3.43-2.16A207.35,207.35,0,0,0,42,73.43c-4.23,1.46-8.22,4.19-13.06,3.34l1-1c31-11.1,64.41-15.78,93.57-34.5-4.82-.66-8.53.2-12.26.27-24.56.41-46.23,9.57-67,21.64-4.29,2.5-7.82,6.23-12.72,7.69,1.82-3.74,6.4-4.39,9.26-8-8.69,3.16-15.41,8.68-23.48,11.39,3.07-3.18,7.23-4.64,11-6.69,14.15-7.75,28.48-15.19,43.51-21.15.33-.13.58-.49,1.72-1.5A121.9,121.9,0,0,0,25.76,61ZM93.71,67.1c11.63-1.62,22.3-5.91,33-10a79.34,79.34,0,0,0,10.71-5.55c2.14-1.23,2.68-3.47,1.18-5.34s-2.54.1-3.46,1.19a8.49,8.49,0,0,1-3.95,2.18c-10.81,4-20.39,10.68-31.56,13.9C97.48,64.06,95.67,65.85,93.71,67.1Zm41-46.37c-1,2.41-2.06,3.67-2,4.91.11,6.57-4.89,6.12-9,6.8-1.36.23-2.78.08-4.17.18a5,5,0,0,0-4,2c-.61.88-1.61,1.94-1.49,2.79.19,1.29,1.87,1.14,2.83,1.1,7.89-.33,15.78-.79,23.67-1.28,1.33-.08,2.22-1,1.34-2.28C139,30.83,137.25,26.15,134.68,20.73ZM85,61C70.68,66,56.91,72.12,44.42,80.85,58.87,76.15,72.79,70.34,85,61ZM70.67,37.68c-11.79,2.11-24.36,1.66-34.5,9.82C48,45.44,59.72,43.14,70.67,37.68Zm39.19,17.7C94.59,58.49,83.21,63.08,78,68.79,89,63.5,100.4,62.57,109.86,55.38ZM91.93,65.57c-10.24,3.84-21.08,6.13-30.39,12.2C71.89,74.22,83.25,73.25,91.93,65.57ZM14.44,63.2c9.16-4.18,17-10.61,26.48-14.1C29.77,49.6,22.23,56.7,14.44,63.2Zm61-33c-1.5.28-4.35-.9-4.29,2,0,2.21,2.77,1.75,4.43,1.63,2.74-.19,5.55-.47,7.89-2.17.81-.58,2.49-.89,1.86-2.26s-2.14-1-3.35-.66C79.89,29.24,78.09,30.94,75.44,30.18Zm41.17,24c5.06-2.45,9.82-5.37,15.22-6.9.95-.27,2.16-.69,1.86-1.83-.42-1.6-1.78-.7-2.8-.57C124.65,45.67,120.61,49.94,116.61,54.17ZM32.66,44c5.07-3.33,11.09-4.38,16.47-6.93C43.31,38.59,36.33,37.19,32.66,44Zm81.42-10.33c-6.12.21-9.63,4-14.07,5.53C104.79,38.53,110.06,39.16,114.08,33.66ZM36.9,86.24c6.45-1.56,12.76-3.46,18.12-7.65ZM92.56,29.58l14.29-6.74C100.51,23,96.58,26.39,92.56,29.58Z"/><path d="M2.25,84.16c5.16-.49,9.69-2.77,14.24-5,6.05,1.24,10.17-2.22,14.21-5.86l-.77,2.43-1,1a13.31,13.31,0,0,1-3.06,2.07c-7.4,2.32-14.83,4.53-22.28,6.68C3,85.7-.46,87.66,2.25,84.16Z"/><path d="M23.8,60.87l2,.14-11.94,11C15.94,67.13,20.76,64.84,23.8,60.87Z"/><path d="M95.93,73.37C92,76.15,83.56,80.23,80.29,80.56c5.11-2.57,9.81-6,15.55-7.31Z"/><path class="cls-1" d="M109.28,52.64c-12.82,4-25.46,8.77-38.51,11.67-13.33,3-25.91,7.91-38.83,12-1.1.34-2.11.81-2.93-.44"/><path class="cls-1" d="M76.25,45.75c-10.66,5.72-21.87,10.39-32.82,15.4-8.69,4-16.87,9-25.71,12.58"/><path class="cls-1" d="M114.71,63.71c-4.77,4.81-11.46,6.13-17.25,9s-11.82,5.9-17.86,8.58"/><path class="cls-1" d="M141.89,42.4c0,5.8-.79,10.48-7.89,12.34-5.31,1.39-9.85,5.76-15.16,7.08-8.92,2.21-17.43,5.86-26.67,7.12C88,69.5,84,71.77,80.37,74.49,69.11,82.92,57.58,91,46.14,99.19a5.07,5.07,0,0,1-1.66.44"/><path class="cls-1" d="M61.62,44.28,49.08,47.83"/><path class="cls-1" d="M44.06,49.51C34.17,54.66,24.25,59.77,14.4,65c-1.41.75-2.53-.38-3.78,0"/><path class="cls-1" d="M107.19,20.26A57.93,57.93,0,0,0,95.48,24"/><path class="cls-1" d="M86.29,27c-2.26-1-4.22,0-6.29.79-1.58.58-3.5,1.93-4.58-.79"/><path class="cls-1" d="M69.14,65.8c-7,4.63-15.37,7-22.09,12.19-1.5,1.16-4.44,1.12-4.24,4.1"/><path class="cls-1" d="M136,42c-.2,3.81-1.86,6.37-5.85,7.11-4.15.78-7.7,3-11.28,5-1.72,1-3.26,2.46-5.45,1.23"/><path class="cls-1" d="M52.42,36.56c-4.71-1.69-17.34,1.62-20,5.47-.95,1.37-2.91,3.08-1.24,4.9a5.67,5.67,0,0,0,6.23,1.83c2.09-.65,4.31-2.32,6.66-.51"/><path class="cls-1" d="M58.28,79.16C47,83.88,38,92.7,26.57,97.3c-2.38,1-4.88,1.28-7.18,2.33"/><path class="cls-1" d="M80,73.73C74,74,68.78,77.5,62.89,78.42c-.6.1-1.28,1-2.1.73-10.13-3-17.26,4.17-25.51,7.53"/><path class="cls-1" d="M30.68,47.83C24,52.87,16.89,57.26,11,63.29"/><path class="cls-1" d="M112.62,52.85c.93,2.26.34,3.72-2.07,4.63-2.85,1.08-5.52,2.67-8.39,3.67-4.26,1.49-8,3.55-10.86,7.15"/><path class="cls-1" d="M94.23,64.54c-.42-.14-.91-.5-1.24-.38-11.8,4-24.09,6.8-34.71,13.75"/><path class="cls-1" d="M126.42,40.73c-6-2.47-12.26-.62-18.39-.85-4.19-.16-8.37,2.86-12.55,0"/><path class="cls-1" d="M52.42,37.81c-2.43,2.45-5.82,2-8.77,2.95-4.28,1.31-7.69,4.16-11.29,6.66"/><path class="cls-1" d="M30.26,73.73c-2.08,3.49-5.15,5.22-9.18,5.92-7,1.2-13.59,3.78-20.08,6.62"/><path class="cls-1" d="M88,60c-1.54,3.12-5.08,3.3-7.44,5.12-1.45,1.11-4,1.19-4.27,3.65"/><path class="cls-1" d="M115.13,31.54c.72,3.49-3.07,4.73-3.76,7.52"/><path class="cls-1" d="M24.83,60.37c-3.43,4.53-8.08,7.8-12.12,11.69"/><path class="cls-1" d="M45.32,85.43c-7.67,1.67-15.27,3.89-23,4.86s-14,5.2-21.3,6.84"/><path class="cls-1" d="M42.81,62c-2.8,3.77-7,5.7-10.87,7.93"/><path class="cls-1" d="M63.71,31.54c-3.43-1.89-6.67.75-10,.42"/><path class="cls-1" d="M71.24,32H67.89"/><path class="cls-1" d="M88.79,27.37v2.5"/><path class="cls-1" d="M75.42,28.2c-2.26.77-4.9.5-6.69,2.51"/><path class="cls-1" d="M70,25.69l4.6.84"/><path class="cls-1" d="M10.2,59.53c-.82,1.36-.35,2.58.42,3.76"/><path class="cls-1" d="M30.26,89.19c.18,1.39-.12,2.51-1.67,2.92"/></g></g></svg>