<?xml version="1.0" encoding="UTF-8"?><svg id="Layer_2" xmlns="http://www.w3.org/2000/svg" viewBox="0 0 189.85 60.38"><g id="Layer_1-2"><path d="M65.81,40.73c-3,3.95-3.97,7.81-5.18,11.55-.51,1.58-.89,3.25-2.32,4.32-1.19,.89-2.5,1.01-3.72,.15-1.35-.95-1.31-2.25-.45-3.51,3.29-4.85,5.88-10.04,8.08-15.46,.86-2.12,2.92-3.14,4.85-4.12,1.49-.76,3.31-1.26,2.8-3.48-.57-2.47-2.52-2.98-4.67-2.64-5.09,.8-10.18,1.64-15.23,2.64-2.44,.48-4.84,1.24-7.19,2.06-7.1,2.47-13.96,2.29-20.74-1.21C13.77,26.74,6.32,21.63,1.74,13.16-.16,9.64-.65,6.15,.99,2.54c2.52,.18,2.81,1.83,3.41,3.14,.91,1.96,1.68,3.99,2.63,5.93,5.54,11.35,16.27,17.5,28.76,16.64,2.41-.17,4.42-1.41,6.69-1.95,7.29-1.71,14.53-3.69,21.86-5.22,2.87-.6,5.3-1.55,7.59-3.4,4.22-3.41,9.18-5.33,14.47-6.43,15.17-3.15,30.51-2.31,45.79-1.52,4.95,.26,9.64-.11,14.2-1.75,3.15-1.14,6.31-2.09,9.56-2.83,2.85-.65,5.62-.97,7.75-3.73,1.81-2.35,5.18-1.7,6.69,1.1,3.12,5.77,8.39,9.38,12.97,13.69,1.94,1.83,4.04,3.5,5.52,5.74,1.73,2.62,1.17,4.38-1.83,5.24-2.06,.59-4.21,.86-6.42,.63-2.48-.26-4.99-.35-7.48-.3-6.81,.13-10.55,5.67-8.13,12.03,1.61,4.23,4.71,6.79,9.17,7.58,1.83,.32,3.7,.4,4.41,2.55-2.45,4.39-4,5.08-8.3,3.25-6.51-2.77-12.16-6.95-17.42-11.56-2.71-2.37-5.05-3.01-8.51-1.8-10.01,3.5-20.14,3.97-30.33,.4-5.81-2.04-11.47-1.41-16.89,1.53-1.46,.8-2.99,1.47-4.44,2.29-3.56,2.02-7.18,2.17-11.07,.94-8.34-2.62-13.95,1.74-13.69,10.5,.01,.5,.18,.98,.23,1.48,.17,1.92-.57,3.43-2.54,3.63-2.33,.23-3.15-1.43-3.34-3.48-.25-2.61,.61-4.92,2.01-7.07,1.61-2.45,2.48-5.04,1.51-9.08Z"/></g></svg>