<svg id="Layer_1" data-name="Layer 1" xmlns="http://www.w3.org/2000/svg" viewBox="0 0 213.27 119.88"><path d="M106.75,49.1c5.83,0,11.68-.25,17.49.06a30.2,30.2,0,0,0,18-4.76c7.54-4.67,15.06-4.26,22.51.33,6.49,4,13.74,3.48,20.87,3.08,1.1-.06,2.23-1.74,3.13-2.86,3.2-4,4.21-4,7,0,2.49,3.67,5.83,4.1,9.7,1.65,1.35-.85,3.68-1.71,4.73-1.11A6.44,6.44,0,0,1,213,50.17c0,3.27,1.46,5.36,3.29,7.9,2.51,3.49,3.5,8.05,5.89,11.67a59.93,59.93,0,0,0,9.27,10.84c2.11,2,3.26,3.09.91,5.5-1,1-1.55,2.55-2.45,3.74-2.15,2.84-4.77,4.62-8.59,3.43-4.74-1.47-9.51-2.91-14.27-4.32-1.57-.46-3.37-1.45-4.73-1.06-9.71,2.85-20.47,3.24-28,11.44a14.66,14.66,0,0,1-3.4,2.9c-2.75,1.56-3.16,4-4,6.85-2.22,8,1.17,12.37,8,15.5a28.54,28.54,0,0,1,6.08,4.32c5.63,4.68,6.09,9.57,1.9,15.59-2,2.91-3.68,3-6.37.69a108,108,0,0,0-11.22-8.1c-2.82-1.83-4.38-.7-4.33,2.62,0,1.49.21,3,.16,4.49-.1,3.38,1.7,4.5,4.83,5.05a56.6,56.6,0,0,1,9.35,2.95c.5.17.75,1,1.11,1.58a8.14,8.14,0,0,1-2,.93c-4.44.71-8.89,1.29-13.32,2-7.27,1.11-12.51-3.13-15.36-10.07-2.67-6.46-7-12.23-10.63-18.29a1.31,1.31,0,0,0-.8-.57c-5-.55-9.48-1.58-9.87-7.93a7.19,7.19,0,0,0-3.48-.36q-10.68,2.1-21.32,4.48a5.8,5.8,0,0,0-3.27,1.72c-4.47,6.33-8.77,12.79-13.13,19.2a33.51,33.51,0,0,0-2.53,3.69c-1.28,2.51-.57,4,2.39,4.54a54.67,54.67,0,0,1,7.93,2.47c.46.17,1.06,1.32.92,1.53a3,3,0,0,1-1.78,1.17c-6.08,1-12.16,2-18.27,2.63-8.84.92-13.56-3.72-13-12.55.27-4.47.84-8.93,1-13.4,0-1.12-1-2.27-1.5-3.41-1,.51-2,1.09-3,1.51-2.53,1-5.09,2-7.64,3-3.66,1.41-7.93,2-10.83,4.39-4.44,3.58-3.91,9.47.1,14.72a26.7,26.7,0,0,1,2,3.73c-1.55.37-3.3,1.4-4.59,1a17.88,17.88,0,0,1-7.12-3.76c-6.73-6.67-7.89-15-6.46-24,.56-3.53,2.25-5.8,5.81-6.56a9.62,9.62,0,0,0,7.58-7.19c3-10.57,5-21.25,3-32.34-.3-1.64.41-3.58,1-5.25,7.78-21.42,22.78-31.8,47-32.44,7.15-.19,14.31,0,21.47,0Z" transform="translate(-20.39 -41.09)"/></svg>