<svg id="Layer_1" data-name="Layer 1" xmlns="http://www.w3.org/2000/svg" viewBox="0 0 163.17 108.2"><path d="M99.34,78.08c-4.69-1.09-9.67.35-14.18,2.78-9.21,5-17.66,2.38-25.61-2.43-5.47-3.31-10.26-7.76-15.32-11.76-1.92-1.51-3.21-3.33-2.46-6s3-2.47,5.19-2.76c20.17-2.68,40,.09,59.85,3.35,8,1.31,15.8,3.11,23.74-.45,5.58-2.5,11.26-1.45,17.3-.66A75.8,75.8,0,0,1,165,64c3.19,1.21,6.42,2.42,9.14,4.55,4.34-6.88,12.36-12.19,8.79-23.16,3.33,4.37,3.53,6.69,1.38,11.49a18.86,18.86,0,0,1-5.08,7.3,5.44,5.44,0,0,0-2.11,6.1c11-.29,21-2.68,27.56-13.33-.34,3.79-.67,4.45-3.15,6.69-5.19,4.69-11.25,7.77-18.23,8.11-4.66.23-5.38,2.6-5.44,6.41-.1,6.84-2,13-7.27,17.86-1.5,1.38-2.73,2.24-4.7.9-1.61-1.09-3.53-2.56-5.32-.72s-.07,3.73.59,5.5c3.62,9.64,1.22,18.55-3.24,27.19-.59,1.16-1.45,3.79-3,.28-.71-1.62-1.06.36-1.34.67a24.77,24.77,0,0,1-7.79,6.12c-.78.36-1.87,1.35-2.56,0-.58-1.11.14-1.62,1.29-2.08,3.86-1.54,6.72-3.77,4.52-8.59a.57.57,0,0,1,0-.48c4.54-6.14.1-10.34-3.08-14.9-.85-1.22-1.63-2-3.13-2-1.95.07-1.75,1.57-2,2.85-1.13,5.14-2.3,10.31-4.8,15-1,1.94.48,2.24,1.11,3,3.9,4.93,5.38,18.48,2.41,23.71a1.8,1.8,0,0,1-2.47.9c1.88-2.82,1.56-5.88,1.22-9-.24-2.23-.37-3.94-3.25-3.8-.64,0-1.84-.71-1.91-1.22-.58-4.32-4.7-5.42-7.27-7.77-1.37-1.25-1.75-2.55-2.63-4.77-1.46,6.07-3.85,10.85-8.17,14.52-5,4.24-11.58,6.17-15.43,3.12-6.13-4.84-12.24-10.11-12.75-18.89-.25-4.19-2.29-8.39.41-12.6.73-1.14-1.3-2.19-3.5-1.13-7.27,3.48-15.52,4.06-22.69,7.81-1.73.91-3.62,1.88-5.23-.44a4.81,4.81,0,0,1,.06-6c6.59-9.12,14.21-17.06,24.94-21.37.77-.3,1.56-.57,2.32-.88,5.39-2.15,12.6-1.64,13.86-9.79C97.31,80,98.7,78.94,99.34,78.08Z" transform="translate(-41.55 -45.4)"/></svg>