<svg id="Layer_1" data-name="Layer 1" xmlns="http://www.w3.org/2000/svg" viewBox="0 0 191.47 159.67"><path d="M179.38,173.36c-8.23,4.26-11.89,2-17.18-1.86-8.21-6-7.66-14.81-10.62-22.61-1.83-4.82-5.17-9-7.57-13.68-1.29-2.49-2.8-5.25-2.86-7.92-.2-8.89-4.73-15.53-10.35-23.21-4.43,8.26-8.51,15.14-6.69,24.16.53,2.62-1,5.91-2.23,8.57-2.74,5.82-6.24,11.3-8.79,17.19-2,4.66-.51,8.73,4,11.61,1.22.78,1.88,2.4,2.8,3.63-1.55.63-3.09,1.72-4.67,1.8-6.24.31-9.55-2.72-10-9.54a18.51,18.51,0,0,1,1.33-8.26c2.86-6.76,3.59-13.71,3.56-21,0-3.84,1.32-7.72,2.25-11.53.63-2.57,1.91-5,2.36-7.59.91-5.22-1.4-8.7-6.29-10.74a107,107,0,0,1-9.86-4.83c-3-1.66-5.44-1.34-7.1,1.8-4.26,8.08-8.51,16.17-12.58,24.35-.59,1.2-.09,2.92-.15,4.39-.09,2,.46,4.38-.48,5.8-3.15,4.77-2.17,9.52-.87,14.41C80.17,159,84,168.93,94.93,174.24c2.07,1,3.55,3.2,5.49,5-7.8,4.07-19.38.73-23.25-6.36-1.42-2.59-2.16-5.55-3.21-8.35C70.77,156,67.9,147.35,64.28,139c-2.21-5.11-2.71-9.54-.14-14.71S68.4,113.5,70.31,108a8.87,8.87,0,0,0,.54-4.89,20.33,20.33,0,0,0-3.2-6.31c-.32-.46-3-.16-3.3.47-1.38,2.52-3.94,6.46-3,7.78,3.21,4.62,1.48,7.94-1,11.63a7.17,7.17,0,0,0-.56,2.41c-6.46-3.34-7.47-7.94-3.2-13.36,1.42-1.81,2.33-4,3.86-6.71-7.58,1.49-12.5,6.53-12.58,12.4a14.19,14.19,0,0,1-4,10.31c-1.91,2-3.69,5.23-3.62,7.86a141,141,0,0,0,2.31,21.67A14.23,14.23,0,0,0,51,161.8a7,7,0,0,1,3.18,2.31A7.69,7.69,0,0,1,55.38,169c-.15.7-2.82,1.41-4.23,1.23-8.23-1-14.46-5.42-15.94-13.61-1.65-9.09-1.63-18.49-2.53-27.73-.32-3.24-1.4-6.39-1.77-9.63-.25-2.17-.51-4.73.36-6.58a34.31,34.31,0,0,1,6.05-9.1c9.55-9.92,14.44-21.69,15.55-35.32,1-12.17,7.79-19.66,19-24.62,9-4,17.46-9.54,25.65-15.13,13-8.85,24.7-6.4,31.8,7.66,2.91,5.77,5.15,11.89,7.53,17.92,1.7,4.32,4.77,6.55,9.26,7.35,9.55,1.72,17.21-1.46,21.87-9.91,3.12-5.65,5.6-11.64,8.53-17.83l-4.67-1.3c1.91-6.81,11.17-12.74,17.34-10.59A72.56,72.56,0,0,0,214,26c7.25-.07,9.57,4.24,7.22,11.11-.71,2.08-.38,4.51-.52,6.9a8.87,8.87,0,0,1-2.15,0c-10.22-3-18.08.87-21.23,11.23-4.21,13.85-12.67,23.51-26.07,29-3.69,1.51-7.14,3.6-10.81,5.17-6.19,2.65-9.2,7.28-9.49,13.93-.19,4.15-.73,8.29-.87,12.45-.13,3.54.21,6.82,4,9,1.16.66,1.78,3.51,1.52,5.18-1.84,11.53.94,21.33,9.71,29.36C170,163.58,174.33,168.28,179.38,173.36Z" transform="translate(-30.67 -21.35)"/></svg>