<?xml version="1.0" encoding="UTF-8"?><svg id="Layer_2" xmlns="http://www.w3.org/2000/svg" viewBox="0 0 184.27 101.89"><g id="Layer_1-2"><path d="M88.69,100.78c-4.44,2.31-8.94,.21-13.31,.64-.55,.05-1.33-.38-1.73-.84-5.74-6.49-13.43-10.86-18.91-17.71-2.42-3.03-3.15-5.57-1.48-8.98,1.31-2.68,2.85-5.48,.72-8.44-2.36-3.27-5.91-4.76-9.59-5.93-1.41-.45-2.6,.47-3.66,1.24-6.92,4.98-14.6,7.86-23.12,8.42-5.07,.34-7.71,3.29-8.86,8.01-.71,2.9-1.49,5.8-2.47,8.62-2.21,6.32,2.04,10.06,6.34,11.5,1.27,.42,2.55,.64,3.33,1.87-4.4,2.99-9.37,2.31-12.45-1.44-3.19-3.87-4.25-7.93-2.94-12.94,1.51-5.78,2.51-11.71,2.52-17.74,.01-3.21,1.49-5.37,4.64-6.28,1.76-.5,3.5-1.04,5.03-2.09,5.11-3.49,9.43-7.31,8.42-14.5-.41-2.92,.52-5.95-.17-8.94-.36-1.55,.27-2.96,1.07-4.25,2.54-4.1,4.85-8.37,7.69-12.25C37.92,7.56,48.56,.5,62.85,.21c10.96-.22,21.97-.93,32.68,2.52,8,2.58,15.27,6.51,21.85,11.65,6.05-1.96,11.86-3.85,17.82-5.78,3.8-6.02,3.97-6.07,9.73-2.77,1.43-.21,1.46-2.3,3.73-2.18-.2-.07,.44-.06,.68,.26,2.02,2.62,4.81,3.89,7.82,5.03,4.96,1.89,9.81,4.07,14.7,6.15,3.42,1.46,6.45,3.49,8.8,6.39,3.78,4.66,4.56,9.83,2.51,15.45-.95,2.62-2.42,4.81-5.25,5.57-1.57,.42-2.49,1.51-3.41,3.12-6.34-2.72-12.89-1.87-19.31-2.47-3.13-.3-5.51,.77-8.23,2.48-8.72,5.48-11.77,13.81-12.45,23.23-.51,7.04,1.17,13.89,4.79,20.06,1.79,3.06,5.01,4.28,8.22,5.27,2.43,.75,4.59,1.74,5.98,4.88-5.43,.99-10.38,.75-15.28,.07-6.45-10.73-11.65-21.99-17.72-33.23-6.42,5.07-6.43,12.13-7.67,18.57q-12.88,8.72-15.47,7.34c.37-2,2.58-2.5,3.41-4.15,.27-.79-1.04-1.3-.35-2.42,.84-.44,1.83-1.05,2.89-1.49,4.83-1.97,4.8-1.95,3.81-6.8-.56-2.79-1.56-5.39-2.85-8.26-5.41,.9-10.86,1.2-16.27,.55-5.28-.63-10.3-2.41-15.39-4.77-2.06,3.92-4.02,7.56-5.88,11.24-1.18,2.34-1.51,4.97-.22,7.22,3.62,6.3,7.73,12.19,15.81,13.18,2.79,.34,5.2,1.17,6.32,4.65Z"/></g></svg>