<svg id="Layer_1" data-name="Layer 1" xmlns="http://www.w3.org/2000/svg" viewBox="0 0 241.56 125.7"><path d="M246.77,98.88c-2.73,3.67-6.77,3.61-10.75,3.83-9.47.5-19,.79-28.41,1.69-5.67.54-11.22,2.25-16.87,3.08a27.64,27.64,0,0,1-16.6-3c-7.08-3.48-14.18-3.15-21.56,1-7.1,4-15.05,6.48-22.7,9.43-13.31,5.15-27.39,5.84-41.38,7.27-4.23.44-8.47,2.7-12.25,4.89-6.57,3.81-12.5,8.82-19.28,12.13-3.39,1.66-8.31,1.67-12.13.72-9.34-2.31-13.05,3.71-17.08,9.89a32.84,32.84,0,0,1-5.67,7.2c-1.34,1.15-4.21,1.83-5.72,1.18-2.41-1.05-1.89-3.73-.58-5.66C19.56,147,23.49,141.5,27.35,136a2.84,2.84,0,0,0,.66-2.14c-3.17,1.51-6.36,3-9.51,4.56-2.81,1.4-5.47,3.19-8.4,4.28-1.39.52-3.25-.19-4.89-.34.18-1.94.28-3.9.62-5.82.08-.48.84-1.07,1.4-1.22,8-2,13.27-8.36,19.84-12.65a13.05,13.05,0,0,1,5.18-2.39c4.4-.53,7-2.92,9.08-6.62,4.34-7.6,9.44-14.59,18-18.22a4,4,0,0,0,1.93-2.9c.34-5,.44-10.13.51-15.2a49.88,49.88,0,0,0-.29-9.56c-.31-1.7-2-4.28-3.25-4.37-1.65-.12-4.56,1.49-5,2.9a133.24,133.24,0,0,0-3.12,16.4c-.5,3.38-.42,6.84-.82,10.23-.11.93-1,1.77-1.82,3a25.54,25.54,0,0,1-5.19-19.22c.6-5.52,2-10.69,5.39-15.36s8-6.67,13.35-7.16c4.65-.42,7.53,2,9.3,6.4,3.06,7.6,2.22,15.32,1.18,23.09-.64,4.74.1,5.66,4.93,4.59,8.46-1.87,16.78-4.35,25.23-6.2,9.39-2.06,18.87-3.73,28.32-5.51,3.4-.64,6.86-1,10.24-1.71a7.66,7.66,0,0,0,3.07-2c2.77-2.49,5-6.09,8.27-7.42C160.09,61.93,165.43,55,172,49.28c5.43-4.67,6-10.61,7.62-16.51h1.54c1.3,1.37,3.13,2.53,3.79,4.16,2.15,5.33,5.94,8.36,11.39,9.9,3.93,1.11,6,4,6.43,8.13a7.76,7.76,0,0,0,1.44,3.81c3.78,4.9,3.61,6.65-1.95,9.53a13.86,13.86,0,0,1-6.59,1.35c-4.34-.14-7.73,1.08-10.16,5.3,1.83,2.29,3.48,4.93,5.72,6.92a6.86,6.86,0,0,0,5,1.25c4.24-.68,8.34-2.29,12.58-2.79,8.05-1,16.09-1.65,23.29-5.9,1-.62,2.73-1.23,3.63-.81,1.89.88,3.46,2.45,5.15,3.74-1.1,1.35-1.94,3.28-3.36,3.93a68.74,68.74,0,0,1-9.68,3.12c-7,2-14,3.9-21.59,6,1.12.76,1.42,1.12,1.75,1.16,9.93,1.06,19.84,2.82,29.87.57,4.87-1.09,6.79-.16,8.82,3.65Z" transform="translate(-5.21 -32.77)"/></svg>