<svg id="Layer_1" data-name="Layer 1" xmlns="http://www.w3.org/2000/svg" viewBox="0 0 194.66 67.44"><path d="M225.35,121.62c-4.75,2-9.09.87-13.22-1.79a2.91,2.91,0,0,0-1.41-.67c-2.63,0-4.72-1.41-6.9-2.5-3.45-1.72-7.25-1.44-10.87-2.14-2.91-.57-5.78-1.17-8.16-3.13a3,3,0,0,0-1.47-.43c-.82-.08-1.65,0-2.47-.08-3.55-.29-4.65-1.38-5-4.9-.05-.53-.08-1.06-.16-1.58-.3-2-1.17-2.44-2.88-1.38-6.82,4.21-14.41,5.27-22.22,5.49-.29,0-.59,0-.88,0a37.76,37.76,0,0,1-27.34-7.33c-3.41-2.52-7.1-2.51-11-1.38A21.34,21.34,0,0,0,101,106.75c-1.26,1.49-2.52,3-3.73,4.49-3.2,4-7.47,5.35-12.41,5-2.06-.17-4.11-.61-6.16-.6-2.8,0-5.6.34-8.4.58-1.53.14-3.05.37-4.57.56-5.81.73-11.3,2.17-15.81,6.27a107.78,107.78,0,0,1-9.09,7.59,28.65,28.65,0,0,1-6,2.81c-.89.37-1.56,0-1.8-1-.67-3-.51-4.76,2.26-6.41.29-.17.45-.55.67-.82-.38-.14-.78-.43-1.12-.38a3.08,3.08,0,0,1-3.19-1c-1.59-1.89-1.09-3.28,1.31-3.91a47.31,47.31,0,0,0,7.76-2.34,52,52,0,0,0,13.86-9.16c.26-.24.49-.6.8-.69,2.48-.72,3.22-2.92,4.21-4.9,3.38-6.82,6.88-13.57,11.74-19.51.78-1,1.66-1.84,2.43-2.8,5.06-6.38,11.85-8.41,19.66-7.8,7,.54,14,1.3,21,1.7,4.51.27,9,.07,13.59.09,5.24,0,10.5-.16,15.73.14,7.1.4,13.71-.76,19.73-4.74,4.55-3,9.66-3.89,15-3.7,2.65.09,5.33-.06,7.94.27,2,.25,3.9,1.16,5.87,1.64,3,.72,5.95,1.33,8.93,1.94a6.55,6.55,0,0,0,2.29.15,8.52,8.52,0,0,0,2.86-.84c1-.53,1.43-.4,1.91.6a3.17,3.17,0,0,0,1.4,1.45c2.91,1.33,5.27,2.91,5.67,6.56.15,1.36,1.27,2.73,2.23,3.86,1.35,1.6,1.38,2.08-.16,3.44A16.35,16.35,0,0,0,215,88c-1.21,1.71-2.44,2.06-4.42,1.35a9.36,9.36,0,0,0-3.39-.68A25.38,25.38,0,0,1,196.48,87c-1.23-.5-2.7-.41-4.43-.64,1.42,4.49-.05,8.21-1.24,12-.41,1.32-.25,2.11,1.4,2.25,3.87.31,7.75.67,11.61,1.16a12,12,0,0,1,4.19,1.18c2.84,1.54,5.55,3.35,8.32,5a5.54,5.54,0,0,1,2.81,3.64c.32,1.39,2,2.46.88,3.95l5.33,4.36ZM74.14,94.43l-7.3,12.23a42,42,0,0,1,4.4-4C74.31,100.66,74.11,97.55,74.14,94.43Zm137.38,18.18c-.71-2.32-6.35-4.81-9.74-4.25Z" transform="translate(-30.69 -66.11)"/></svg>