<svg id="Layer_1" data-name="Layer 1" xmlns="http://www.w3.org/2000/svg" viewBox="0 0 131.69 152.1"><path d="M164,158.9c-.82,2.19-1.49,4.35-1,6.7a3.68,3.68,0,0,1-.84-1.43,10,10,0,0,1-.45-2.42c-.05-.85-.11-1.71-.13-2.56a9.24,9.24,0,0,1,.1-1.16.6.6,0,0,0-.23-.64,8.22,8.22,0,0,1-2.07-2.13,4.28,4.28,0,0,0-1.38-1,44.41,44.41,0,0,0-5-2.54c-1.12-.47-2.21-1-3.33-1.49-2.06-.86-4.12-1.71-6.21-2.5a8.21,8.21,0,0,0-2-.34,14.37,14.37,0,0,0-1.61,0,21.33,21.33,0,0,1-5.84-.76,9.76,9.76,0,0,1-4-2.14,10.24,10.24,0,0,1-2.21-3,12.68,12.68,0,0,0-1.21-2.08,7.76,7.76,0,0,0-4.58-3.05,11.9,11.9,0,0,0-2.52-.31,21.89,21.89,0,0,0-3.8.16,17.83,17.83,0,0,0-5.16,1.47,12.16,12.16,0,0,0-3.16,2.32,12.84,12.84,0,0,1-2.38,2,16.35,16.35,0,0,1-3.64,1.65,28.41,28.41,0,0,1-4.82,1.06,38.5,38.5,0,0,1-6,.43,5.74,5.74,0,0,0-3.82,1.4,17.63,17.63,0,0,0-1.43,1.56L81.76,152l-2.9,3.28a5.74,5.74,0,0,0-.89,1.58A16,16,0,0,0,76.83,161a2,2,0,0,1-.08.42,1.73,1.73,0,0,0,.59,2,6.78,6.78,0,0,0,2.9,1.62,10.52,10.52,0,0,0,2.79.47c1.56,0,3.11,0,4.66.16a13.36,13.36,0,0,1,6.15,1.82,5.38,5.38,0,0,1,1.8,1.7,1.49,1.49,0,0,1-.29-.12,7.14,7.14,0,0,0-3.51-1.65,11.45,11.45,0,0,0-3.64-.27c-.94.1-1.9.18-2.84.35a18.28,18.28,0,0,1-5,.34,10.47,10.47,0,0,1-5.14-1.67c-.32-.22-.6-.5-.91-.73a2,2,0,0,0-.49-.12A4.63,4.63,0,0,0,75.72,167a16.2,16.2,0,0,0,4.46,1.51,11.81,11.81,0,0,1,4.69,1.87A8.69,8.69,0,0,1,87.8,174a1.28,1.28,0,0,1,0,.33c-.44-.55-.81-1.08-1.24-1.55a8,8,0,0,0-4.36-2.35,11.27,11.27,0,0,0-2.25-.19,20.55,20.55,0,0,1-3.76-.45,11.21,11.21,0,0,1-3.45-1.32,6.14,6.14,0,0,1-2.92-3.83,2.52,2.52,0,0,0-.12,2.14,4.11,4.11,0,0,0,3,2.58,17.78,17.78,0,0,1,4.73,2.06,5.72,5.72,0,0,1,2,2l-.64-.48a8.35,8.35,0,0,0-3.51-1.52c-1.18-.26-2.39-.37-3.58-.6a6,6,0,0,1-4.58-3.55,5.66,5.66,0,0,1-.51-2.48,6.73,6.73,0,0,1,.77-2.93c.36-.72.76-1.41,1.19-2.18a8.35,8.35,0,0,0-5.85-4.2,4.85,4.85,0,0,1,2.33,0,9.68,9.68,0,0,1,4.88,2.21l.4.31c.21-.19.4-.37.6-.53a5.94,5.94,0,0,1,.69-.55,5.15,5.15,0,0,0,1.29-1.26,39.48,39.48,0,0,0,3.31-5c1-1.63,1.91-3.28,2.81-4.95a39.3,39.3,0,0,0,2-3.88A5.25,5.25,0,0,0,81,138a11.76,11.76,0,0,1-.64-4.88,14.84,14.84,0,0,1,1.06-4.73c.35-.8.69-1.61,1-2.37-1.43-1-2.91-1.9-4.33-2.92A26.94,26.94,0,0,1,75.67,121c-1-.94-2-1.89-3-2.91a38.67,38.67,0,0,1-4.49-5.93,36.34,36.34,0,0,1-2.16-4,25.44,25.44,0,0,1-1.82-4.91,3.15,3.15,0,0,1,.4.13c1.17.54,2.32,1.11,3.51,1.6a14.38,14.38,0,0,0,2.16.6,4.54,4.54,0,0,0,.92,0c-.3-.4-.53-.72-.79-1a55.36,55.36,0,0,1-4.33-6A51.62,51.62,0,0,1,62.24,91a49.09,49.09,0,0,1-2.39-7.83c-.25-1.09-.32-2.21-.5-3.31a47,47,0,0,1-.25-8.63,27.26,27.26,0,0,1,.36-3.1c.09-.7.24-1.39.32-2.09a23.78,23.78,0,0,1,.46-2.35,48,48,0,0,1,1.62-5.65,43.34,43.34,0,0,1,2.31-5.66c.46-.9.85-1.85,1.33-2.75A55.63,55.63,0,0,1,70,42.32l1.18-1.58L71.85,42c.83,1.56,1.62,3.15,2.52,4.68a67.91,67.91,0,0,0,5.24,7.71c1.17,1.48,2.4,2.88,3.67,4.27,1,1.12,2.14,2.14,3.26,3.15s2.3,1.87,3.5,2.75c1,.72,2,1.38,3,2a36.87,36.87,0,0,0,5.19,2.67A30.47,30.47,0,0,0,102,70.56a41.73,41.73,0,0,0,5.09,1.17,31.71,31.71,0,0,0,4.57.44c.87,0,1.75.15,2.62.08,1.45-.12,2.91-.16,4.36-.36a37.57,37.57,0,0,0,5.94-1.35A15.39,15.39,0,0,0,130,67.66a15.13,15.13,0,0,0,3.35-3.95,25.36,25.36,0,0,0,2-4.37,36.75,36.75,0,0,0,1.54-6.18A33.3,33.3,0,0,1,138.11,48a27.22,27.22,0,0,1,2.71-5.72,25.92,25.92,0,0,1,3.12-4,27,27,0,0,1,11.86-7.42l.6-.17c-.12-.29-.4-.41-.61-.57a4.35,4.35,0,0,1-1.74-3.46,5.24,5.24,0,0,1,.31-2.08A4.12,4.12,0,0,1,156,22.49a1.9,1.9,0,0,1,2.13.11,14,14,0,0,1,1.44,1.19,5.4,5.4,0,0,1,1.84-1,2.25,2.25,0,0,1,2.36.71,4.49,4.49,0,0,1,1,2c.08.32.2.64.31,1,.41-.08.82-.2,1.24-.25a1.38,1.38,0,0,1,1.18.46,4.13,4.13,0,0,1,1.07,1.72c.2.59.4,1.18.61,1.78,1.62-.1,2.34,1,2.87,2.2a9.86,9.86,0,0,1,.62,3c0,.42.08.83.11,1.24,0,.19,0,.38,0,.58s0,.56,0,.84c0,.09.13.18.22.24.42.33.88.62,1.27,1a5.83,5.83,0,0,1,1.85,4.23,8.65,8.65,0,0,1-.16,2,4.29,4.29,0,0,1-.15.42c-.51-.23-1-.48-1.5-.66a17.89,17.89,0,0,0-3.07-.59c-.53-.07-1.06-.11-1.59-.16a1.79,1.79,0,0,0-.34,0c-.93,3.26-3.19,5-6.42,5.63a1.53,1.53,0,0,0,.12.38c1.07,1.63,2,3.32,3,5a61.68,61.68,0,0,1,3.19,6.79,51.82,51.82,0,0,1,2.52,8c.34,1.54.64,3.08.88,4.64.18,1.15.21,2.32.35,3.48A37.7,37.7,0,0,1,173,83.9a23.71,23.71,0,0,1-.37,3.76c-.13.72-.22,1.44-.31,2.16a32.34,32.34,0,0,1-.83,3.91,41.83,41.83,0,0,1-2.33,7,54.76,54.76,0,0,1-3.24,6.45c-1,1.71-2.11,3.39-3.28,5a50.65,50.65,0,0,1-3.37,4.22c-.93,1-1.88,2-2.8,3.09a9.75,9.75,0,0,0-1.79,3.07,11.88,11.88,0,0,0-.71,5.08,16.07,16.07,0,0,1,.09,2,23.89,23.89,0,0,1-1.87,8.84c-.15.36-.32.71-.49,1.06a4.74,4.74,0,0,0,1.79,6.07,61.65,61.65,0,0,0,5.77,3c.42.18.82.42,1.24.61,1.13.52,2.24,1.08,3.39,1.53a18.62,18.62,0,0,0,4.58,1.37,5.5,5.5,0,0,1,3.15,1.39,4.16,4.16,0,0,0,1.55.76,13.61,13.61,0,0,0,5.11.59,34,34,0,0,0,3.9-.48,7.09,7.09,0,0,1,2.39-.11c.55.09,1.11.09,1.66.18a7.53,7.53,0,0,1,3.81,1.87,2.75,2.75,0,0,1,.71,1c-.17-.14-.33-.29-.5-.42s-.41-.28-.61-.42a6.05,6.05,0,0,0-2.51-.89,9.21,9.21,0,0,0-4.71.53,37.8,37.8,0,0,1-5.64,1.44l.77.15.65.1c.24,0,.47.1.72.12.87.06,1.75.13,2.62.15a13.59,13.59,0,0,1,4.33.84,7.88,7.88,0,0,1,3.11,2,6.41,6.41,0,0,1,1.21,1.9s0,.09,0,.11c-.41-.49-.81-1-1.26-1.47a6,6,0,0,0-2.84-1.55,9.28,9.28,0,0,0-2.52-.34,27.88,27.88,0,0,0-4.08.28,17.13,17.13,0,0,1-3.28.14,10.77,10.77,0,0,1-3.23-.49,2.59,2.59,0,0,0-.57-.07c.41.47.71.86,1.06,1.2a7.61,7.61,0,0,0,4,2.17,5.77,5.77,0,0,0,1,0c.61,0,1.22,0,1.84,0a5.76,5.76,0,0,1,3.26,1.08,3.79,3.79,0,0,1,1.39,2.1,2.4,2.4,0,0,1,0,.39,4,4,0,0,0-3.14-2.45,5.91,5.91,0,0,0-2.3.14,12,12,0,0,1-2.74.36,9.29,9.29,0,0,1-4.43-1.28,11.79,11.79,0,0,1-2.93-2.28c-.2-.21-.42-.41-.63-.6a.28.28,0,0,0-.19-.09,14.63,14.63,0,0,1-4.25-1.19A1.06,1.06,0,0,0,164,158.9Z" transform="translate(-59.02 -22.21)"/></svg>