<svg id="Layer_1" data-name="Layer 1" xmlns="http://www.w3.org/2000/svg" viewBox="0 0 156.32 92.17"><path d="M64.19,142c1.64-7-1.49-13.36-1.82-20a5.86,5.86,0,0,0-5.53-5.62c-5.36-.48-8.12-4.93-11.38-8-2.1-2-.74-6.68-.56-10.15.1-2,.89-3.87,1.09-5.83.65-6.68,4.07-11.46,9.23-15.68,6.89-5.62,12.12-13.21,20-17.7,11.18-6.42,22.92-10.29,36.23-8.44,11,1.53,21,5.48,31,9.89,8.62,3.78,17.23,7.61,25.86,11.38A11.47,11.47,0,0,1,171,73.07c2.85,2.3,5.62,3,9.12,1,2.67-1.45,4.93-.35,5.43,2.91,1.05,7,4.77,12.72,8.32,18.52,2,3.19,3.46,6.38,3.49,10.22,0,3.38,1.67,6.41,2.5,9.63,1.8,7,.77,9.13-5.7,11.83-2.66,1.12-5.07,2.48-8.24,2.36-2.32-.1-3.11,3-5.05,4.44-1.65-.26-.16-4.51-3.32-2.84-.16-.43-.52-.9-.44-1.27.82-3.89-2-6-4-8.58-2.22-2.91-4.21-3.74-7.34-1.33-1.68,1.3-7.52-1.29-9.46-3.83a5.33,5.33,0,0,0-8.59.2c-.85,1.23-1,3.16-.25,3.69,3.2,2.2,2.64,5.9,3.88,8.81,1.56,3.66,2.93,6.93,7.42,7.76,1.85.34,2.76,2.19,4,4.16-9.35,1-18.09,1.55-25.62-4.86a8.43,8.43,0,0,1-2.67-3.22c-.74-1.68-2.12-3.71-4.46-3.34s-2.59,2.75-3.41,4.52c-.71,1.56,1.19,4.79-2.89,4.23-3.47-.48-7.75,1.23-9.8-2.94a5.76,5.76,0,0,1,2.29-7.87c2.9-1.8,2.8-3.71,1.47-6.68-3.81-8.5-10.63-12.53-19.4-13.48a7.61,7.61,0,0,0-7.58,4.21c-3.29,6.59-6.33,13.3-9.43,20a11.89,11.89,0,0,0-.93,2.79c-.61,3-.11,5.28,3.79,4.89.47-.05.83.43.94,1.74C78.18,141.27,71.42,142.88,64.19,142Z" transform="translate(-44.3 -50.07)"/></svg>