<svg id="Layer_1" data-name="Layer 1" xmlns="http://www.w3.org/2000/svg" viewBox="0 0 197.79 75.62"><path d="M28.57,115.81a6.45,6.45,0,0,1,5-.32c5.91,1.63,10.22-.27,14.23-4.8C57.19,100.06,70,94.9,82.85,89.93a209.35,209.35,0,0,1,22.67-7.45c8.16-2.13,10.15-8,5.53-15.25-.74-1.16-2.45-2.28-1.11-3.81s3.06-.37,4.45.32c5.5,2.71,9.74,7.11,14.31,11.05a19.45,19.45,0,0,0,11.61,4.68c22.91,2.07,43.61,9.85,61.47,24.6a27.4,27.4,0,0,1,7.28,8.8,18.9,18.9,0,0,0,9.81,9.67,14.35,14.35,0,0,1,2.66,1.58c1.31.95,3.06,2,2.23,3.83-.93,2-2.87,1-4.26.43a154.61,154.61,0,0,0-33.32-8.74c-2.76-.42-4.7-.37-7,1.93-5.83,5.9-13.58,7.31-21.55,7.7-.88,0-2,.1-2.39-.78s.4-1.64,1-2.21c2-1.82,4.12-3.59,6.78-5.88-7.48-.58-14.19-1-20.87-1.63-13.65-1.37-27.27-2.75-40.75-5.63-14-3-27.45.21-41,4C52.15,119.5,45.06,122.55,40,130c-2.43,3.61-6.63,5.79-10.66,7.72-.92.44-2.14.9-2.89,0-.89-1.1.34-1.88,1-2.56a22.7,22.7,0,0,0,4.74-6.8C34.46,123.08,33.26,119.06,28.57,115.81Z" transform="translate(-26.18 -62.64)"/></svg>