<svg id="Layer_1" data-name="Layer 1" xmlns="http://www.w3.org/2000/svg" viewBox="0 0 138.19 139.76"><path d="M104.09,122.56c.12-1.57.26-2.22.22-2.87-.48-7.36-.63-7.15-7.28-4.2-6,2.66-12.42,4.34-19.42,6.71,1.36-4.29,3.6-7.8.27-11.18-.57-.57.14-1.27.36-1.9,1.13-3.15,2.41-6.27,3.27-9.49C83.5,92.12,91.9,85.24,99.45,85c2.89-.09,5.75-.27,8.5-1.77,8.44-4.6,18.26-3.19,27.21-5.87,2.44-.73,5.5.44,8.24.93,8.54,1.53,17.43,2.06,23.36,10,2.16,2.91,5,6.29,9.49,4.2,3.26-1.51,7.84-6.8,7.24-12.21-.68-6.17-2.47-12-4.29-17.92-1.71-5.49-3.56-11-3.21-16.79.31-5.13.88-10.37,6.4-13.09,2-1,4.27-1.4,5.88.16a14.71,14.71,0,0,0,9.2,4.24c-.49,2-2.13,2-3.28,2.56-10,4.83-11.26,9.17-8.8,18.7,1.57,6.06,4.41,11.68,5.51,18,1.86,10.58-.82,20.44-6,29-3,5-5.83,10-8.43,15.24-2.06,4.17-6,7.37-9.87,10.12-5.42,3.84-11.77,2.92-17.81,2.37-2.44-.23-4-3.24-7.14-4-.22,4.83-2.7,8.53-5,12.37-2.78,4.65-1.22,7.77,4.39,9a86.37,86.37,0,0,0,20,2c4.63-.06,7.74,1.77,9.66,5.94a11.94,11.94,0,0,0,6.63,6.67c1,.38,2.31,1,1.91,2.35s-1.74,1.18-2.85,1.25c-3.92.26-7.23-.59-8.43-4.87-2,.58.94,3.45-1.95,3.3-1.91-.09-2.54-1.34-2.93-3-.75-3.18-2.85-4.75-6-5.64a77.88,77.88,0,0,0-25.38-2.35c-5.39.29-6.81-1.71-4.44-6.45,2.29-4.58,2.52-9.38,2.33-14.32-.07-1.82-.84-2.69-2.62-2.1-6.23,2.07-13.38,2.06-17.86,8.08a7.6,7.6,0,0,1-3.35,2.46c-10.49,3.78-16.34,12.37-21.88,21.16-1.88,3-3.7,5.19-7.55,4.66a3.6,3.6,0,0,0-2,.45c-6.2,3.45-10.46,1-13.8-4.42-.47-.76-1.8-1.2-1-2.39a2.19,2.19,0,0,1,2.31-.66,6,6,0,0,1,2.79.79c3.38,2.77,7-.09,10.46.57,1.21.23,1.79-1.21,2.21-2.23,2-5,5.64-8.6,9.7-11.92,5-4.09,9.85-8.32,13.18-14a7.41,7.41,0,0,1,5.65-4c4.87-.42,8.2-3.33,11.37-6.54.8-.8,2.7-1.28,2-2.77a3.78,3.78,0,0,0-4.12-2.29C111.64,120.56,108,120.13,104.09,122.56Z" transform="translate(-59.29 -31.63)"/></svg>