<svg id="Layer_1" data-name="Layer 1" xmlns="http://www.w3.org/2000/svg" viewBox="0 0 175.04 72.26"><path d="M193.5,126c4.78.86,8.72,3.42,12.9,5.39a37.72,37.72,0,0,0,4.21,1.54,2.32,2.32,0,0,1,1.85,2.67,2.68,2.68,0,0,1-2.47,2.49,9,9,0,0,1-5.75-.59,57.84,57.84,0,0,0-21.56-5.78,9.76,9.76,0,0,1-2.8-.82c-2.76-1.07-5.28.33-7.9.65-2.89.36-5.73.43-7.68-2.38-.61-.87-1.64-.68-2.51-.59-2.76.3-5.53.55-8.25,1s-5.34,0-8-.44c-10.46-1.62-20.46-5.2-30.91-6.91-3.53-.58-6.91-2-10.61-1.3-4.19.8-8.09,2.24-11.24,5.24a14.31,14.31,0,0,1-13.86,3.91c-3.3-.78-6.07-.58-7.9,2.79a3.67,3.67,0,0,1-3.39,1.87c-2,0-3.48,1.64-5.6,1.34s-2.53-.95-1.48-2.74a8.84,8.84,0,0,1,3.38-3.24c1.81-1,1.3-1.61-.15-2.5a6.46,6.46,0,0,0-7.54.09c-2.73,1.69-5.34,3.72-8.22,5-2.62,1.17-5.74,1.41-8.67,1.61-1.75.13-2.45-2-1.37-3.52a2.48,2.48,0,0,1,1-.91c5.51-2.11,9.11-7,14.23-9.7,2.56-1.36,5.07-2,7.49-.73,4.28,2.14,8.07,1.17,11.63-1.25,2.73-1.85,3.48-4.93,3.56-8.06.09-3.41.46-6.56,3.94-8.4a19.68,19.68,0,0,1,5.57-1.59c1.26-.26,1.83.65,2.09,1.83.15.69.41,1.62,1.5,1.07,4.06-2,8.5-2.87,12.87-3.63,6-1,11.9-2.73,18-2,4,.47,7.82,1.6,11.77,1.9a42.65,42.65,0,0,0,12.08-.68c2-.42,3.34-1.46,3.11-3.9a5.75,5.75,0,0,1,1.26-4.42,1.93,1.93,0,0,0-.26-3c-3.33-2.76-4.41-6.87-6.25-10.47-1.47-2.85-2.61-5.86-4.45-8.53-.38-.56-1.2-1.25-.46-2a2,2,0,0,1,2.34,0c1.24.69,2.46,1.44,3.66,2.2.74.46,1.17.49,1.42-.51.52-2,1.84-2,3.2-.92,4.12,3.41,7.76,7.1,9.67,12.38,1,2.64,3.18,4.82,4.85,7.2a.75.75,0,0,0,.6.22c4.05-.66,6.42,2,8.72,4.54s5.59,4.91,6.22,8.84c.55,3.42-.5,5-3.84,6.15-2.48.83-2.94,1.82-1.59,4,1.16,1.89,1.19,4,1.53,6a5.92,5.92,0,0,0,7.14,4.5,27.06,27.06,0,0,1,16.77.93,2.06,2.06,0,0,1,1.46,2.62c-.22,1.27-1.16,1.39-2.21,1.36S194.53,126,193.5,126Z" transform="translate(-37.44 -66.05)"/></svg>