<svg id="Layer_1" data-name="Layer 1" xmlns="http://www.w3.org/2000/svg" viewBox="0 0 209.39 104.1"><path d="M99.81,139.69a9.61,9.61,0,0,0-.48,6.58c1.23,4.61,1.92,9.5,5.2,13.27,1.71,2-.07,2.67-1,3.51s-2,.06-2.24-.93c-.4-1.66-1.72-2.37-2.81-3.36-2.61-2.37-4.81-5-5.71-8.55s-3.52-6.37-5-9.71-3-6.26-1.77-10a6.72,6.72,0,0,0-1.5-6.53c-3.1-3.7-5.3-8-8.51-11.69C73,109,71.43,104.91,70,100.84S66,92.78,67.1,88c.3-1.29-.81-2.14-2.29-1.65a7.9,7.9,0,0,0-3.39,2c-3.39,3.6-8.3,3.86-12.56,5.56C42,92,34.56,94.49,27.82,91c-5.11-2.62-8.14-7-7.79-12.25.3-4.35,7-8.33,11-6.43a1.37,1.37,0,0,1,.71,2.06c-.53.82-1.22,2.07-1.94,2.14-3.81.4-2.68,2.28-2.11,4.8,1.47,6.47,2.34,7.47,8.78,7.54,2.83,0,5.67,0,8.5,0a18.78,18.78,0,0,0,14.26-6,12.13,12.13,0,0,1,8.9-3.81,35.21,35.21,0,0,0,13.5-3,24.48,24.48,0,0,1,6.19-1.62c10.2-1.41,20.33-3.3,30.6-4.17,2.32-.2,4.65-.25,7-.36,1.16-.06,2.51.24,3.45-.26,3.84-2,7.81-1.36,11.71-.69,3,.52,5.83-.65,8.83-.47a85.08,85.08,0,0,0,12.44-.58,24.11,24.11,0,0,1,13.05,2.46c2.53,1.25,4.63.87,7-.36,4.15-2.11,8.52-3.84,13.26-4,2.14-.08,3.88-.4,4.93-2.55,1.53-3.12,5.35-2.15,7.61-4a.93.93,0,0,1,.93.08c1.76,2.51,5.11,3.05,6.52,6.38,3,7.06,5.68,14.48,12.25,19.41a4.25,4.25,0,0,1,1.69,5.23c-.79,2.15-2.21,3.5-4.38,3.42-4.31-.15-8.56,1.57-12.88.32a2.71,2.71,0,0,0-1.49,0,12.06,12.06,0,0,1-9.77-1,13.65,13.65,0,0,1-4.45,8.36,9.82,9.82,0,0,0-3.33,6.48,45.2,45.2,0,0,1-1.53,6.79c-.84,3.7-1.72,7.33,1.6,10.52,1.19,1.14,1.22,3.07,1.05,4.76a78.69,78.69,0,0,0-.08,11.49,7.34,7.34,0,0,1-1.69,5.57,22.8,22.8,0,0,0-4.74,7c-.52,1.28-1.5,2.36-3.13,1.44s-3-1.91-2-3.93,1.49-4,3-5.65c2.05-2.12,2.88-4.86,3.36-7.67a9.12,9.12,0,0,0-1.4-6.68c-2.14-3.29-2.49-3.47-6.47-2.69l-.49.1c-6.66,1.32-6.66,1.32-4.72,7.85,1.06,3.57.06,5.58-3.38,7.21-4.46,2.11-9.64,2.69-13.35,6.38a1.4,1.4,0,0,1-1.85.11c-2.55-2-5.5-3-8.49-4-1.18-.41-1.66-2-3-2.4.24-1.39,1.51-1.72,2.35-2.47a4.57,4.57,0,0,1,6.35-.21,8.56,8.56,0,0,0,6.57,1.58c3.69-.41,5.26-2.76,3.07-5.77-3.78-5.18-8-10.24-15.49-9.59-8,.7-16-.13-24,.27a26.69,26.69,0,0,1-8.32-1.2c-1.72-.46-3.49-1.64-5.06.17s-2.69,3.94-1.94,6.41,1.5,5.15,4.06,6.65c.85.5,1.45,1.44,2.32,1.87,5.93,2.89,7.84,9.12,11.56,13.83.78,1,3.25,1.43,2,3.35s-3-.12-4.47-.21a3,3,0,0,1-1.83-.64c-5.11-5.37-12.51-8-17-14.19C104.43,142.31,102.07,141.33,99.81,139.69Z" transform="translate(-20.01 -59.34)"/></svg>