<svg id="Layer_1" data-name="Layer 1" xmlns="http://www.w3.org/2000/svg" viewBox="0 0 222.97 119.64"><path d="M162.6,59.39c1.56,1.31,4.28.91,5.15-.67l3.65,1.56.24-1h2.76c2.24,3.3,5.75,1.89,9,1.27a24.59,24.59,0,0,1,9.71.24c1,.21,2.11.27,2.92.37.06-5.17.76-10,3.59-14.42.38-.59.78-1.17,1.15-1.76,1.25-2,2.87-2.09,4.18-.11.93,1.4,1.59,3,2.45,4.42,1.42,2.37,3,4.67,4.34,7.06a10.4,10.4,0,0,1,.54,2.31,3.74,3.74,0,0,0,.58,1.57c3.13,3.36,6.28,6.71,9.48,10a5.91,5.91,0,0,1,1.9,4c.09,2.61,1.62,4.28,3.57,5.57,2.73,1.79,5.56,3.45,8.41,5.06,2,1.1,2.18,2,.67,3.71a11,11,0,0,1-5.45,3.53c-.89.22-1.69.87-2.58,1a8,8,0,0,1-3.23-.13A48.53,48.53,0,0,0,214,90.59a7.92,7.92,0,0,1-3.25-1.19,2,2,0,0,0-2.74.43c-2,2-3.91,4.07-6.05,5.88a12.46,12.46,0,0,1-4.5,2.41c-.28.08-.49.41-.7.64-1.07,1.16-2.13,2.33-3.19,3.49-1.27-.49-1.31-.46-2,1.3-.54.24-.92.43-1.32.58s-.6.16-1.09.29l-.46,1L188,104l-1.21,1.29-.6-1-1.37,2.25-.92-1.79-.38.06-.45,1.52c-.41-.25-.92-.76-1.17-.65s-.61.74-1,1.25l-.68-.93L179,107.38l-.37-.92-1.33,1.69-.35-1.43-1.26,2.43c-.64.28-1,.34-1.25.58a7.87,7.87,0,0,0-.9,1.41,12.32,12.32,0,0,1-7.84,6.19,7.29,7.29,0,0,0,2.68,4.07c4.18,3.69,8.41,7.33,12.58,11,1.33,1.18,2.6,2.43,3.82,3.73a3,3,0,0,1,.67,3.1A31.34,31.34,0,0,1,179,150.5c-1.61,1.94-3.27,3.86-5,5.69a5.45,5.45,0,0,1-5,1.88c-.39-.06-1-.43-1-.69-.2-2.59-.7-5.28,2.08-7a14.11,14.11,0,0,0,1.87-1.7l-1.06-.36c1.26-3.41,5.29-3.75,7.05-6.34-7.24-8.63-17.33-13-26.72-18.92-.12,1.53-.19,2.68-.3,3.82-.56,5.82-1.16,11.63-1.67,17.45a8.14,8.14,0,0,0,.27,3.19,72.74,72.74,0,0,0,2.64,6.79,2,2,0,0,0,1.57,1c3.74-.16,7.18,1,10.56,2.31.58.23,1.39,1.17,1.28,1.57a2.62,2.62,0,0,1-1.61,1.49c-1.09.33-2.23.41-3,1.37a1.76,1.76,0,0,1-1,.44c-1.9.25-3.81.48-5.72.65s-3.66-.73-5.47-1.41c-4.3-1.63-4.37-5.51-5.24-9-.3-1.2-.37-2.47-.57-3.85l-1.21.43c-1-1.25-.86-2.68-.68-4.12.15-1.25.42-2.5.45-3.76.11-5.3.24-10.6.19-15.9,0-2.41-.49-4.82-.72-7.24-.09-1-.09-1.94-.15-2.9a1.77,1.77,0,0,0-.57-1.15l-1.75,3.35-.22-1.77-.29-.12L136.52,118c-1.5-.95-.76-2.73-1.29-4.47l-1.6,1.55c-.44-1.38-.57-1.37-3.55.42v-1.65l-2.68,1,.23-1.47-2.18.66-.1-1.18-2.85.79.11-1.44c-.4-.11-.88-.11-1.15-.35s-.33-.71-.55-1.24l-2.35,1.64v-1.79l-4.38,1.17-.33-1.61-2.08.42.14-1-3.82.36-.14-2.08c-2.69-.37-3.39,1.82-4.75,3.15a49.63,49.63,0,0,1-16.89,10.83,71,71,0,0,0-7.58,3.6,2.68,2.68,0,0,0-1.08,1.75c-.44,2.62-.82,5.27-1.05,7.92a11.56,11.56,0,0,0,.37,3.6,69.81,69.81,0,0,0,6,16.3c1.21,2.32.65,3.25-2,3.42-.65,0-1.3,0-2,0-.31,1.67-1.42,2.17-2.91,2.37-.82.11-1.58.93-2.38.95a21.21,21.21,0,0,1-3.68-.5,25.93,25.93,0,0,1-3.14.81,3.22,3.22,0,0,1-3.21-1.6c-.74-1.08-1.64-2.06-2.27-3.2a7.18,7.18,0,0,1-1.2-3.24c0-4.17-1.63-8-2.42-11.93-.48-2.37-.72-4.78-2-7-.26-.46.35-1.69.88-2.26,1.32-1.44,3-2.57,4.22-4.08,2.25-2.74,4.48-5.5,5.25-9.16a22,22,0,0,0-1.46-13.83,14.36,14.36,0,0,0-.81-1.36c-.92,3.9-1.79,7.48-4.76,10.14-.12-.44-.21-.77-.2-.75-1.69,1.93-3.45,4-5.26,5.94a1.62,1.62,0,0,1-1.42.29L51.71,121c-.58.06-.92.08-1.25.15a3.7,3.7,0,0,0-.62.26c-1.54.56-3.09,1.06-4.6,1.67A37.85,37.85,0,0,1,40.93,125a34.14,34.14,0,0,1-5,.65l.28-.62c-.14-.06-.23-.14-.3-.13-1.38.34-2.74.73-4.14,1a5,5,0,0,1-1.57-.27,2.56,2.56,0,0,0-.77-.11,71.35,71.35,0,0,1-7.37.93c-2.38.06-4.85.06-7.17-1.25,4-2.53,8.22-4.51,11.36-8.75a6.1,6.1,0,0,0,3.95-3.27c.07-.17.2-.39.35-.43,1.86-.54,2.61-2.42,4.14-3.41a28,28,0,0,0,3.49-3.14l-.66-.48c1.3-1.06,3.72-.91,3.72-3.78L44.51,100l-.13-.35-1.59-.11c5.52-4.19,7.73-10.44,11.42-15.72l-.86-.54a5.77,5.77,0,0,1,.86-.54c.75-.28,1.62-.43,1.25-1.59a.5.5,0,0,1,.15-.38c.81-.8,1.64-1.58,2.44-2.38.14-.14.31-.44.26-.57-.54-1.09.22-1.3,1-1.49a4.74,4.74,0,0,0,3.33-3.48c0-.13.08-.34.16-.37,1.3-.39,1.68-2,3.15-2.26.39-.06.74-.47,1.09-.75a10.29,10.29,0,0,1,1.35-1.12C69,68,70,68,70.06,66.94c0-.15.55-.23.81-.39.74-.43,1.95-.13,2.18-1.38,0-.09.21-.19.34-.23,1.82-.49,3.64-1,5.47-1.44,1.22-.29,2.56-.33,2.53-2.24a4.87,4.87,0,0,0,4.89-.17A.94.94,0,0,1,87,61c1.48.41,3-.15,4.55.49a8.47,8.47,0,0,0,3.46.23c.41,0,.79-.49,1.15-.38,2.57.07,5.14.2,7.71.21,4.11,0,8.23.06,12.34,0a65.59,65.59,0,0,0,8.53-.57c1.5-.22,3-.73,4.49-1s3.15-1.48,5.14-2.49l6.15,1.8V57.14l2.27.93.24-1.19c1.15,1,1.8,2.61,3.72,2.48l-.23-1.44a16.48,16.48,0,0,0,2,1.51,3.91,3.91,0,0,0,2.18.8,13.62,13.62,0,0,1,4.64.17,2.93,2.93,0,0,0,1,0,9,9,0,0,1,4.73-.17C161.37,60.36,162,59.71,162.6,59.39ZM70,131.59a11.1,11.1,0,0,0-4.15,6.23c-1.12,4.9-.24,9.57,1.63,14.11a3.35,3.35,0,0,0,1.45,1.59A38.48,38.48,0,0,0,73,154.9c-1.61-1.85-1.88-4-1.92-6.2,0-2.09-.25-4.17-.43-6.26s-.49-4.08-.62-6.12C69.89,134.77,70,133.22,70,131.59Z" transform="translate(-14.87 -43.48)"/></svg>