<svg id="Layer_1" data-name="Layer 1" xmlns="http://www.w3.org/2000/svg" viewBox="0 0 226.72 127.47"><path d="M217.44,86.39c3.31,5,3.84,10.07,4.28,15.16a4.75,4.75,0,0,1-3,5.09c-.85.41-1.73.59-2.41-.24s-.3-1.7.42-2.31a2.25,2.25,0,0,0,.86-2.78c-.51-1.26-1.57-1.26-2.65-1.19-4.08.27-6.48-2-7.83-5.46a3.91,3.91,0,0,0-3.66-2.77c-5.32-.59-8,.53-10,5.43-1,2.54.12,5.37.66,8,.39,1.87,2.22,1.85,3.58,2.26,5.06,1.53,10.12,3,15.08,4.9,5.23,2,10.61,2.33,15.92-.22,2.16-1,4.51-1.3,6.24.92,1.2,1.54.75,5.18-1.07,6.86-3.27,3-6.69,5.49-11.77,4.27-6.14-1.47-12.66-1.08-18.65-3.51a1.49,1.49,0,0,0-1.93.31c-.38.6.23,1.13.45,1.69,2.42,6,6.2,11.21,9.25,16.84a15.06,15.06,0,0,0,10.54,8.07c1.54.33,3.27.65,3.62,2.59a5.29,5.29,0,0,1-2,4.91,2.07,2.07,0,0,1-1.91.67,15,15,0,0,0-6,.1,3.36,3.36,0,0,1-3.05-1.26,49.46,49.46,0,0,0-7.65-6.49,7.14,7.14,0,0,1-1.75-1.95q-8.52-12.57-17-25.19a3.87,3.87,0,0,0-2.3-1.66,17.36,17.36,0,0,1-8.81-5.56c-1.53-1.74-3.11-1.87-5.17-.93A63.12,63.12,0,0,1,150,118.37a28.56,28.56,0,0,1-11.77-.88q-10.74-3.34-21.53-6.46a30.91,30.91,0,0,1-9.27-4.37c-5.86-4.1-12.51-5.06-19.45-4.32a13.6,13.6,0,0,0-7.15,3.23,64.91,64.91,0,0,1-24.12,12.19,81.09,81.09,0,0,0-25.09,11.59c-3.44,2.4-7.34,3.34-11.41,3.8-1.26.15-2.43,0-2.89-1.27s-1.54-2.59-.5-4.21c1.79-2.79,4.69-4.18,7.25-6,.2-.14.63-.26.73-.16,2.8,2.63,4.82.1,6.62-1.3,2-1.57,4.05-3.07,6.08-4.61,2.39-1.8,2.21-2.62-.43-4.11a6.46,6.46,0,0,0-6.73-.21c-3.42,1.83-7,3.38-10.39,5.22a12,12,0,0,1-6.95,1c-2-.16-2.71-1.36-2.61-3.25.22-3.77,1.47-5.12,5.23-5.9,6.29-1.31,12.25-3.27,16.15-8.93a10.67,10.67,0,0,1,1.67-1.69c2.4-2.16,3.88-2.31,6.64-.66,1.73,1,3.28,2.29,5.45,2.52,1.6.17,1.95-.4,1.72-1.71-1.24-7.28,2.32-13.14,5.71-19a11,11,0,0,1,5.35-4.18,21.69,21.69,0,0,0,7.79-6.18c1.24-1.5,1.59-2.8.2-4.42-1.6-1.87-3-3.94-4.58-5.81a14.27,14.27,0,0,0-8.22-5c-4.52-.88-9-2.14-12.8-4.76a22.57,22.57,0,0,1-7.87-9.4c-2.2-5.1,3.62-11.44,9.13-10.55a3,3,0,0,1,2.79,2.42,2.69,2.69,0,0,1-1.6,3.05c-1.39.71-2.79,1.34-2.35,3.28s1,3.61,3.4,4.5c5.33,2,11.11,2.06,16.38,4.11C67.11,48.58,73.13,52,77.12,58.08A2.71,2.71,0,0,0,80,59.57c7.81-1.29,15.46.12,23.11,1.41,5.64,1,11.25,2.21,16.92,2.86,8,.92,15.59-1.27,23-4a34.79,34.79,0,0,1,13.71-2.31c7.47.36,14.5-1.43,21.34-4.26a22.8,22.8,0,0,1,5.07-1.45,2.56,2.56,0,0,0,2.51-2.75c.29-4.34,1.07-8.54,3.53-12.3,2.15-3.27,4.28-3.38,6.44-.14A42.37,42.37,0,0,0,202,44c1.41,1.31,2.47,1.31,3.59-.42a17.5,17.5,0,0,1,5.49-5.64c2.44-1.48,3.71-1.09,4.55,1.61,1.3,4.21,3,8.57,2.52,12.87-.56,4.94,3.12,6.83,5.42,9.62,1.37,1.66,2.4,2.87,1.66,5-.81,2.35-.1,4,2.14,5.25s4.64,2.89,7,4.32c3.39,2.1,3.61,5.3.53,7.87C230.12,88.48,224.15,89.29,217.44,86.39Z" transform="translate(-10.34 -28.58)"/></svg>