<svg id="Layer_1" data-name="Layer 1" xmlns="http://www.w3.org/2000/svg" viewBox="0 0 217.96 182"><path d="M208.08,81.52l10.32,4.26-.13,1-12.54-2.53,10,16-1,.77c-2.41-3.12-4.88-6.19-7.21-9.38s-4.38-5.59-8.93-6.1c-3.09-.34-5.87-3.56-8.93-5.59L178,85.17c.14-.37-.22.1-.18.54.86,11.55-3,11.19-12.11,9.33-3.18-.65-6.17-2.25-10.73-4,.84,9.63.9,18.44,2.52,27,3.14,16.62,7.22,33.06,10.77,49.61.62,2.9,0,6.16.94,8.88,1.24,3.47,3.59,6.54,5.35,9.83a6.49,6.49,0,0,1,1.07,3.48c-.07.52-1.87,1.14-2.91,1.17-5.43.2-10.89.52-16.3.2-4.29-.26-4.54-3.27-2.12-5.87,3.17-3.41,2.23-6.74,1.56-10.64-2.71-15.9-13-27.73-21.22-40.72-.23-.36-.8-.51-1.64-1a17.53,17.53,0,0,0-1.16,3.09c-2,12.13-3.12,24.5-6.28,36.31-1.78,6.67-2.66,11.6,3.38,15.93.34.24.45.88.54,1.36a24,24,0,0,1,0,2.88c-6.12.13-12.32.76-18.43.24-5.42-.47-6.44-4.45-3.69-9.07a24.69,24.69,0,0,0,3.53-10.27,276.37,276.37,0,0,0,.93-28.91c-.15-5.27-2-10.5-3.33-16.88-11,7.63-22.12,8.41-33.58,8.81-7.54.26-12.2,6.65-14,13.21-2.07,7.56-2.63,15.71-2.61,23.6,0,3,3.47,5.95,5.36,8.93a11.1,11.1,0,0,1,1.68,2.76c.08.31-1.28,1.41-2,1.48-7.58.71-15.16,1.48-22.76,1.81-4.3.19-6.07-2.55-3.81-6.09,4.24-6.65,4-13.82,2.42-20.77-2.42-10.48-6-20.68-8.72-31.09-1.42-5.36-2.16-10.9-3.85-16.47-3.42,6.72-3.92,14.83-9.94,19.24,2.47-8.06,5.51-16.38,7.44-24.94,1.08-4.76.51-9.93.31-14.91C23.45,69.37,41.05,43.7,64,37.27a35.32,35.32,0,0,1,19.45.13c9.33,3.07,18.24,2.8,27.47,1.22,4.47-.77,9.31-.76,12.06-5.55.42-.72,2.1-.94,3.22-1,4.81-.27,9.66-.78,14.45-.49,9.81.61,19.46,1,29.25-1.24,11.58-2.6,15.18.14,22.14,9.56,4.66,6.32,11,11.51,17.08,16.63,3,2.51,6.83,2.09,10.11-.67s2.93-5.68,2-9.43a117.51,117.51,0,0,1-3-18.54c-.35-4.5-.95-8.42-4.48-11.65-1.08-1-1.1-3.14-1.6-4.75,1.62-.16,3.44-.86,4.83-.37,6.45,2.28,7.2,8.59,9.15,13.93,2.19,6,3.56,12.38,6.24,18.15A24.67,24.67,0,0,1,220.55,76C216.86,77.67,213.12,79.28,208.08,81.52Z" transform="translate(-16.67 -10.95)"/></svg>