<svg id="Layer_1" data-name="Layer 1" xmlns="http://www.w3.org/2000/svg" viewBox="0 0 101.04 149.86"><path d="M148.62,23.9a16,16,0,0,1,10.57,4.4c1.13,1.08,2.12,2.27,3.2,3.39,1.84,1.91,4.23,3.07,6.41,4.51a49,49,0,0,1,4.39,2.63A9.73,9.73,0,0,1,175.67,42c.13.25.35.58,0,.83s-.53,0-.75-.17A22.62,22.62,0,0,0,169.67,40a11.83,11.83,0,0,0-5.6-.32c-3,.27-5.79,1.4-8.61,2.38-1,.36-1,.74-.87,1.79.48,3.09,1.52,6.07,1.74,9.22a16.79,16.79,0,0,1,.22,4.17c-.47,2.51-.23,5-.44,7.55-.15,1.86,0,3.76-.06,5.65a65.6,65.6,0,0,1-.88,8.52,53.25,53.25,0,0,1-1.59,7.27c-.55,1.81-.71,3.73-1.65,5.43a8,8,0,0,0-.5,1.63,93.31,93.31,0,0,1-3.25,9.17c-.61,1.53-1.13,3.11-1.74,4.65-1.22,3.11-2.52,6.2-3.57,9.37-.72,2.19-1.62,4.31-2.34,6.5-.57,1.73-1.38,3.42-2.12,5.11-.66,1.53-1.2,3.12-1.76,4.69-.44,1.2-1.19,2.25-1.58,3.48a12,12,0,0,0-.55,6.43c.37,1.7.09,3.53.33,5.28a15.37,15.37,0,0,0,2.45,6.48c.73,1.1,1.78,1.89,2.48,3,.55.88,1.09,1,2,.52,1.16-.6,2.28-1.29,3.44-1.89s2.61-1.23,4.09-.55a1.69,1.69,0,0,0,.71.13,13.11,13.11,0,0,1,5.86,1.44c.31.14.71.28.58.7s-.55.25-.87.2c-.12,0-.28-.08-.36,0a11.51,11.51,0,0,1-3.67,1.13c-.47.1-.57.61-.17,1,.17.18.37.33.53.51a.43.43,0,0,1,.08.58.4.4,0,0,1-.5.1,1.59,1.59,0,0,0-1.93.31.13.13,0,0,1-.08,0c-1.86-.05-3.14,1.15-4.56,2a3,3,0,0,1-1.73.53,1.84,1.84,0,0,0-1.27.64,6.19,6.19,0,0,1-3.42,1.61c-1.14.11-2.33.23-3-1.11-.15-.34-.5-.25-.81-.15-1.53.51-2.86-.27-4.22-.71a4.4,4.4,0,0,1-1.53-1,1.67,1.67,0,0,0-1.53-.38,8.14,8.14,0,0,1-2.91-.1,2.43,2.43,0,0,1-1.6-1.13,5.1,5.1,0,0,0-6.1-1.74,1.22,1.22,0,0,0-.71.76c-.48,1.11-.67,2.38-2,3-.5.23-.53,1-.5,1.59s.61.56,1,.74a9.35,9.35,0,0,0,4.91.65,2.81,2.81,0,0,1,2.79,1.37,9,9,0,0,0,1.56,1.77,5.51,5.51,0,0,1,1.4,2.44c.06.17.14.37,0,.49a.42.42,0,0,1-.5-.11,2.28,2.28,0,0,1-.51-.52c-.51-.93-1.4-.49-2.12-.57-.34,0-.26.37-.13.65s.79.83.33,1.27-.83-.33-1.19-.31c-1.18.09-2.08-.69-3.2-.82a25.7,25.7,0,0,1-6.25-1.1,2.23,2.23,0,0,0-2,0,1.78,1.78,0,0,1-2.06-.61,1.44,1.44,0,0,0-1.37-.49,2.87,2.87,0,0,1-3.26-3.32c.13-1.25-.1-1.49-1.34-1.52s-2.25-.18-3.37-.18a6.44,6.44,0,0,0-4,1.39,8.12,8.12,0,0,1-3.76,1.72,13.28,13.28,0,0,0-3.08,1.07c-.35.16-1.14.81-.91-.5.09-.5-.47-.26-.72-.13-.84.44-1.63.94-2.51,1.3A19.85,19.85,0,0,0,80,171.52a2.38,2.38,0,0,1-2.2-.09A3.47,3.47,0,0,0,76,171c-.47.05-.75-.63-1.13-.94s.4-.54.62-.83a24.08,24.08,0,0,1,5.31-4.72c1.19-.84,2.38-1.67,3.53-2.57a1.12,1.12,0,0,0,.57-1,3.28,3.28,0,0,1,.87-2.16,23.1,23.1,0,0,1,4.53-4.84,7.84,7.84,0,0,0,1.83-3c1.13-2.48,1.09-5.14,1-7.8-.06-1.27,0-2.54,0-3.81-.2-5.05-.08-10.09-.08-15.14,0-2.79-.46-5.57-.38-8.38a109.21,109.21,0,0,1,1.19-13.27c.39-2.56.33-5.17.76-7.72.84-4.92,1.69-9.83,2.81-14.7a68.86,68.86,0,0,1,4.42-13.24c1.55-3.4,3.4-6.66,5.13-10a70,70,0,0,1,4.83-8.18,39,39,0,0,1,8-8.93,25.14,25.14,0,0,1,4.68-2.46,20.88,20.88,0,0,0,7.36-5.88,16.15,16.15,0,0,1,6.56-4.67c2.9-1.21,5.78-2.47,9-2.73Z" transform="translate(-74.83 -23.9)"/></svg>