<svg id="Layer_1" data-name="Layer 1" xmlns="http://www.w3.org/2000/svg" viewBox="0 0 204.82 104.46"><path d="M161.33,150.24a2.93,2.93,0,0,1-.26-4,15.49,15.49,0,0,1,2.61-2.94c1-.94.82-1.63-.52-2a24.29,24.29,0,0,0-3.85-.85,3,3,0,0,0-2.52,1.23c-1.32,1.75-2.58,3.37-5,3.58a1,1,0,0,0-.89,1.43c1.08,1.51,0,3.41,1.35,5-1.17-.06-2.09-1.32-2.94-.09,0,.06-.31,0-.33,0-.6-1.55-2.94-1.18-3.3-3.12-.15-.83-.39-1.42.41-2s.57-1.15-.28-1.56c-2.86-1.37-5-1-7.27,1.24a13.34,13.34,0,0,1-4.36,2.76c-1.31.58-2.12.16-2.75-1.07a19.39,19.39,0,0,1-1.84-8.69c0-1.21-.15-2.18-1.38-2.83a4.17,4.17,0,0,1-1.67-2.68,1.3,1.3,0,0,0-1.69-1c-4.26.52-8.48.52-12.62-1a8.75,8.75,0,0,0-5.46-.32,18.75,18.75,0,0,1-5.67.72c-.94,0-2.13.31-2.26-1.31,0-.6-.74-.49-1.2-.48a115.16,115.16,0,0,0-14.13.52c-5.91.77-11.84,1.65-17.84,1.18-.3,0-.6,0-.9,0-.46-.05-1.11,0-1.2-.54s.6-.79,1.08-1,.89-.27,1.77-.54a31.91,31.91,0,0,1-6.1-.38c-.61-.15-1.6-.12-1.52-.9s1-.57,1.67-.6c6.39-.36,12.78-.69,19.12-1.53a118.5,118.5,0,0,0,21.07-4.25c6.17-2,12.18-4.56,18.16-7.14,2.36-1,2.82-3.22,3.68-5.29-.16,0-.35-.14-.44-.09-3.38,2.25-7.36,3-11,4.6a5.73,5.73,0,0,1-4.52-.12,45,45,0,0,1-8.44-4.9,3.64,3.64,0,0,0-1.66-.58c-.61-.08-1.36-.23-1.54-.78-.61-1.88-2.5-2.65-3.42-4.23a1.28,1.28,0,0,0-1-.73,3.34,3.34,0,0,1-3.09-2.06c-.18-.44-.71-.39-1.12-.39A2.26,2.26,0,0,1,84,99c-.36-.84-1.09-.82-1.81-.83a4.17,4.17,0,0,1-3.65-1.54A1.4,1.4,0,0,0,77.31,96a3.42,3.42,0,0,1-3.59-1.84c0-.11-.16-.28-.22-.27-2.34.28-3.62-2.12-5.81-2.28-1.18-.08-2.39-.22-2.89-1.66-.21-.62-1-.63-1.55-.72a10.76,10.76,0,0,1-4.78-1.92,4.52,4.52,0,0,0-2-.75A6.15,6.15,0,0,1,52,83.9a2.73,2.73,0,0,0-1.8-1.07,9.42,9.42,0,0,1-5.35-3.69,3.31,3.31,0,0,0-2.39-1.4,9.57,9.57,0,0,1-4.43-1.82c-.39-.28-1-.65-.77-1.09.85-1.59-.48-1.43-1.25-1.65a16.58,16.58,0,0,1-4.35-1.64c-.45-.28-1-.56-.95-1.19s.65-.77,1.15-1,1.16-.23,1.68-.8c-2.38-.56-4.78-.69-7-1.57-1-.38-2.46-.55-2.38-1.82.09-1.46,1.7-1.29,2.73-1.44,2-.28,4-.29,6.07-.49.77-.07,1.95.13,2-1,0-1-1.07-.92-1.82-1A48.49,48.49,0,0,1,22.3,58.9c-.5-.18-1-.37-1.5-.6s-.77-.44-.68-.94.55-.6.95-.68a17.16,17.16,0,0,1,4.47-.09c4.17.29,8.34.63,12.52.9.59,0,1.56.38,1.69-.45s-.87-.85-1.47-1c-3.29-.6-6.6-1.13-9.84-2a20.51,20.51,0,0,1-5.14-2.07c-.61-.36-1.45-.7-1.24-1.55s1.19-.84,2-.84a25.62,25.62,0,0,1,5.83,1c5.81,1.39,11.61,2.84,17.42,4.23a6.77,6.77,0,0,0,3.8-.12c-2.2-.58-4.42-1.12-6.6-1.76-2.45-.72-5.06-1.13-6.94-3.12-.58-.63-1.74-1.2-1.23-2.13s1.66-.33,2.49-.15c4,.84,7.69,2.58,11.51,4,11.91,4.35,24.12,7.77,36.16,11.73,3.58,1.18,7.18,2.3,10.77,3.41.6.18,1.19.61,1.87.3a.94.94,0,0,0-.44-1.1c-1.58-1.18-.81-3-1.18-4.49-.2-.83.89-.4,1.35-.17,2.36,1.16,4.52,2.67,6.76,4.06,6.86,4.26,12.15,10.18,17.23,16.32,3.46,4.2,7.26,8.09,10.95,12.09a4,4,0,0,0,3.41,1.15c4.06-.24,7.58-2,11.17-3.64a1.89,1.89,0,0,0,1-1.15,1.68,1.68,0,0,1,.73-1c3.63-1.29,5.66-4.65,8.72-6.66s6.32-3.62,9.41-5.56a87.45,87.45,0,0,1,15.24-7.54,28.32,28.32,0,0,0,8.16-5.13c3.64-3.08,8-4.94,12.14-7.23,1-.56,2.23-1,2.66.8.2.85.79.56,1.27.39,5.72-2,11.35-4.21,15.47-9,.36-.43.82-1.21,1.41-.83.74.48.07,1.19-.19,1.73a36.8,36.8,0,0,1-5.16,7.08c-1,1.22-3,1.68-4.51,2.4-1,.47-2.1.67-2,2.26,0,1-1.12,1.29-1.88,1.73-1.37.78-3.05,1.18-3.05,3.3,0,.65-.82,1-1.36,1.34-2.27,1.54-4.24,3.47-6.42,5.08-3.2,2.36-5.78,5.36-9,7.72-3.7,2.68-7.87,4.16-11.69,6.38-2.06,1.21-4.45,2.2-6,4.22a1.45,1.45,0,0,1-1.42.6,5.41,5.41,0,0,0-3.89,1c-1.92,1.23-4.16,1.44-6.23,2.16-2.26.79-2.29,1.17-.66,2.83a28,28,0,0,1,2.81,3.25,5.06,5.06,0,0,1,.82,5.22c-.61,1.4-.14,3-.48,4.43a13.12,13.12,0,0,1-.49,2.08c-.42,1-.75,2.17-2.05.49-.72-.94-1.86-1.05-2.9.13-1.69,1.91-3.41,3.71-2.88,6.58a5.05,5.05,0,0,0,.57,2c2.56,3.67,3,7.85,3,12.15,0,2.76,0,2.78,2.72,3.53a18.36,18.36,0,0,0,3.67.81c1.55.08,2.93,0,3.81-1.61a1.14,1.14,0,0,1,2.14,0c.67,1.05,1.5.88,2.31.41a11.18,11.18,0,0,0,3.4-2.59,2.63,2.63,0,0,1,1.22-1,1.24,1.24,0,0,1,1.59.81c.29.7-.12.85-.72.78,0,1.74-1.76,2.17-2.51,3.34-.3.46.39.57.81.6a6.45,6.45,0,0,1,2.91.78c.27.16.5.42.34.73-.07.14-.39.15-.6.23-1.72.66-3.58.84-5.28,1.68-1.39.68-3,.34-4.56.22-.89-.07-1.64-.25-2.19.63-.06.1-.16.24-.25.25-2.46.07-3.71,1.9-5.29,3.4C162.12,148.31,160.92,148.59,161.33,150.24Zm-8.11-9.7c-.27-.49-.75-.48-1.12-.55-2-.38-2.24-2.79-4-3.39,0-2.21-1.49-4-1.58-6.17-.06-1.64-1.15-2.69-1.91-3.73-1.27-1.75-2.2.77-3.44.88-.22,0-.41.23-.63.31-1.25.5-1.24,1.32-.57,2.26.31.43.76.77,1.07,1.2.56.78,1.84,1.56.15,2.51-.28.16-.26.52-.16.82.62,1.86,1.23,3.73,1.87,5.59a1.63,1.63,0,0,0,1.18,1,16.29,16.29,0,0,0,6.35.79A3.32,3.32,0,0,0,153.22,140.54Z" transform="translate(-20.11 -47.21)"/></svg>