<svg id="Layer_1" data-name="Layer 1" xmlns="http://www.w3.org/2000/svg" viewBox="0 0 237.94 91.75"><path d="M244.81,125.6c-6.77,2.27-13.44,4.9-20.33,6.7A96.77,96.77,0,0,1,207.62,135c-9.5.75-19,1.28-28.56,1.37-8.83.08-17.67-.54-26.5-.85-4.24-.15-8.49-.46-12.73-.37a25.25,25.25,0,0,0-5.9,1.33c-9.26,2.54-18.74,2.32-28.2,2.24a11.21,11.21,0,0,1-3.26-.61c7.9-3.11,15.92-5.48,24.64-4.86-3.7-.62-7.45-1.06-11.1-1.91a16.54,16.54,0,0,0-9.89,1.07,10.82,10.82,0,0,1-8-.13c-2.89-1-6.16-.91-9.25-1.38a50.33,50.33,0,0,1-8.29-1.84l4.18-1,.12-.45a5.68,5.68,0,0,0-1.71-.67c-7.45-.24-15.06-1.64-22.28,1-6.27,2.25-12.23,5.35-18.36,8-7.82,3.42-15.67,6.79-23.8,10.31-.24-1.16-.54-1.76-.37-2,1.93-2.28,1.4-6.56,5.69-7,.42,0,.79-1,1.11-1.62A4.64,4.64,0,0,1,29,133c1.05-.14,1.88-1.55,2.91-2.24,3.29-2.22,6.64-4.38,10-6.58,2.57-1.7,2.8-4.66.18-6.32a106.64,106.64,0,0,0-10-5.28c-2.82-1.39-5.76-2.54-8.59-3.92-.77-.38-1.29-1.23-2-1.77a8.52,8.52,0,0,0-2.3-1.42c-3.35-1.14-6.76-2.13-10.1-3.28a10.37,10.37,0,0,1-2.24-1.51l0-.74c1.28-.29,2.58-.91,3.83-.82a80.35,80.35,0,0,1,21.33,4.35c9.23,3.34,18.44,6.74,27.55,10.37,4.46,1.77,8.8,1,13.18.24,3.28-.57,6.5-1.54,10-2.4-3.71-1.08-7.51-.36-10.72-1.92,5.83-1.56,11.89-2.32,17.09-4.83s9.84-.79,14.64-.16c6.26.82,12.45,1.69,18.78.73,2.54-.38,5.14-.39,8.4-.61a20.2,20.2,0,0,0-1.94-.76,21.13,21.13,0,0,1-9.26-4.37c-1.89-1.6-4.3-2.58-6.37-4-3.85-2.61-7.67-5.29-11.4-8.07-.83-.62-1.07-2.07-1.92-2.62-4.38-2.84-7.26-7.17-11-10.59a10.24,10.24,0,0,1-2.29-2.94c10.5-1.67,20.24,1.55,30.5,3.92-.16-2.07-.49-3.85-2-5.1a12.41,12.41,0,0,1-4.16-6.1,26.55,26.55,0,0,0-3.42-6.6c-.89-1.31-1.07-2.18.15-3.2H114c.94.25,1.91.43,2.83.75,8,2.75,16.27,5,23.94,8.45A152.55,152.55,0,0,1,177,88.19c4.22,3.78,8,8.07,11.86,12.21,2.54,2.71,5,5.44,9.13,5.5a44.46,44.46,0,0,1,6.11.38c6.51,1,13,2.14,19.48,3.28a32.28,32.28,0,0,1,6.35,1.51c2.89,1.17,5.6,2.76,8.4,4.15,1.12.56,2.35,1,3.41,1.6,2.23,1.37,2.22,2.45,0,4-1.25.89-2.54,1.72-4,2.71l7,1.12Z" transform="translate(-6.86 -54.47)"/></svg>