<svg id="Layer_1" data-name="Layer 1" xmlns="http://www.w3.org/2000/svg" viewBox="0 0 207.57 105.32"><path d="M179.38,94.71c4.69,1,8.51-.37,12.23-2.21,3-1.47,5.9-3,8.87-4.53a18.19,18.19,0,0,1,14.44-1c2.13.71,4.51.59,6.77,1,4.86.76,7.31,3.63,6.14,7.53-.36,1.19-.16,4.21-3.37,2.3-.84-.5-1.79,1-.61,2.21,2.09,2.16,1,3-1.39,3.3-5.07.7-10.08,2.48-15.26,1.18-2-.51-3.61.42-5.22,1-3.22,1.23-3.27,2.06-1.24,4.82a37.46,37.46,0,0,1,5.52,10.39,57.57,57.57,0,0,0,7.7,15.89c1.68,2.31.78,4.7-1.75,6.2a37.17,37.17,0,0,1-9.59,3.92,7.72,7.72,0,0,1-9.37-4.64c-1.1-3.15-3-5.93-3.93-9.11A10.43,10.43,0,0,0,182,126c-2.35-.71-5.4.3-7.95,1.12-1.58.5-1.88,2.5-2.14,4.18-.6,3.82-2.4,7.23-4.27,10.49a14.38,14.38,0,0,0-1.76,11.41c.7,2.55-.76,3.34-2.74,3.71a30.26,30.26,0,0,1-9.45-.22c-2.85-.37-3.18-2.73-2.89-4.91.56-4.16-.07-8.32.25-12.46.16-2.08-.63-2.5-2.65-2.06a185.58,185.58,0,0,1-42.67,4.07c-7.57-.15-15.16.8-22.75-.27a25.67,25.67,0,0,1-7.5-2.21c-6-2.85-12.37-1.67-18.62-1.85a1.68,1.68,0,0,0-1.75,1.48c-.66,4.17-2.85,8.3-.74,12.59,1.35,2.73,0,3.38-2.36,4a78.12,78.12,0,0,1-16.69,2.63c-3.95.14-6.07-1.52-6.17-5.33a13.35,13.35,0,0,0-1.52-6.57c-1.26-2.23-.91-4.38,1-6.31,2.11-2.1,3.89-4.53,6-6.61s.9-4.29.34-6.47c-.66-2.53-2.67-1.23-4.13-1.37-2.69-.25-5.54.94-8-1.45-3-2.9-3.17-3.47-.46-6.49,3.12-3.46,6.32-6.85,9.51-10.25,1.57-1.67,2.91-2.87,1.82-5.88a7.6,7.6,0,0,1,3-8.85c5.34-3.76,9.37-9,14.38-13.06,3.49-2.87,6.69-6.13,8.6-10.19C62,64.32,66,62.55,70.15,61.13c6-2.06,12.28-3.32,18-6.55,5.27-3,11.39-2.36,17-1.22a55.68,55.68,0,0,0,19.6.23,10.45,10.45,0,0,1,7.91,1.69c2.89,1.93,5.84,3.76,8.78,5.61a11.71,11.71,0,0,0,6.45,2.1,4.87,4.87,0,0,1,3.27.94c4.11,4.5,10.59,4.75,15,8.75,4.68,4.19,10.48,6.23,16.67,7.22,3.47.56,3.86,1.13,2,4C182.63,87.29,181.87,91.23,179.38,94.71Z" transform="translate(-20.55 -52.41)"/></svg>