<svg xmlns="http://www.w3.org/2000/svg" viewBox="0 0 173.87 79.88"><g id="Layer_2" data-name="Layer 2"><g id="Layer_1-2" data-name="Layer 1"><path d="M139.46,75c-1.4-1-2.94.74-4.84.56-.57-3.83,2.33-7.55.24-11.93-3.86,4.69-2.13,11.45-7.66,14.48-2.29-1.39-2.31-3.75-2.65-5.91a28.87,28.87,0,0,1,1.12-14.51c-1.36-6.91,3.44-12.27,5.44-18.62-3.24-.32-6.17,2.76-9.66.89-1.84,2.21-4.08,2.36-6.78,1.37A40.11,40.11,0,0,0,100,39.12c-4.9.08-9.72,1.4-14.33.29-1.32,2,1,2.69.58,4.05-.75,1.59-2.4.8-3.89,1.45-2,3.12-1.2,7-.06,9.91a50.5,50.5,0,0,1,3.3,16.36c.14,3.33-.5,7.24-5,8.7-1.87-2.78-.71-6.31-2.38-9.32-2.73,2.43.07,7.92-5.21,8.83-3.77-7.77-6.66-15.23-4.6-23.77,1-3.94.76-4.07-1-6.3,3.31-1.86.81-4.73,2-7.78-7.92.58-14.18-2.86-21.1-4.62-8.42,1.87-8.17,8.84-8.17,15.5-1.42.93-3.22-.23-4.28,1.41-.37,1.18,1.79.54,1.37,2.11-1,1.4-3.23-.73-5,1.4a37.39,37.39,0,0,0,4.2,14.3C26.49,67,22.16,52.36,27.85,44.25c3.92-5.6,5.82-12.39,10.72-17.25-1-1.83-2.08-2.56-3.72-1.47-5.91,3.95-12.16,7.32-18.39,10.74-6.4,3.51-6.93,10.07-7.83,16.31-.29,2,0,4.08-3,5.48C4.32,50.15,4.34,42.72,7.53,35.35c-6,1.88-3.5,8-6.12,11.53C-.49,46.05.08,44.53.08,43.32c0-5.77,2.11-11,6.34-14.65,6.59-5.6,12.72-12,21.26-14.91a35.6,35.6,0,0,1,20.43-1.13c1.88.47,3.72-.37,5.08.1,3.45,2,4.47,6.79,9.43,6C64,10.59,69.23,6.6,77.1,4.94c3.57-.76,7.36-1.14,10.69-3.08a3.84,3.84,0,0,1,4.84.81c2.52,2.73,6,2,9,2.54a3,3,0,0,0,3.12-2.13A4.49,4.49,0,0,1,110.25.13c2.84.6,2.54,3,2.43,5.2,0,.25.16.5.35,1,2.58,1.27,6.48,1.46,6,6a23.69,23.69,0,0,0,9.16,0c7.07-1.76,14.39-1.57,21.51-2.94,3.13-.6,5.85.86,8.14,2.76A40.89,40.89,0,0,1,166,21c1.85,2.79,3.65,5.61,5.47,8.42,4.07,6.3,2.82,14.17-3.16,19.15-2.82-3.44,1.35-8.16-2.72-11.43,0,4.19-.06,8.39,0,12.59.13,7.61-3,14.38-5.69,21.19-1.39,3.49-4.49,5-8.53,5.12,2.5-5.38,5.85-10.08,6.9-15.77s1.65-11.47-.71-17c-2.19-5.12-3.31-10.86-7.64-15.51-1.95,2.81-2.9,4.28-.41,7,3.06,3.29,3.94,8,4.91,12.4C152.19,57.61,146.31,66.23,139.46,75Z"/></g></g></svg>