<svg id="Layer_1" data-name="Layer 1" xmlns="http://www.w3.org/2000/svg" viewBox="0 0 144.88 119.84"><path d="M191.2,133.89a73.24,73.24,0,0,1-13.65-13.84c-5.45-7.45-13.19-11.67-21.06-15.81a5.59,5.59,0,0,0-1.7-.57c-6.78-1-13.77-.58-21.18-3.76,10.24,12.47,12.23,27.15,17.4,40.45,2,5,4.63,9.64,6.59,14.67-2.43-3.94-5.72-7.39-6.87-12a23.05,23.05,0,0,0-2.29-6.32c-4-6.81-5.43-14.66-8.78-21.74-2.36-5-5.77-9.09-9.62-13.44-4.8,9.15-13.86,13.64-20.21,20.81a29.92,29.92,0,0,0-3.93,4.87,270.88,270.88,0,0,1-16.66,25.69,135.15,135.15,0,0,1,7.14-14.48c3.47-5.91,6.22-12.33,11-17.51,4.07-4.4,7.47-9.36,12.93-12.4,3.68-2,4.54-4.13,4.3-7.49-1.9.83-3.07,2.51-4.37,3.87-4.75,5-10.82,5.45-17,5.19-3-.12-4.36-3.17-3.55-6.18,1.32-4.92,5-7.25,9.2-9.26,1.85-.88,4.76-1.41,5-3.5.22-2.47-2.94-3-4.61-4.38-2.29-1.91-4.76-2.13-7.57-1.32-7.39,2.12-14.92,3.79-22.18,6.26-5.15,1.74-9.41,5.38-13.7,8.7a16.53,16.53,0,0,1-9.13,3.44c7.9-3.36,13.73-9.84,21.19-13.74,5.75-3,12.42-3.53,18.5-5.77.42-.15.91-.14,1.31-.33,5.65-2.66,10.89-2.29,16.11,1.38,2.43,1.7,5.63,1.82,9.31,2.47-6-17.71-12.46-34.75-19.55-52.67,3,2.39,4.55,4.45,5.09,7.18C110.47,52,116,60.1,119.29,69.14c1.8,4.92,4.46,9.52,5.79,14.65.27,1,.56,2.28,2,1.76,1.06-.39,1.46-1.31.88-2.58-1.81-3.93-.29-7.43,1.21-11.15,3-7.39,5.47-15,8.07-22.49.48-1.38.32-3,2.44-4-1.19,5.87-3.4,11.06-5.05,16.4-2,6.41-5.12,12.58-4,19.63.15.88,0,2,1.06,2.24s1.64-.68,2.13-1.45c5.41-8.48,12.92-15,20.22-21.73S168.37,47,177.13,42.3c1.43-.76,2.65-1.94,4.57-1.93a146.72,146.72,0,0,0-20.94,16.89,250,250,0,0,0-19,19.88c.11.1.34.43.44.39,1.6-.55,3.63-3,4.68-1s-2.11,2.19-3.45,3.13-3,1.93-5,3.19c4.07,1,3.73,5.06,6.11,7.38,1.21-1.71,2.46-3.21,3.42-4.87,3.36-5.77,8.72-7.53,14.94-7.62,1.81,0,3.68.4,5.43.08,9-1.66,16.7.94,23.56,6.63,2.85,2.36,6.67,2.52,9.67,4.56-4.27-.91-8.52-2-12.08-4.61-5-3.62-10.19-5.39-16.47-4.25a103.74,103.74,0,0,1-13.09,1c-4.33.22-7.63,2.19-9.36,6-2.09,4.64-4.42,8.87-10.28,10.84,4.11,2.31,8,1.57,11.49,2.31a27.7,27.7,0,0,1,10.36,4.12c6.23,4.26,12.68,8.23,17.54,14.15,3.62,4.41,6.5,9.46,11.46,12.67C191.7,131.69,192.06,132.43,191.2,133.89Z" transform="translate(-56.61 -35.19)"/></svg>