<svg id="Layer_1" data-name="Layer 1" xmlns="http://www.w3.org/2000/svg" viewBox="0 0 139.42 182.94"><path d="M134.93,177a29.21,29.21,0,0,1-5.18.26c-1.34-.16-3.47-.76-3.72-1.61-.68-2.31-3-2.73-3.88-4-2.83-3.79-6.12-2.3-10.36-1.73l4.39-7.89c-2-3.14-4.2-6.41-6.3-9.71-2-3.12-6-5.48-2.91-11-5.8,3.59-7.29,8-6,13.25,1.43,5.69,3.56,11.19,5.13,16.85,1.43,5.12,2.75,10.29,3.67,15.52.3,1.72,1.73,5.55-2,4.93-2-.33-5.47-4.45-5-5.57,2.79-7.05-1.27-12.86-2.75-19s-4.3-12.23-6.25-18.41c-.53-1.66-.77-4.18.12-5.38,2.27-3,2.48-6.25,2.53-9.79.07-5.69.56-11.38.83-16.17-3.25,1.28-6.58,3.69-9.82,3.57-3.4-.12-6.91-2.35-10.05-4.2-5-2.94-9.72-6.33-14.5-9.49,4.86-3.07,12-.76,13.55,5,1.32,4.94,4.82,6.17,9,6.83,4.41.69,7.39-1.08,9.53-5.11,4.82-9.07,11.66-15.55,22.39-17.2a36.5,36.5,0,0,0,10.17-3.67,9.24,9.24,0,0,0,4.39-4.22c2.29-5.79,6-9.75,12-11.75,8.47-2.86,11.82-9.81,13.24-17.85,1.08-6.07,1.44-12.26,2.25-18.37.87-6.57,1.72-13.19,7.42-17.75.47-.38.9-1,1.4-1.1,5.73-.68,6.57-3.58,4.21-8.43-.39-.79.77-2.35,1.68-4.78a31.56,31.56,0,0,1,2.14,4.3c1,3.64,2.78,6.18,7,6.61,1.48.16,3,1.34,4.21,2.38,4.08,3.54,8.11,7.14,12,10.9,1.27,1.24,2,3,2.93,4.6-2.1.81-4.22,2.39-6.28,2.3-5.82-.23-11.6-1.26-17.41-1.67-1.19-.09-3.15.84-3.57,1.81a27.39,27.39,0,0,0-2.44,8.53c-.54,6.77-.19,13.64-1,20.38a45.08,45.08,0,0,1-3.71,14.35c-4.36,9.08-7.41,18.31-8.12,28.43-.23,3.23-2,6.48-3.61,9.46-1.19,2.26-2.23,4-.58,6.6.93,1.44.91,3.46,1.46,5.18,1.12,3.56,1.87,7.35,3.64,10.56,2.16,3.89,1.69,6.4-1.53,9.46-4.71,4.49-8.52,9.76-9.31,16.59,0,.44-.09,1.11-.37,1.27-4.67,2.56-9.37,5.07-14.07,7.59-.17-.59-.34-1.18-.54-1.8,1.08-3.36.31-8.71,6.79-6.23.34.13,1.38-1,1.79-1.78,3-5.35,6.15-10.65,8.85-16.16,3.09-6.32,2.45-8.25-3.82-14.1-.48,2.46-.61,4.72-1.41,6.72s-1.87,4.76-3.62,5.7c-7.48,4-13.82,8.93-16.67,16.45Zm-16.68-46.34c-5.81,16.74-4.73,18.73,4.07,32.08,13.77-6.95,23.17-25,17.63-34.67C133.37,133.43,125.75,131.39,118.25,130.65Z" transform="translate(-62.85 -9.06)"/></svg>