<svg id="Layer_1" data-name="Layer 1" xmlns="http://www.w3.org/2000/svg" viewBox="0 0 144.31 132.61"><path d="M76.2,54.88c-1.28-4.7-2.47-8.44-3.23-12.25-.27-1.4-.74-3.92,1.59-4.07,1.75-.1,1.93,2,2.18,3.57A50.7,50.7,0,0,0,83.29,59.3c-1.64-5.94-4.1-11.68-3.63-18,.19-2.53.14-6.49,2.29-6.52,2.52,0,2.34,4,2.52,6.34a34.52,34.52,0,0,0,2.18,10.71c-.17-3.21-.17-6.44-.57-9.62A11.14,11.14,0,0,1,87,35.62c.53-1.09.59-2.76,2.33-2.44s1.14,1.87,1.09,3.09a91.53,91.53,0,0,0,2.37,25.07c.15.64.06,1.43,1.1,1.79.48-7.85-.57-15.79,1.69-24.39,2,3.18,1.82,5.83,1.72,8.32-.23,6.19-.47,12.35.61,18.49.22,1.25.13,2.9,1.59,3.11,1.79.26,1.53-1.69,1.9-2.73a54.06,54.06,0,0,1,1.76-5.41c1.3,3,.77,6,.64,9-.41,9.2,1.55,17.12,9.47,23,3,2.19,4.86,5.77,7.28,8.68.92,1.1,1.38,1.34,2.77-.07,2.33-2.35,4.3-4.59,4.73-8a3.87,3.87,0,0,1,1.72-2.26c5.47-3.6,9.93-8.33,14.85-12.52,5.79-5,11-11.43,19.26-12.87,1.6-.28,1.78-1.52,1.91-2.86.23-2.23.48-4.48.93-6.67.38-1.9.68-4.43,2.77-4.84,2.5-.48,1.78,2.68,3.22,4.05,1.06-2.59,2-5.12,3.13-7.56.58-1.24,1.32-2.84,2.95-2.62,1.82.26,1.45,2.12,1.69,3.42.13.68.12,1.38.22,2.75,2.54-3.53,3.3-8.18,7.73-8.52.54,0,5.5-.37,5.43,3.45-.05,2.51-.37,5-.58,7.7,1.45-.14,1.47-1.34,2.05-2,1-1.06,1.45-3.24,3.38-2.44,1.66.68,1.37,2.65,1.26,4.15-.17,2.38-.58,4.74-.83,7.11-.22,2-2.72,5,2.23,5,1.27,0,1.34,2.08,1.06,3.28-2.69,11.69-4.18,23.51-10,34.56-4.16,7.86-11.56,10.24-17.48,15.06a78.2,78.2,0,0,0-13.38,13.34c-1.9,2.53-2.33,4.48,1.7,5,3.41.46,6.27,2.4,9.38,3.69,1.83.77,3.09,2.08,2.6,4.26s-2.1,2.91-4.13,2.75c-2.48-.19-4.63.81-6.92,1.5-9.4,2.81-18.7,5.43-28.72,1.7-4.65-1.73-10.05-1-15.05-.21-2.68.4-4.69,2.35-6.33,4.6-2,2.73-4.2,5.28-6.2,8s-5.07,2.84-7.63,2.3-2.41-3.42-1.83-5.69c.35-1.38-.3-1.56-1.42-1.9-4.34-1.32-4.9-2.9-2.42-6.42.46-.67,1.42-1.17,1-2.11-.49-1.17-1.66-.95-2.6-.82-6.93,1-13.87,1.91-20.79,3-4.1.63-8.07-.75-12.14-.6-1.46,0-2.67-1.64-1.06-2.43,2.66-1.3,4.29-4.53,8.06-4,2.14.31,4.44-.44,6.66-.74.76-.1,2,.07,1.55-1.24-.66-1.9.58-1.48,1.49-1.37A17.39,17.39,0,0,0,90,137.13a9.5,9.5,0,0,1,4.26-1.74c4.12-.66,3.25-2.85,1.73-5.19-3.61-5.55-8.4-10.23-11.67-16-.82-1.47-2.33-2.49-1.27-4.42.66-1.19-.19-1.72-1-2.36-3.92-3-6.42-6.65-5.08-11.91.23-.89-.53-1.21-1-1.61a5.68,5.68,0,0,1-2.15-6.67,2.77,2.77,0,0,0-.19-2c-3.88-6.12-3.12-13.46-2-19.41,1.65-9.07-2.73-15.29-6-22.39-.58-1.28-2.38-2.85-.51-4s2.63,1,3.48,2.15C71.4,45.48,72,50.67,76.2,54.88Z" transform="translate(-58.23 -33.14)"/></svg>