<svg id="Layer_1" data-name="Layer 1" xmlns="http://www.w3.org/2000/svg" viewBox="0 0 175.78 121.27"><path d="M58.72,138.25a26.16,26.16,0,0,1,4.57-.89c6.86-.16,13.73-.14,20.59-.24a24.11,24.11,0,0,0,5.11-.43c2-.46,3.33-1.72,3.28-4.47-4.45,1.46-7.48-.22-10.2-3.51-1-1.23-3.23-1.47-4.89-2.16l-5.48-2.26-.21-1.06,8.81-4.85c-3.35-.53-6.12-.8-8.79-1.46-1.57-.39-3.67-1-4.35-2.21-3.49-6.1-7.25-12.17-7.75-19.47A21.74,21.74,0,0,1,60,91.05c-1.75-1.35-3.83-2.94-5.89-4.55-2.85-2.24-2.9-2.66-.81-5.62-2.42-1.92-4.86-3.83-7.67-6l3-1c0-3.1-3.35-5.69-1-9.19l3.46,2.06c-1.75-4.25-4.32-8.07-2.85-13.22,4,3.06,3.67,9.41,9.65,11.13-2.45-5.44-6.26-9.79-5.42-15.5l.93-.49,6.67,9.65c-.35-4.65-2.57-8.51-.06-13.29l3.25,5.53-.69-7.41c2.5-.42,3.43,1.12,4.23,2.74,2.88,5.88,5.8,11.76,8.58,17.69a34.24,34.24,0,0,0,8.27,10.65c9.38,8.59,18.5,17.45,27.71,26.22,1.24,1.18,2.42,2.42,3.84,3.83,2.87-3.7,5.75-7.32,8.51-11a4.55,4.55,0,0,0,.69-2.58c0-3.11,1.09-4.88,4.47-4.13,1.5-4.91,1.5-4.91,6-4.27,2-2.27-2.75-7.66,3.74-7.87,1.92-3.78.17-10.57,8.07-10a22.63,22.63,0,0,1,1.48-3.54c1.46-2.44,2.92-2.54,4.69-.33,1.22,1.54,2.19,3.29,3.33,5-.14-3-.33-5.8-.38-8.61a6,6,0,0,1,.53-2.93,13.35,13.35,0,0,1,2.37-2.45c.72.76,1.78,1.4,2.1,2.31a44.15,44.15,0,0,1,1.34,5.47c.89-3,1.65-6.29,2.92-9.42.57-1.41,2.15-2.41,3.27-3.6a27,27,0,0,1,2.06,4.18,40.55,40.55,0,0,1,.86,5.4c.88-4.55,1.76-9.05,2.63-13.56l1.28-.09c.64,2.48,1.29,5,2,7.8l4.17-10.14,1.43,0a37.57,37.57,0,0,1,1.55,6c.71,7.72-1.68,14.93-3.87,22.2-2.45,8.12-7.17,14.58-13.47,20.07-3.42,3-6.76,6.07-10.13,9.12-4.75,4.3-7.81,9.69-10.17,15.54,13.2,6.83,26.77,11.47,41.81,9a17.43,17.43,0,0,0,5.79-2.36c5.36-3.18,8.14-2.65,12.56,1.58,1.56,1.5,4.27,2,6.55,2.53,2.5.64,5.12.86,7.68,1.27l.24,1c-1.15.43-2.28,1.19-3.45,1.24-2.71.11-5.44-.23-8.17-.17-2.51,0-5,.31-7.51.6-5.69.66-11.36,1.7-17.07,2-8.16.46-16.35.53-24.53.53a12,12,0,0,0-10.33,5.22c-4.28,5.75-9.21,11-16.3,13-7.74,2.19-15.66,3.81-23.53,5.49a9.16,9.16,0,0,1-5.06-.36c-3.17-1.31-5.75-.28-8.66.88-6,2.4-12.07,4.4-18.14,6.5a12.63,12.63,0,0,1-2.62.37l-.46-1,10.12-5c-5.84.15-11.16,1.23-16-3.73l-7-1.46.56-2.39c-3.84-2.64-4-3.14-1.64-5.41l-3.19-2.82Z" transform="translate(-45.6 -39.82)"/></svg>