<svg id="Layer_1" data-name="Layer 1" xmlns="http://www.w3.org/2000/svg" viewBox="0 0 175.93 99.09"><path d="M166.45,59l.34-3.45c.9.73,1.84,1.43,2.7,2.2,3.08,2.74,7.6,1.89,9.85-1.8,1.13-1.84,1.63-4.83,4.41-4.46,2.52.33,2.34,3.24,2.93,5.14,2.95,9.64,6.14,19.07,15.12,25.07a2.73,2.73,0,0,1,1.07,3.59,3,3,0,0,1-3.41,1.63,31.85,31.85,0,0,0-3.53-.69c-1.3,0-3.13-2.12-3.76.14-.38,1.36,1.57,2.73,2.37,4.11s4-1.6,2.64,1.31c-.84,1.81-3.13,4.81-6.13,2.39-3.54-2.85-6.34-1.51-9.25.84-1.42,1.14-1.74,2.7-2.13,4.34-.89,3.73-2.47,7.17-5.71,9.42-3,2.08-2.4,3.83.2,5.5a33.49,33.49,0,0,0,6.67,3.78c7.87,2.74,12.38,9.32,17.65,15,1.3,1.41,2.39,3.56.11,5.09-2.52,1.68-3.19-.71-4.34-2.28-3.15-4.3-6.92-7.84-12.39-9-5.64-1.19-10.82-3.66-16.09-5.88a44.31,44.31,0,0,0-4.58-1.91,7.24,7.24,0,0,0-6.72,1.42c-1.56,1.54,1.19,3.25,2,4.93,1.31,2.78,5.58,4.89,2.8,8.62a17,17,0,0,1-12.55,7.15,1.54,1.54,0,0,1-1.82-1.55c-.11-1.71.88-2.78,2.3-3.57,5.69-3.14,5.46-3.49,1-8.41-6.07-6.63-12.39-12.52-21.59-14.48-2.59-.55-3.88-.65-4.22,2.48a35.24,35.24,0,0,1-2,6.92c-2.22,6.88-.8,10.5,5.61,13.76,3.89,2,7.89,3.74,11.79,5.69,1.25.63,3.1,1.1,2.36,3.2a3,3,0,0,1-4.36,1.93c-7.44-3.4-16.1-4.31-22.08-10.72-.75-.8-1.68-1.68-2.67-.65a11.31,11.31,0,0,0-3.59,7.09,7.57,7.57,0,0,0,.69,2.59c.53,1.61,2.25,3.62-.33,4.58-2.27.85-4.85.72-6.26-2a10.25,10.25,0,0,1-.26-8.73c5.67-15.1.56-20.65-8.28-31.68-1.5-1.87-2.77-1.73-4.81,0A35.13,35.13,0,0,1,78,114c-10.56,4-20.19,10.66-32.07,11.1-6.91.26-17.62-7.59-18.6-14.33-.67-4.58,2.17-8,6.81-8a41.08,41.08,0,0,1,5.35.71c5.69.77,11.54.29,16-3,6-4.38,11.74-8.66,18.91-11,11.23-3.64,22.09-8.91,33.56-11.2,10.64-2.12,21.92-2,32.84-1.43,10.65.6,18.12-3.55,24.39-11.39C166.83,63.45,166.43,61.19,166.45,59Z" transform="translate(-27.23 -51.41)"/></svg>