<svg id="Layer_1" data-name="Layer 1" xmlns="http://www.w3.org/2000/svg" viewBox="0 0 237.4 80.69"><path d="M139.89,126.33c-3.5-.55-7-1.07-10.42-1.65-7.37-1.23-14.74-2.47-22.09-3.77a2.92,2.92,0,0,0-2.71.71c-1.75,1.52-3.58,2.94-5.4,4.37a8.38,8.38,0,0,1-1.82,1.13c-1.93.85-2.4.54-2.56-1.5a9.75,9.75,0,0,0-.4-2c-.67-2.21-1.08-2.43-3.36-2.36a21.18,21.18,0,0,1-4.28-.35c1.25-1.1,2-2.13.61-3.4a2.86,2.86,0,0,0-1.47-.66q-8.47-1.24-17-2.41c-1.53-.21-3.11-.48-4.36.87a2.09,2.09,0,0,1-.75.36c-2.68,1.11-3.59.61-3.75-2.3-.06-1.14-.52-1.3-1.49-1.44-3.72-.53-7.43-1.08-11.12-1.8-3.36-.65-5.76.27-8,3a126.12,126.12,0,0,1-23,21.57,14.75,14.75,0,0,1-2.6,1.47,3,3,0,0,1-1.12,0,4.2,4.2,0,0,1,0-1.12c2.41-7.6,4.85-15.18,7.25-22.78a39.83,39.83,0,0,0,1-4.18,9.55,9.55,0,0,0-.95-6.36C15.67,92.92,11.25,84,6.82,75.06a16,16,0,0,1-1-2.67c-.31-1.08.13-1.6,1.24-1.17a17.79,17.79,0,0,1,3.24,1.53c8.89,5.92,17.39,12.33,24.84,20A30.48,30.48,0,0,1,39,97.92c2.41,3.92,6.21,5.55,11,4.82,5-.76,10.06-1.21,15.06-2a3.38,3.38,0,0,0,2-2c1-2.48,2.15-2.76,4.23-1.12a5,5,0,0,0,3.33.85A112.05,112.05,0,0,0,85.7,96.84c11.22-2.37,22.47-4.62,33.56-7.47a9.76,9.76,0,0,0,7.18-7.83,102.41,102.41,0,0,0,1-10.81c.23-3.5.23-7,.46-10.51.12-1.79.68-2,2.38-1.46a21.37,21.37,0,0,1,9.65,6.2c3.77,4.18,7.5,8.39,11.15,12.67,2.23,2.6,4.91,4.31,8.38,4.16,25.3-1.07,49.59,3.69,73.22,12.41,2.47.91,5,1.79,7.42,2.72a7.77,7.77,0,0,1,1.47.8c1.79,1.15,2,1.81.61,3.3a21.57,21.57,0,0,1-4.53,3.79,23.35,23.35,0,0,1-12.41,3.48c1.36,1.72,0,2.66-1.07,3.48a27.17,27.17,0,0,1-4.08,2.47c-6.66,3.43-13.86,5-21.22,5.91-6.86.82-13.75,1.38-20.62,2.13a2.66,2.66,0,0,0-1.55,1.07c-2.22,3-4.21,6.19-6.59,9.05a47.89,47.89,0,0,1-6.22,5.94c-.72.6-2.21,1.09-2.86.73a3.75,3.75,0,0,1-1.36-2.78c-.1-2.09.19-4.19.3-6.29a8,8,0,0,0,0-2c-.32-1.75-1.2-2.13-2.75-1.31-5.09,2.68-10.36,4.8-16.16,5.31a11.8,11.8,0,0,1-3-.06c-1.37-.22-1.78-1.1-1-2.25A41.84,41.84,0,0,1,139.89,126.33Z" transform="translate(-5.7 -58.5)"/></svg>