<svg id="Layer_1" data-name="Layer 1" xmlns="http://www.w3.org/2000/svg" viewBox="0 0 161.9 64.7"><path d="M153.21,144.78c-5.24,0-9.72-.22-14-1.64-5.69-1.88-7.16-4.46-6.39-10.34a22.83,22.83,0,0,0-.83-8.91c-1.18-4.28-6.1-5.14-9.47-2.19a52.9,52.9,0,0,0-8.68,9c-1.1-.76,1.21-3.84-2.19-2.24-3.21,1.5-6.64,2.55-9.9,4.6.21-2.05,1.48-2.45,2.74-3.1,2.75-1.41,2.68-1.5-.06-3.28-.67-.43-1.58-1-1.08-1.92.61-1.09,1.32-.19,2,.22,3.16,2,5.14,1.83,6.57-.43.9-1.43.81-2.6-1.07-3.26-1.47-.51-3-.24-4.45-.34a2,2,0,0,1-1.84-1.44,4.61,4.61,0,0,1,3.68.2c3.53,1.29,6.79-.19,9.93-1.68,1.27-.61,1.17-1.65-.18-2a66.36,66.36,0,0,0-8.77-1.84c-8.69-1-16.57-4.42-24.31-8.06-3.9-1.83-7.93-3.29-11.86-5a75.48,75.48,0,0,1-9.3-4.4C56.86,92.6,50.25,88,43.58,83.55c-1-.69-2.36-1.32-2.22-3.46,2.47,1.56,4.77,2.93,7,4.43,4.41,3,9.38,4.44,14.33,6.27,6.35,2.34,13,3.67,19.22,6.4a27.78,27.78,0,0,0,12.6,2c8.79-.36,17.61-.91,26.37.71,3.71.68,7.17.6,10-2.82,1.92-2.37,5.31-1.86,7.43-.92,3.94,1.76,7.62,0,11.4.29,3.42.23,6.51.65,8.85,3.31.67.76,1.21,1.87,2.24,1.74,4.27-.55,8.26,1.44,12.63.9,4.82-.6,9.81-.8,14.68.52,1.38.38,3.27.54,4.39-.11,2-1.16,3.69-.37,5.15.33,4.78,2.33,5.45,3.13,1.69,6.77-2,2-4.2,3.8-6.35,5.63a11,11,0,0,0-3.33,4.86,4,4,0,0,0,1.12,4.88,31,31,0,0,1,5.83,6.77c1.19,2.08,3.36,1.82,5.34,2,.52,0,1.58-.32,1.35.76-.11.53-.11,1.27-1.38,1.49-5.86,1-10.14-.7-13.16-6-1.89-3.3-3.38-3.65-6-2.53-3.36,1.43-3.92,2.51-3.27,6.6.16,1,.61,2-.39,2.72-1.21.84-2.22.05-3.1-.72-1.33-1.16-2.12-2.54-1.45-4.41.33-.94.51-1.93.78-2.89.23-.79.49-1.56.7-2.21a1.91,1.91,0,0,0-2.32-.74c-4.61.83-9.27.63-13.91.72a7.2,7.2,0,0,0-4.87,1.9c-3.25,2.75-6.46,5.61-11,6.39-1.65.29-4.11,1.16-4.2,3.4-.09,2,3.94,4.09,6.44,3.14C149.15,140.51,151.09,141.27,153.21,144.78Z" transform="translate(-41.35 -80.09)"/></svg>