<svg id="Layer_1" data-name="Layer 1" xmlns="http://www.w3.org/2000/svg" viewBox="0 0 180.85 106.37"><path d="M29.27,101.66c.09-5.84,2.53-10.76,6-15.29a8.29,8.29,0,0,1,3.05-2.11,3,3,0,0,1,3.67.65c1.11,1.07.58,2.34-.17,3.4C39.48,91.55,37.67,95,37.35,99c-.26,3.18,1,4.78,4.19,4.79,6,0,10.44-3.34,14.63-7.18,4.78-4.38,8.11-9.87,11.86-15,6.63-9.16,14.39-17,25.94-19.4,8.81-1.87,17.5-1.46,25.71,2.92,4.47,2.39,9.06,4.55,13.6,6.81,9.74,4.87,19,3.73,27.74-2.41,2.51-1.77,4.83-3.81,7.24-5.73.44-.36,1-.71.86-1.39s-1-.47-1.44-.72c-1-.51-2.69-.14-2.87-1.52-.15-1.17,1.15-1.93,2-2.7a9,9,0,0,1,6.56-2.57,29.54,29.54,0,0,0,6.41-.75c4.7-.86,9.5-.48,13.52,2.08a73.13,73.13,0,0,0,13.49,6.36c1.4.53,3.28.81,3.32,2.89s-1.35,3.14-2.84,4.12c-.76.5-1.75.71-.73,2,1.17,1.44.13,2.06-1.16,2.4a18.59,18.59,0,0,1-10.58,0c-5.78-1.84-9.87-.41-13.68,4.45a24.14,24.14,0,0,0-3.59,6.23c-2.8,7.33-9.88,12.47-10.45,20.93a8.43,8.43,0,0,1-3.16,5.53c-3.93,3.45-9,5.06-13.14,8.27-1.48,1.15-3.57.38-5.38.29-2.34-.13-3.69.73-4.26,3.15-1,4.27-2.6,8.26-6.09,11.21-1.15,1-1.44,2.44-1.75,3.8-.43,1.91-.91,3.66-2.73,4.82-1.4.88-.21,1.35.53,1.61,3.06,1.06,6.13,2.11,9.24,3a12.29,12.29,0,0,1,4.79,2.57c.91.81,1.73,1.82,1.23,3.28s-1.7,1.83-3.09,2.07c-5.9,1-10.68-.79-14.83-5.09-3.89-4-9.33-5.71-14.12-8.35a2,2,0,0,0-2.49.51c-.93.83-1.82,1.71-2.79,2.5a25.11,25.11,0,0,1-9.4,5.07c-6.27,1.72-11.79,5.35-17.09,9.16-.93.67-1.9,1.59-3.14.81s-1.13-2.13-1-3.39a3.9,3.9,0,0,1,.94-2.28c3.5-4.17,7.1-7.93,13-9,4.94-.86,8.75-4.26,12.47-7.49a1.09,1.09,0,0,0-.13-1.89c-1.8-1.33-2.17-3.3-2.27-5.31-.08-1.71-.83-2.42-2.5-2.31-3.92.27-7.8-.46-11.72-.52-2.73,0-3.29-.73-3.32-3.49a11.87,11.87,0,0,1,2.39-6.72c1.71-2.58,2.29-5.5,3-8.39.36-1.44-.41-2-1.78-2.41-3.11-.85-6.3-.31-9.44-.85-5-.86-9.71-2.33-13.34-6.12-1.17-1.22-1.91-.42-2.71.31a41.2,41.2,0,0,1-7.84,6.13c-5.34,3-11,4.78-17.14,4.56C32.36,110.47,29.28,107.28,29.27,101.66Zm88.63,19.67c3.07,1,4.93-1.18,6.56-3.78a15.52,15.52,0,0,1,1.13-1.65c.94-1.15.65-1.91-.65-2.5a23.66,23.66,0,0,1-6.49-4.16c-1.53-1.4-2.85-3-4.28-4.53-.4-.42-.94-.85-1.53-.64s-.49,1-.45,1.54a102.82,102.82,0,0,1,.5,11C112.62,121.32,112.68,121.33,117.9,121.33Zm3.68,15c4.35,0,6.21-1.56,6.53-5.38,0-.48.29-1.08-.3-1.3-.29-.11-.76.16-1.11.34a27.11,27.11,0,0,0-5.83,4.57c-.4.37-1.1.71-.81,1.37S121.09,136.23,121.58,136.32Zm-23-15.45c1.86.37,2.59-.6,1.7-2.77-.54-1.33,0-3.58-1.52-3.86-1.34-.25-1.77,1.9-2.54,3-.56.81-1.77,1.57-1.1,2.77S97,120.75,98.58,120.87Z" transform="translate(-29.27 -53.71)"/></svg>