<svg id="Layer_1" data-name="Layer 1" xmlns="http://www.w3.org/2000/svg" viewBox="0 0 172.46 78.35"><path d="M41.69,127.38c9.05-2,17.63-3.82,26.18-5.75,4.84-1.08,9.74-2,14.27-4.17,5.64-2.66,11.8-3.42,17.78-4.77,2.87-.64,3.19-2.3,2.49-4.12-2.39-6.2-3-12.82-4.68-19.17C96.91,86.34,94,85.55,93,83.08c-2.84-7-8.92-9.21-15.51-10.74-4.2-1-9.07-1.22-12.45-3.23C58,64.9,50.19,66.23,42.88,64.38c-2.22-.56-3.45-2.48-6-2.74,2.44-1.93,5.51-1.75,7.31-4.59,1.08-1.71,4.54-1.34,7.06-1.37,16.33-.16,32.62,1.36,48.93,1.06,13.53-.25,26.92.31,40.17,3.15a107.67,107.67,0,0,1,17.7,5c5.53,2.23,7,5.17,5.5,10.94-.33,1.28-.54,2.6-.76,3.91a1.94,1.94,0,0,0,.55,2.08,77.62,77.62,0,0,0,11.82-2.76c5.76-1.75,11.76-2.19,17.66-3.13a19.51,19.51,0,0,1,9.35,1c1.55.52,3.48,1,3.5,3,0,1.74-1.65,2.33-3,2.94-2.58,1.14-5.28,2.08-7.73,3.46-4.24,2.38-8.14,5.19-9.7,10.69a150.41,150.41,0,0,1,15.43,5.25c5.85,2.28,5.88,8,8.46,12.2.73,1.18-.36,2.69-2.16,2.27a8.37,8.37,0,0,0-6.28.86c-9.44,5.47-20,8.13-30,12a68.81,68.81,0,0,1-29.82,4.16c-8.13-.54-16.32-.91-24.22-3.15-5-1.43-10.45,0-15.18-1.5-16.77-5.43-33.63-1.65-50.45-1.36C48,127.87,45.12,128.63,41.69,127.38Z" transform="translate(-36.87 -55.67)"/></svg>