<svg id="Layer_1" data-name="Layer 1" xmlns="http://www.w3.org/2000/svg" viewBox="0 0 213.24 92.82"><path d="M138.28,122c-13.41,8.43-26.7,7.08-40.15,3.42-1.11-.3-2.23-1-3.31-1-2,.12-4.79-2.68-5.64-.09-.74,2.25-.9,5.92,1.84,7.78,4.31,2.94,5.1,9.29,11,10.83,1.55.41,1.68,2.87-1,3.32-6,1-11.83,1.75-16.88-3a22.25,22.25,0,0,0-5.93-3.64c-5.36-2.49-9.65-5.54-10.21-12.25-.42-5-3-7.29-8.49-5.27-2.88,1.06-6.21,1-9.35,1.23-9.4.73-14.5,7.76-20.3,13.76-1.19,1.24-1.5,3.79-3.9,3.16s-2.23-3.08-2.21-5c.06-3.94-.43-7.33,3.89-10.71,3.72-2.92,4.87-9.15,7.09-14,1-2.18,2.19-4.35,4.58-5,6-1.57,7.48-5.94,7.32-11.26C46.25,81.12,53.82,73,64.28,67c4.75-2.71,9.15-6,14.26-8.16,15-6.44,30.65-4.64,46.19-3.9A160.07,160.07,0,0,1,161,60.73c7.05,2,13.8,3.4,21.41,2.27,11.16-1.65,21.63,1.83,31.17,7.93,1.21.77,1.23,1.79,1.7,2.8,1,2.24,2.08,4.31,4.59,5.58s4.43,3.63,2.93,7a2,2,0,0,0,.34,2.32c4.39,4.62,5.62,11.74,11.93,14.91,2,1,2.37,2.68,1.54,5.07-2.53,7.29-10.15,11.12-17.63,8-4.87-2-10.12-3.28-14.58-6.32-.78-.52-2.06-1.18-2.71-.88-5.48,2.47-11.62,1.87-17.14,2.19-9.5.54-4.41,5.32-3.37,8.27a44.18,44.18,0,0,0,13,19.6c1.2,1,3.23,1.9,2.36,3.88-.72,1.65-2.66.89-4.07.94-11.05.41-11.07.4-15.55-9.72-3-6.74-9.1-10.51-14.51-14.78-2.46-1.94-5.75.14-7.43,2.41-5.39,7.32-13,11.76-20.42,16.46-.83.53-1.44,1.39-2.23,2-1.41,1.07-.48,4.94-3.56,3.63a8.24,8.24,0,0,1-5.09-6.8c-.63-4.78-.17-8.13,5.72-9.18C132.47,127.7,136.48,127.18,138.28,122Z" transform="translate(-23.75 -54.18)"/></svg>