<svg id="Layer_1" data-name="Layer 1" xmlns="http://www.w3.org/2000/svg" viewBox="0 0 129.81 114.44"><path d="M68.48,77A43.46,43.46,0,0,1,64,75.67c-1.27-.53-3.1-.94-3-2.71.13-1.58,2-1.3,3.13-1.87-.35-2.57-6.68-4.89.33-7.62-4-1.95-8.84-1.39-11.13-5.85,3.58-1.28,7.17.14,11.3-.78-3.3-1.87-6.51-2.93-8.18-6.35,3.72-1.24,7,.52,10.06,1.66,7.16,2.72,14.56,3.17,22,3.63A112.63,112.63,0,0,1,131.81,67a37.89,37.89,0,0,1,14.67,12.37c2.26,3.32,3.77,1.92,5.47.28C155.66,76,160,73.29,164,70.13a23.56,23.56,0,0,1,8.05-4c3.07-.89,5.72-.18,6.59,3.14.71,2.74,1.5,5.24,3.76,7.11a1.7,1.7,0,0,1,.52,2.14c-.53,1-1.39.37-2.05.13-3.9-1.37-6.7-.21-9.15,3.14-3.4,4.64-5.41,9-4.88,15.38a43.53,43.53,0,0,1-4.65,22.8c-1,2-2.16,4.06-2.37,6.18a4.56,4.56,0,0,0,4.44,5.28c3.83.33,6.89,2.33,10.11,4,.84.45,1.8,1.07,1.56,2s-1.71,1.22-2.31.91c-2.2-1.13-4.83.15-6.91-1.56-1.34-1.1-1.75-.14-1.82,1.19s-.45,3.14-1.84,2.9c-1.64-.28-.39-1.88-.26-2.91.34-2.6.44-4.21-3.38-3.45-2.15.43-6.08,1.18-6.6-3.23a1.13,1.13,0,0,0-1.72-1c-2.65,1.39-5.77,1.44-7.83,4.55-3.74,5.64-6,12.2-10.88,17.16a10.94,10.94,0,0,0-3.17,8.63c.15,2.1-6,4.75-7.74,3.46a2.37,2.37,0,0,1-.44-3.51c3.14-4.52,3.24-9.43,3.43-14.79.17-4.55,3-9.11,5.06-13.47,2.85-6,1.92-11.58-4-13.71a10.2,10.2,0,0,1-5.36-3.69c-.71-.93-1.36.17-1.86.65-.91.86-2,1.87-3.07.87-4.6-4.48-12-5.28-15-12-.81-1.79-3.09-3.17-5-4.17-6-3.14-10.45-8.29-16-11.73-3.42-2.14-5.44-6-9.63-7.09C66.79,80.82,66.8,79.88,68.48,77Z" transform="translate(-53.35 -50.07)"/></svg>