<svg id="Layer_1" data-name="Layer 1" xmlns="http://www.w3.org/2000/svg" viewBox="0 0 212.69 160.1"><path d="M107.76,113.46a23.4,23.4,0,0,0,2.34,8,71.84,71.84,0,0,1,4,12.24c1,4.42,2.91,8.48,4.55,12.66s4.72,7.13,7.83,10.06c5.55,5.24,11.26,10.31,16.81,15.54,2,1.89,3.55,4.12,3.51,7.09,0,1.16-.31,2.14-1.69,2-2-.13-4.09-.36-6.13-.64-.62-.09-1.65-.36-1.74-.74-1.2-4.93-6.87-5.72-9-10.12-2.22-4.62-6.88-7.55-10.81-10.81a114.78,114.78,0,0,1-9.56-9.41,10.77,10.77,0,0,1-2.46-5.27c-1.11-4.84-2.57-9.55-5.43-13.73-.89-1.31-1.32-1.59-2.87-.71-5.85,3.34-9.87,8.54-14.09,13.5-1.84,2.17-1.72,5.26-1.92,8-.28,4-.46,8-.68,12-.07,1.16-.29,2.44-1.35,2.93-2.39,1.1-3,3.31-3.55,5.43-1,3.83-3.87,5.55-7.25,6.75-1,.36-2-1-1.94-2.74.09-2.33.27-4.66.5-7,.25-2.5.32-5.12,3.77-5.6,1.15-.16,1.29-1.48,1.58-2.46,1.64-5.58,1.54-11.3,1.06-17a48.5,48.5,0,0,1,.39-8.36c.29-3.46,2.93-5.51,5.12-7.79,1.74-1.83,3.62-3.53,5.35-5.37,2.49-2.66,2.3-5.68-.41-8-.28-.24-.73-.42-.82-.72-2-6.29-7.3-10.83-9.32-17.12S71.73,83.8,75,77.82c1.63-3,1.18-2.94-2.13-3.74a35.52,35.52,0,0,0-11.21-.75c-1.59.12-3.45-1.59-5-2.75-2-1.53-4.12-1.32-6.14-.72C40.17,73,30.88,78.28,22.11,84.59a17.8,17.8,0,0,1-1.61,1.12c-.9.52-1.87,1.12-2.75,0a1.87,1.87,0,0,1,.4-2.74c2.71-2.46,3.13-6.27,6-9.26-1.11.14-1.54.22-2,.24-.7,0-1.62.46-1.87-.6-.18-.79.58-1.15,1.17-1.36a5.92,5.92,0,0,0,3.4-3.51C26.19,65.68,29,63.91,30.23,61a3.82,3.82,0,0,0-.61-.29c-1-.29-2.72,1.34-3.08-.42s1.55-2.3,2.88-2.42a14.91,14.91,0,0,0,10.74-5.68c2.11-2.54,6-2.45,9.18-2.77,5.42-.55,11.23-1.5,15.77,2.66,3.81,3.5,8.16,6.41,10.88,11.16,2.58,4.5,6.88,5.34,11.54,3.28A35.94,35.94,0,0,1,113,65.19c5.81,1.7,11.42,4.24,17.67,4.18a12.52,12.52,0,0,0,6.66-1.84c2-1.21,3.77-2.77,6.14-2.93.16-1.19-.61-1.32-1.14-1.59-1.77-.89-3.06-2.09-3.08-4.25a2.24,2.24,0,0,0-.3-1.34c-1.75-1.94-1.18-3.18,1.27-3.79-.89-1.46-2.62-1-3.42-2.16-.49-.7-1.16-1.35-.69-2.26s1.26-.65,2-.51c1.35.26,3,1,3.74-.66a3,3,0,0,0-1.34-4.11c-.46-.28-.92-.78-.57-1.4s1.24,0,2-.48c-1.19-.67-2.3-1.27-3.38-1.91-.75-.44-1.51-1-1.18-2s1.33-.76,2.15-.55a10.82,10.82,0,0,1,1.63.42c3.45,1.5,6.87,3.14,10.66,1a31.08,31.08,0,0,0-3.37-.74c-1.2-.15-2.43,0-3.64-.12-.95-.07-2.28.44-2.58-1s.93-1.84,2-2.35a13.6,13.6,0,0,1,6.78-1.46c3,.1,6,.53,8.46-1.93-.82-1-2.23,0-3.52-.46.63-1.85,1.79-2.57,3.53-2.3,4.38.69,8.77,0,13.15.24.55,0,1.27,0,1.39-.68.15-.91-.75-1-1.32-1.12a17.36,17.36,0,0,0-5-.69c-.67,0-1.36-.18-1.36-1.06,0-.72.61-.85,1.15-1,4.19-1.11,8.35-2,12.59-.07,2.67,1.21,5.4,2.59,8.42.88a1.64,1.64,0,0,1,.83-.15c3.52.21,6.82.15,9.11-3.36.75-1.16,2.09-.55,2.29,1,.16,1.26.17,2.55.25,4,1.16-.91,2.07-1.68,3-2.39.66-.49,1.35-1.22,2.24-.53.67.52.59,1.29.39,2.06a40.49,40.49,0,0,1-1.47,6c-1.5,3.57-.59,6.56,1.75,9.28a8.23,8.23,0,0,1,2,5.87c0,3.75,2.55,6.61,4.83,9.21a63.2,63.2,0,0,1,6.52,9.09c2.07,3.45-.14,6.48-1.66,9.42-1.3,2.51-3.74,3.27-6.4,3.26a3.44,3.44,0,0,1-3-1.82c-3.07-5.18-8.43-7.41-13.27-10.3-1-.62-2.2-1-3.26-1.62-2.31-1.29-4.6-.66-5.29,1.87a57.35,57.35,0,0,1-4.57,12,6.41,6.41,0,0,0-.25,4.67,103.66,103.66,0,0,0,3.36,10.66,22.2,22.2,0,0,1,1,11.62,19.31,19.31,0,0,0,2.53,13.17A8.31,8.31,0,0,0,192,121c3.73,2.56,6.23,5.72,4.76,10.62a2.76,2.76,0,0,0,.9,2.79c5.34,5.81,8.38,13.3,13.79,19,4.46,4.71,7.91,10.49,13.95,13.58,2.24,1.15,3.2,3.37,4.31,5.38.76,1.39-.17,2.44-1.47,3.16a8.24,8.24,0,0,1-11.4-3.72c-.5-1-.42-3.53-2.8-1.52-.64.54-1.13-.35-1.44-.91a22.82,22.82,0,0,1-2-3.71c-1.57-4.67-4.77-8.19-7.92-11.77-1.93-2.19-3.74-3-7-1.86-3.86,1.32-6.89,4.07-10.78,5.13-1.55.42-3.16,1.23-4.54.13s-.65-2.78-.51-4.24c.1-.93.23-1.86.35-2.78.09-.76.27-1.91.88-1.93,2.66-.06,4.74-2.46,7.39-1.92,2.34.48,2.56-.81,2.65-2.43a4.36,4.36,0,0,0-.78-2.92c-3.19-4.27-6.35-8.56-9.6-12.77-1.74-2.25-4.51-1.5-6.81-1.85-4.42-.67-9.21,0-13.3-1.49-7.19-2.58-14-.31-20.93.19a38.09,38.09,0,0,1-23.56-5.58A87.69,87.69,0,0,1,107.76,113.46Z" transform="translate(-17.31 -21.02)"/></svg>