<?xml version="1.0" encoding="UTF-8"?><svg id="Layer_2" xmlns="http://www.w3.org/2000/svg" viewBox="0 0 134.56 65.23"><defs><style>.cls-1{fill:none;stroke:#000;stroke-linecap:round;stroke-linejoin:round;stroke-width:2px;}</style></defs><g id="Layer_1-2"><g><path d="M49.29,64.03c-.88,1.56-1.84,1.25-2.84,.99-11.66-2.98-23.57-3.9-35.54-4.29-2.55-.08-4.98-.57-7.25-1.62-4.37-2.01-4.95-7.23-1.07-10.11,2.85-2.12,6.19-3.19,9.7-3.71,6.76-1,13.27-2.75,19.63-5.4,4.22-1.76,7.34-4.45,10.02-7.91,2.04-2.63,4.06-5.28,5.93-8.03,3.48-5.09,8.08-8.71,13.69-11.26,5.73-2.61,11.53-2.93,17.52-1.31,3.05,.82,6.08,1.73,9.14,2.49,2.29,.57,4.6,.83,6.48-.8,.76-1.14,.2-2.06,0-3.02-.73-3.65,.5-6.86,3.11-8.19,2.33-1.18,5.04-.54,7.68,1.91,.85,.79,1.58,1.71,2.36,2.57,.74,.81,.81,2.26,2.61,2.43,1.04-2.83,3.05-5.2,4.65-7.84,4.38,2.94,4.88,5.11,2.82,11.96,.75,1.44,2.3,1.81,3.56,2.58,4.62,2.8,8.58,6.3,11.56,10.84,2.33,3.55,2.06,4.33-1.29,6.85-2.39,1.8-4.95,2.62-7.89,2.56-2.33-.05-4.66,.01-6.99,.03-1.54,.01-3.36,.13-4.02,1.53-2.25,4.73-5.27,9.22-5.44,13.87,.68,2.75,3.04,2.61,3.72,4.3-.07,1.39-1.47,1.57-2.24,2.37-1.47-.06-2.59-1.54-4.13-.99-1.89-2.23-3.47-4.54-3.66-7.25-1.47-1.14-2.71-1.05-3.97-.43q-.77,4.07,3.56,6.76-.92,2.34-7.78,2.27c-.62-5.69-5.34-6.66-9.75-8.21-4.29-1.51-12.35-1.84-16.98-.32-.2,1.32,.36,2.22,1.59,2.7,1.87,.72,3.8,1.1,5.83,1.21,2.44,.13,4.93,.41,6.66,2.45-.49,1.51-1.48,1.34-2.5,1.16-.98-.17-2.02-.6-2.94-.42-5.39,1.05-9.89-1.78-14.7-3.25-.78-.24-1.72-.6-2.15-1.21-2.55-3.62-6.6-4.03-10.35-5.19-3.2-.99-6.07-2.67-8.12-5.15-1.51-.42-2.48,.34-3.51,.84-6.79,3.3-13.88,5.41-21.46,6.07-3.87,.34-7.91,.94-10.88,4.16,.62,2.92,2.81,3.69,5.1,4.23,3.91,.93,7.88,1.17,11.89,1.04,8.37-.28,16.6,.64,24.6,3.22,1.98,.64,2.02,.66,4.06,2.54Z"/><path class="cls-1" d="M39.38,39c-6.25,2.56-12.3,5.66-19,7.01-3.82,.77-7.77,.72-11.5,1.99-2.13,.73-4.37,1.24-6.01,2.99-1.36,1.46-1.37,3.41,0,5.01,1.58,1.84,3.63,2.82,6,2.98,6.16,.41,12.31,.98,18.5,1.1,7.01,.13,13.82,1.79,20.5,3.92"/><path class="cls-1" d="M63.38,51.75c2.36,2.32,5.32,3.27,8.5,3.19,2.83-.06,5.42,.61,8,1.56"/><path class="cls-1" d="M104.63,51.5c.99,3.28,1.58,3.66,6.25,4"/><path class="cls-1" d="M115.38,1c1.18,2.17,.12,4.33-.06,6.6l1.56-.35"/></g></g></svg>