<svg id="Layer_1" data-name="Layer 1" xmlns="http://www.w3.org/2000/svg" viewBox="0 0 119.93 170.76"><path d="M62.13,160.11l.24-1.24a3.42,3.42,0,0,1,.71-1.56,1,1,0,0,1,1.18-.35,9.52,9.52,0,0,1,.94.34,2.57,2.57,0,0,0,2.07.06,5.43,5.43,0,0,1,2.83-.06,14.11,14.11,0,0,1,2.15.43,2,2,0,0,0,2-.47c1.55-1.34,3-2.82,4.38-4.29a83.32,83.32,0,0,0,6.11-7.4,24.48,24.48,0,0,1,9.2-7.5c1.09-.5,2.14-1.09,3.2-1.64a12.31,12.31,0,0,0,6.53-8.26c.57-2.21,1-4.45,1.57-6.68a44.7,44.7,0,0,1,3.16-8.76,15,15,0,0,0,1.4-4.42.3.3,0,0,1,0-.13,3.74,3.74,0,0,0-.36-4,1.31,1.31,0,0,1-.17-1.22,5,5,0,0,0,.1-3,14.68,14.68,0,0,1-.23-3.49,2.46,2.46,0,0,0-.06-.66c0,.51-.06,1-.12,1.54s-.19.88-.71.93a1.08,1.08,0,0,1-1.2-.75c-.15-.5-.22-.67-.74-.28a1,1,0,0,1-1.52-.66.79.79,0,0,0-.82-.7,1.05,1.05,0,0,1-1-.8,11.19,11.19,0,0,1-.58-6,9.82,9.82,0,0,0-.31-5.51c-1-3.23-2.17-6.44-3.05-9.72a40.68,40.68,0,0,1-1-6.38,17.64,17.64,0,0,0-.61-3.47,3.83,3.83,0,0,1,.67-3.58,36.35,36.35,0,0,1,4.26-4.68c3.71-3.6,7.18-7.45,10.79-11.16A11.28,11.28,0,0,1,116.63,42a4.17,4.17,0,0,0,.46-.26c1.13-.7,1.21-1.37.26-2.33a2.25,2.25,0,0,1-.46-.79c-.18-.41-.45-.52-.84-.23a7,7,0,0,0-2,2,8.13,8.13,0,0,1-1.35,1.73c-.18.19-.37.45-.67.37s-.27-.42-.32-.68a1.51,1.51,0,0,1,.19-1.4c1.32-1.47,2.32-3.21,3.86-4.49a5.64,5.64,0,0,0,1.21-1.23c.14-.22.36-.47.15-.72s-.5-.07-.74,0-.31.17-.47.24-.35.16-.5,0,0-.32.08-.47c.27-.54.1-.83-.5-.86a1.14,1.14,0,0,0-.46.06,31.2,31.2,0,0,1-3.54.92c-.22.07-.55.27-.67,0s.2-.5.43-.65a25.25,25.25,0,0,1,3.53-1.86c.73-.33,1.47-.64,2.17-1s.89-.74.49-1.54a.82.82,0,0,1-.1-.24,6.89,6.89,0,0,1,1.94-5.89,1.09,1.09,0,0,1,.63-.36,11.37,11.37,0,0,0,2.47-.95,1.25,1.25,0,0,0,.61-.5c.19-.28.39-.55.56-.83a9.52,9.52,0,0,1,7.41-4.83,1.78,1.78,0,0,0,.38-.1h5.73c1.78.41,3.07,1.65,4.47,2.68a3.47,3.47,0,0,1,1,1.93c.11.33-.16.54-.38.71a.68.68,0,0,0-.22,1A7.47,7.47,0,0,1,142.3,26a1.91,1.91,0,0,0,.54,1.64c.4.45.77.93,1.12,1.41.49.67.49,1.11-.16,1.62a1.39,1.39,0,0,0-.55,1.79c0,.06.07.14.05.19-.32.69-.16,1.49-.45,2.16a2.06,2.06,0,0,0-.21,1.33,1.21,1.21,0,0,1-.88,1.62,7.81,7.81,0,0,1-3.23.69,1.71,1.71,0,0,0-1.71,1,10.59,10.59,0,0,0-1,4,5.83,5.83,0,0,1-.06.73A2.73,2.73,0,0,0,137,47.31a30.33,30.33,0,0,0,2.75,1.88,4.66,4.66,0,0,1,1.93,2.39,16.54,16.54,0,0,1,1,5.2,8.61,8.61,0,0,0,.37,2.36,13.47,13.47,0,0,1,.55,2.67,6.53,6.53,0,0,1-1,4.32,6.7,6.7,0,0,0-.63,1.22,4.45,4.45,0,0,0,1.52-1.26,21.6,21.6,0,0,0,2.07-2.69,4.53,4.53,0,0,0,1-3A2.49,2.49,0,0,1,146.9,59c1-2.11,2.09-4.22,3.16-6.32a5.92,5.92,0,0,1,.68-1,.66.66,0,0,1,.75-.3c.32.11.39.39.42.7a3.26,3.26,0,0,1-.38,1.86,8.47,8.47,0,0,0-.8,1.83,1,1,0,0,0,.14,1c.3.28.63.09.94,0a9.22,9.22,0,0,0,3.85-2.67c.52-.57,1-1.17,1.55-1.74.28-.29.6-.59,1-.32s.32.7.17,1.07a1.9,1.9,0,0,0-.19,1.72.72.72,0,0,1-.06.51,1.23,1.23,0,0,0,.19,1.42c.29.31.09.66-.08,1A12.83,12.83,0,0,1,156.36,61c-.05.05-.05.15-.08.24a1,1,0,0,0,.6-.11.63.63,0,0,1,.8.29c.18.3,0,.51-.21.69a9.83,9.83,0,0,1-3.32,2.2,14.59,14.59,0,0,0-6.88,5c-2.56,3.28-5.17,6.51-7.87,9.67a2.44,2.44,0,0,0-.58,1.39q-.49,4.42-1,8.87a1.76,1.76,0,0,0,.07.79c.46,1.36.93,2.73,1.4,4.09a2.62,2.62,0,0,0,1.41,1.44c5.74,3,11.35,6.18,16.92,9.47a20,20,0,0,1,6.24,5.53,16.82,16.82,0,0,0,1.67,1.9,5.12,5.12,0,0,1,1.23,5.37,12,12,0,0,0-.48,3.48c0,1.8,0,3.6,0,5.4a63.84,63.84,0,0,1-.44,7c-.24,3.18-.6,6.36-1,9.53a52.29,52.29,0,0,0-.12,10.24,1,1,0,0,0,.63.93,2.24,2.24,0,0,1,.89.69,1.76,1.76,0,0,0,2.46.51c.36-.17.67-.51,1.2-.42-.31.56-.85.78-1.22,1.17-.63.65-.54,1.16.34,1.43a5.59,5.59,0,0,0,1.79.48c.11,0,.22,0,.25.25l-1.14.16c-.17,0-.39,0-.43.24s.12.33.24.45a1,1,0,0,0,.26.21c1.3.65,2.36,1.76,3.89,2a.76.76,0,0,1,.31.11c1,.75,2.21.51,3.34.42.64,0,1.29-.09,1.93-.08a2.42,2.42,0,0,1,1.53,4.42,13.38,13.38,0,0,1-6.86,2.52c-3.63.42-7.3.62-10.93,1a38.9,38.9,0,0,1-5.38.36,9.31,9.31,0,0,1-2.17-.3c-1.15-.3-1.45-.83-1.17-2a.64.64,0,0,1,0-.07,3.64,3.64,0,0,0,.07-2.86,4.86,4.86,0,0,1,.19-3.33,5.1,5.1,0,0,0,.28-1.5,1.29,1.29,0,0,1,.7-1.2,1.11,1.11,0,0,0,.62-1.09,46.55,46.55,0,0,0-.07-7.92c-.19-1.7-.11-3.42-.39-5.11-.36-2.22-.85-4.41-1.18-6.63a33,33,0,0,1-.27-8.49c.19-1.75.22-3.51.32-5.26.06-1,.07-2,.17-3.06a1.28,1.28,0,0,0-.84-1.41,16,16,0,0,0-4.34-1.48c-3.31-.65-6.55-1.63-9.85-2.36-3-.66-6-1.61-8.93-2.43-1.61-.44-1.34-.44-2,.85-2.3,4.24-4.4,8.58-6.78,12.78a68.06,68.06,0,0,1-5.07,7.35c-1.35,1.79-2.75,3.55-4,5.37a9.13,9.13,0,0,1-4.62,3.34,32.15,32.15,0,0,0-9.31,5A110.71,110.71,0,0,1,88.25,156a41.31,41.31,0,0,0-8.34,7.2c-.81.82-1.55,1.71-2.34,2.55-.37.39-.45.67,0,1.09.81.72.74,1.25-.11,1.89a9,9,0,0,1-1.5.87.58.58,0,0,0-.38.79,1.34,1.34,0,0,1-.88,1.81c-1,.39-1.85.87-2,2.05,0,.2-.24.37-.34.57-.38.69-1,1.3-.85,2.18a.8.8,0,0,1-.23.54,4.69,4.69,0,0,0-.83,2.76c0,1.09,0,2.18,0,3.27a2.14,2.14,0,0,1-3.71,1.62,8.2,8.2,0,0,1-1.8-2.94,24.87,24.87,0,0,1-1.84-9c0-2.49-.43-5-.61-7.43-.06-.92-.18-1.82-.31-2.73v-.8a.77.77,0,0,0,0-.8Zm43.75-95.67a92.5,92.5,0,0,1,.59,9.42,23.77,23.77,0,0,0,.72,4.87,39.72,39.72,0,0,1,1.45,6.83,3.71,3.71,0,0,0,1,2.31c.94,1,1.84,2,2.75,3.08.3.34.52.3.69-.1a46.38,46.38,0,0,1,4.28-7.66,6.41,6.41,0,0,0,1.3-3A28.77,28.77,0,0,0,118.5,74a24.51,24.51,0,0,0-1.2-4.5A51.58,51.58,0,0,1,116,63.06c-.31-1.56-.6-3.13-.89-4.71-.1-.59-.36-.63-.8-.29-.22.18-.46.35-.69.52a55.12,55.12,0,0,1-6.86,4.35C106.07,63.27,105.7,63.66,105.88,64.44Z" transform="translate(-62.13 -15.13)"/><path d="M111.71,43.13a.29.29,0,0,1-.32.26.22.22,0,0,1-.24-.25.3.3,0,0,1,.32-.26C111.63,42.87,111.7,43,111.71,43.13Z" transform="translate(-62.13 -15.13)"/></svg>