<svg id="Layer_1" data-name="Layer 1" xmlns="http://www.w3.org/2000/svg" viewBox="0 0 224.17 130.09"><path d="M193.76,166.63a6.87,6.87,0,0,0-1.7-4.14c-1-1.35-1.78-2.63-3.8-.68-1.81,1.74-4.33,1.65-6.74.36-10.88-5.85-22.1-10.82-34.34-13.19-2.64-.51-3.9-2.17-4.19-5.06-1.13-11.24-5.49-21.54-9.88-31.79-1.47-3.42-4.25-5.53-7.79-6.82-11-4-21.74-8.52-30.39-16.85-2.54-2.45-5.67-2.08-8.58.4-3.48,3-6.78,6.14-10.44,8.86-11.14,8.28-23.67,11.77-37.36,8.86C26,103.91,19.17,94.84,15,83.42c-.5-1.34-.77-2.93,1-3.54s2.11,1,2.75,2c1.6,2.59,3.1,5.25,4.79,7.77a24.18,24.18,0,0,0,36,5.06C65.8,89.39,71.1,83.06,76.33,76.68,82.2,69.51,88,62.26,94,55.24c7.26-8.44,16-14.92,27-17.57,13.06-3.14,24.64.42,35,8.5A64.34,64.34,0,0,1,171.1,62.65c2.69,4.28,6.32,6,11.52,6.74,5.57.78,9.78-.67,14.07-3.54,1.46-1,3.22-1.53,4.73-2.45s4.63-1,4.37-2.94c-.28-2.12-3-.47-4.62-1-5.87-2.07-9.88-6.54-14-10.84-.94-1,.17-1.58,1.19-1.48,6.11.61,12.66-.11,17.23,5.42a2.35,2.35,0,0,0,1.24.84c11.84,1.73,20.89,9.95,31.91,13.58v2.28a6.74,6.74,0,0,0-1.11,1.48c-1.07,3-2.47,4.84-6.12,3.19-1.8-.82-3.7.14-5.45,1-2.26,1.12-4.63,2.83-7.15,2.09-3.87-1.13-6.05.87-8.11,3.39a26.83,26.83,0,0,1-10.4,8.07A10.91,10.91,0,0,0,195,93.62c-2.85,5.55-7.55,8-13.52,8.42a13.54,13.54,0,0,0-12,8c-1.5,3.07-2.84,6.22-4.36,9.28s-4.59,2.08-6.68,1.42-1.5-3.21-1.22-5.08c.12-.78.83-1.56,1.6-.81,3.57,3.5,2.91-.51,3.44-2,1.23-3.36-1.84-6.23-1.2-9.62.42-2.17-.68-3.08-2.9-2.4a12.81,12.81,0,0,1-7.13,0c-3-.81-4.86.68-5.95,3.34-1.33,3.28-.51,6.52.4,9.68,2.24,7.78,4.84,15.47,6.84,23.31a12.32,12.32,0,0,0,8.25,9.1c7.48,2.8,14.91,5.7,23,6.41,7.15.63,10,5.1,11,13.93Z" transform="translate(-14.6 -36.54)"/></svg>