<svg id="Layer_1" data-name="Layer 1" xmlns="http://www.w3.org/2000/svg" viewBox="0 0 222.61 102.11"><path d="M165.1,117.9c-21.76,2.28-43,.09-64.16-2.15-14.59-1.54-28.52.67-42.23,5.23-4.51,1.5-9.06,2.59-13.82,2.12a4.76,4.76,0,0,0-3.35,1.06,27.75,27.75,0,0,0-9.79,10.67c-1.23,2.46-2.85,4.36-6.33,4.41,1-4.82-3.9-6.75-5-10.75-.73-2.66-1.89-5.57-5.06-6.76a1.81,1.81,0,0,1-1.1-2.15c.41-1.33,1.7-1.15,2.65-1,5.19,1,10.44.54,15.65.86,2.77.17,4.43-.43,5.75-3.16,2.4-5,6.51-8.54,11.15-11.5A219.2,219.2,0,0,1,97.57,82c5-1.68,9.83-3.56,14.94-4.82,6-1.47,10.36-4.78,11.6-11.32a29.82,29.82,0,0,1,2.3-6.37c2.75-6.19,4.15-12.54,2.77-19.31a3,3,0,0,1,.54-3.07c3.08.27,4.76,2.5,6.21,4.89a42.14,42.14,0,0,1,4.67,12.12,103,103,0,0,0,2.87,10c2.11,5.94,6.2,8.86,12.51,9.37a364.32,364.32,0,0,1,36.3,5.12c10.65,2,21,5.32,31.7,7,6.14.94,9.69,5.09,12.48,10.19a2.4,2.4,0,0,1-.28,2.8c-1.61,2.65-4.4,3.38-7,4.23-8.13,2.66-16.28,5.25-24.5,7.65-3.86,1.12-6.33,2.74-8.1,6.92-3,7.1-8.59,12.7-14.74,17.38-4.77,3.63-9.18,3.23-13.4-.18a8.35,8.35,0,0,1-3.33-6.77C165.08,124.73,165.1,121.62,165.1,117.9Z" transform="translate(-14.19 -37.14)"/></svg>