<svg id="Layer_1" data-name="Layer 1" xmlns="http://www.w3.org/2000/svg" viewBox="0 0 140.08 81.86"><path d="M188.32,127.27c-1.24,1.16.58,2.86-1,3.3a2.69,2.69,0,0,1-3.11-2c-2-8.41-8.57-10-15.68-11.56a63.5,63.5,0,0,1-14.15-4.74c-5.25-2.52-10.59-2.6-13.24,4-.79,2-2.56,3.48-3.62,5.36-.6,1-3,2.39.28,3.61,1.45.53,0,1.43-.81,1.91-3.7,2.09-12.92-.62-15.38-4.7a58.87,58.87,0,0,1-3.69-7.31c-6.1-14.16-24.11-18-35.92-8.09-4.78,4-10.6,6.84-16.11,9.91-2.37,1.32-4,2.51-4,5.56,0,2.74-1.76,4.33-4.69,3.64s-3.27-2.42-2.62-5.26c1.65-7.29,6-12.62,11.37-17.43,6.71-6,12.32-13,15.18-21.57,3.34-10,11.11-14,20.12-17.08,11.07-3.8,22.21-3.08,33.32-.73a47.08,47.08,0,0,0,9.86.79c3.17,0,7.76,1.42,5.05-5.24-1.49-3.63,4.42-8.28,8.12-6.52,2.52,1.2,3.55,1.2,4.87-1.35,2-3.86,5.43-3.94,7.38-.54,3.8,6.61,10.14,10.57,14.93,16,5.68,6.43,4.28,13.33-2.5,15.07a112.75,112.75,0,0,1-13.29,3c-7.88,1-8.62,2.76-3.52,9.06A96.18,96.18,0,0,0,190.29,116c4,2.45,5.42,7.13,2.82,11.06C191.3,129.77,191.3,129.77,188.32,127.27Z" transform="translate(-54.35 -48.78)"/></svg>