<svg id="Layer_1" data-name="Layer 1" xmlns="http://www.w3.org/2000/svg" viewBox="0 0 203.02 55.84"><path d="M132,140c-3.52,2.23-7.56,1.63-11.35,2a84.82,84.82,0,0,1-10.45-.1,25.32,25.32,0,0,0-7,.43,8.77,8.77,0,0,1-4.92-.15c-4.19-1.29-5.5-3.53-3.71-7.49,1.68-3.68,1-7.9,3.81-12.27-12.07,2.36-23.81,2-33,10.69-5.15,4.91-11.74,4.7-17.85,2.46a63.25,63.25,0,0,1-17.84-9.85c-3.95-3.17-4.56-5-3-9.19.3.06.79,0,.89.2,5.2,8.86,14.54,10.47,23.22,13a6.54,6.54,0,0,0,8.27-3.88c1-2.1,2.59-3.87,3.75-5.89,3.4-5.88,8.87-9.23,14.63-12.32,8.22-4.43,17.47-5,26.27-7.32,9.08-2.33,18.38-2.55,27.73-2.38,8,.15,15.95-.37,23.93-.64a4.37,4.37,0,0,0,2.38-.55c8.15-6.12,17.09-5.34,26.17-3a88.58,88.58,0,0,1,13.56,4.92c2.81,1.23,5.37,2.62,6.64,5.62.7,1.65,2.31,2.33,3.67,3.26,1.9,1.29,3.31,2.9,2.65,5.39-.57,2.16-2.47,3.34-5.64,3-4.17-.44-7.74,1.25-12.46,2.34,5.81,2.5,11.11,3.37,15.92,5.71a14.35,14.35,0,0,1,3.24,2,15.1,15.1,0,0,0,11.49,3.85c.5,0,1-.33,1.47-.25,1.58.3,3.76,0,4.31,1.89.67,2.29-1.84,2.34-3.1,3.12a51.29,51.29,0,0,1-8.58,3.95,5.79,5.79,0,0,1-6.43-1c-6-5-12.73-7.93-20.87-7.75-5.76.12-11.72.35-17.25-2-1.85-.78-3.27,0-4.71.75-6.54,3.23-13.15,6.26-20.33,7.82-1.65.36-1.92,2.72-.28,3.87a11.32,11.32,0,0,0,4.47,1.74,6.75,6.75,0,0,1,3.17,1.25c1.74,1.4,1.6,3-.51,3.7a17.53,17.53,0,0,1-7.85.87c-1.31-.19-2.62-.43-3.94-.51-3.9-.21-6.59-1.95-6.86-5.68-.3-4.14-2.09-6.35-6-7.15a7.83,7.83,0,0,1-3-1.66c-1.38-1.06-2.45-.39-3.49.61-1.38,1.32-1.15,2.9.65,3.35a16.78,16.78,0,0,0,4,.27A3.76,3.76,0,0,1,132,140Z" transform="translate(-25.95 -92)"/></svg>