<svg id="Layer_1" data-name="Layer 1" xmlns="http://www.w3.org/2000/svg" viewBox="0 0 137.08 116.64"><path d="M164.06,91.55c1.51,2.6,2.7,4.61,5.68,5.94a21.86,21.86,0,0,1,10.35,9.71c2.45,4.56,1.36,7.16-3.76,8.35-6.43,1.49-12.9,3.18-19-1.33a16.08,16.08,0,0,0-4.53-1.93c-5.3-1.77-7.62-.11-6.83,5.31,1.77,12-5.53,21.28-17.17,28.49A196.26,196.26,0,0,1,92,164.24c-4.45,1.59-9,2-13.54,2.76-1.58.25-3.89.89-4.73-1.53-.75-2.18-.58-4.27,1.42-5.87,5-4,9.67-8.69,15.17-11.88,6.36-3.68,10.42-9.22,14.51-14.77,5-6.84,10.14-13.41,18.56-16.47-3.48-3.38-8-2-11.86-3.44-5.73-2.2-9.38-6.75-13.82-10.54-5.62-4.8-7.47-12.08-13-16.86-2.94-2.56-5.94-4.36-9.54-4.52-6.92-.31-13.86-.64-20.6,2.08-3.21,1.3-7.91,3.78-10,.72-1.19-1.75,1.9-6.74,4.25-9.63a27.26,27.26,0,0,0,4.58-6.85c1.55-3.74,5.83-3.87,9.48-4a16.63,16.63,0,0,1,4.43.7c1.89.45,4,1.76,5.4-.49A5.82,5.82,0,0,0,72.5,57c-1.23-1.75-2.28-3.89-1-5.41s3.85-.93,5.65-.38c8.73,2.66,17.79,2.14,26.67,2.59,17.37.89,33.35,6.18,48.88,13.41A10.67,10.67,0,0,1,158.52,73c1,2.85,2.4,3.37,5.24,2.1a50.19,50.19,0,0,1,9.55-2.81c5.22-1.14,6.08.12,4.95,5.48-1.42,6.73-4.53,11.58-11.82,12.74A11.52,11.52,0,0,0,164.06,91.55Z" transform="translate(-44.27 -50.63)"/></svg>