<svg id="Layer_1" data-name="Layer 1" xmlns="http://www.w3.org/2000/svg" viewBox="0 0 188.95 140.97"><path d="M110.12,161.61a13.11,13.11,0,0,1-3.36-.57c-2.63-1-5.41-2-1.26-5,2-1.43,2-3.15-.91-3.95a81.1,81.1,0,0,1-23.65-10.28c-3.75-2.46-4.25-5.37-.9-8.59.76-.73,1.78-.87.17-1.92-5-3.29-5.14-6.23-.2-10.25,3.19-2.6,3.31-4.12-.59-6.26a127.75,127.75,0,0,1-12.84-8.72,6.86,6.86,0,0,1-2.85-5.95c.38-5.52-3-8.15-7.27-9.84A46.45,46.45,0,0,1,38.35,77.19C32.91,71,33.49,57,38.94,50.85c4.49-5,9.9-8.34,15.58-11.76,6.7-4,7.3-6.18,2.28-11.71-1.55-1.71-2.48-3.45-.68-5.4s4.07-1.57,5.82,0c2.24,2,4.68,4,6.12,6.57,5.9,10.46,1.49,15.71-8,19-8.19,2.82-12.21,6.64-12.55,14-.35,7.87,4.92,15.81,11.89,18.39a23.62,23.62,0,0,0,18.86-.76c13-5.91,26.52-5.25,40.1-2.79,8.61,1.55,17.12,3.71,25.75,5,12.76,1.94,25.43,2.13,36.71-5.7,2.9-2,7.65-1.56,8.64-6.27,0-.19.78-.4,1.15-.34,7.33,1.24,15.14-.59,22,3.66,3.44,2.14,7.06,3.92,6.52,8.93a4.65,4.65,0,0,0,1.54,3.47c1.32,1.47,4,2.28,2.29,5.19-2.22,3.82-4.66,7.1-9.76,6.87-2.46-.12-4.79-3-7-1.41-6.82,5.1-16.37,6.49-20.26,15.63-3.49,8.21-8.85,14.31-19.09,13.26-1.79-.18-4.3-.19-5.18,1.83s.83,3.66,2.06,5.36c2,2.79,4.05,6,2.57,9.6-1.37,3.39-4.69,4.13-8,4.64a109.2,109.2,0,0,1-17.13,1.26c-1.38,0-3-.25-3.38,1.67-.72,3.53-3.43,5.25-6.34,6.34C124.86,157.81,118.63,161.67,110.12,161.61Zm-10.4-25.29c-.73.25-2.32-1-2.63,1a3.76,3.76,0,0,0,2.74,4.54c6.31,2.17,12.62,4.39,19,6.46,4,1.3,8.68-1.22,9-5.38a70.22,70.22,0,0,1,4.09-20.76c.36-1,.22-1.82-.89-2-6-1-10.82-4.67-16-7.45-2.31-1.24-2.56-.33-2.55,1.42,0,4.09-1.33,7.2-5.18,9.26-2,1-2.86,3.65-2.81,5.56,0,1.47,2.77.94,4.29,1.34,5.59,1.48,11.15,3,13.34,9.28.49,1.38,1.71,2.7-1.26,3.38a11.29,11.29,0,0,1-10.19-2.52A16.47,16.47,0,0,0,99.72,136.32Zm45.6,4.13c2.21-.36,4.76-.74,7.29-1.23.75-.15,2-.26,1.39-1.55a14.34,14.34,0,0,0-6.77-6.61c-1.56-.69-2.08,2.91-3.28,4.42-.33.41-.47,1-.82,1.38-.76.86-2.13,1.66-1.45,2.9S143.85,140.15,145.32,140.45Z" transform="translate(-34.55 -20.64)"/></svg>