<svg id="Layer_1" data-name="Layer 1" xmlns="http://www.w3.org/2000/svg" viewBox="0 0 197.25 112.34"><path d="M230.21,83.8c-2,3.79-4.33,7.37-8.2,10.06-1.41-.08-2.57-2.94-5.14-.15-1.66,3.05,4.18,3.54,3.23,7.5-1.47,1.83-3.9,4.07-5.29,7.29,2.92,3.39-.36,7.34-.05,11a7.91,7.91,0,0,1-7.1,2.53c-5.47,6.1-10.95,12.4-19.66,14.24-2.77-3.09-2.18-5.82.43-8.29-3-3.48-5.29-7.14-9.83-8.94-6.22.33-10.79,6-17.35,6-1.71,4.89-1.4,9.52-.94,14.14.48,4.94-.23,9.52-3.57,13.44a8.88,8.88,0,0,0-1.61,2.48c-2.11,5.46-6.31,8-12.7,7.24-2.51-5.83,2.9-7.65,5.73-10.73a7,7,0,0,0-.69-7c.88-1.1,2.27-.28,3.47-1.14-1.16-3.68-2.86-7.24-3.37-11.95-9.08,4.83-16.9,10-21.88,18.76,5.62,2,5.62,2,8,5.3-5,6.17-11.51.35-17.23,2.32-3.43-4.14-4.11-9.82-8-13.56a45.89,45.89,0,0,0-13-8.74c-1.09,2,1.31,3.14.44,4.79-3.21,3.91-3.44,9.18-5.49,13.11-1.58,1.64-3.08,1.43-4.41,1.32-2.76-1.28-1.53-6,3-11.81-3.65-6.37-11.12-8.54-16-13.72,1.57-7.78,10.18-11,12.18-19C75.16,108.21,74,98.73,69.74,92.24a26.4,26.4,0,0,0-8.91.34C50.67,94.69,42.36,91,35.9,83.46c-4-4.7-3.25-10.69-1.53-16.19,1-3.19,2-6.18,1.76-9.62-.2-3.7,2.09-6.22,6-7.44,2.16,2.78,1.25,5.55-.17,8.24a45.53,45.53,0,0,0-3.61,8.72c-1.24,4.25-2.07,8.42.27,13.16,2,2.35,5.23,4.18,8.33,6.09a10.31,10.31,0,0,0,7.2,1.5c6.09-1.08,11.92-2.67,16.77-7,3.07-2.75,6-5.74,9.76-7.69,5.74-3,11.95-2.79,18-2.67,9.48.18,18.93,1.33,28.43,1.51a51.33,51.33,0,0,1,15.73,2.38c5.57,1.9,10.37.59,15.54-2.12-.86-1.66-3.52-2-2.88-4.79,8.71.72,16.08-3.81,23.9-6.83,1.07-.41.9-1.64,1.22-2.61,3,0,6.14.35,8-2.15,3.06-.58,5.1,1.16,7,1.9,1.45,0,1.26-1.31,2.56-1.77l9,2.05c3.16,2.31,4.91,4.82,5.61,8.06.17.78.49,1.85,1.07,2.17,5.56,3.06,7.38,10.24,13.74,12.41A4.12,4.12,0,0,1,230.21,83.8Zm-98.79,37.13c-5.41-5.91-11.61-9.2-18.76-11.35a94.83,94.83,0,0,0-4.16,19.63c3,4.85,6.06,9.69,9.34,15C122.87,136.75,127.68,129.33,131.42,120.93ZM93.67,134.31c-.75-3.07,1.57-6.18-.18-9.59-1.57,1-3.47,1.15-4.48,3A19.61,19.61,0,0,0,93.67,134.31ZM217.52,99.07c.31-1.74-.71-2.26-2.6-2.95C215.4,97.8,215.29,99.11,217.52,99.07Z" transform="translate(-32.96 -50.21)"/></svg>