<svg id="Layer_1" data-name="Layer 1" xmlns="http://www.w3.org/2000/svg" viewBox="0 0 183.88 106.71"><path d="M87.73,154.19c-1.56-3.4.59-5.72,1.66-8.22,1.5-3.49-.15-8.89-3.21-9.73-.89-.24-2.48-.87-2.38.66.32,5.09-3,.15-4.11,1.55-.2.25-1.18-.69-1.16-1.52a1.86,1.86,0,0,1,1.28-2c9.2-3.93,11.74-9.1,7.5-17.34-3.65-7.09-6.77-14.9-14.65-18.82-1.76-.87-1.31-2.42-1.22-3.85.86-13-7.86-26.17-20.35-30.35-2.42-.81-4-1.92-4.92-4.42-2.05-5.66-6.11-9.09-12.66-9.92,4.75-3.94,9.79-2.91,14.44-1.57C66,53.89,81,64.54,95.21,76.3c1.18,1,2.71,2,1.08,3.84a1.55,1.55,0,0,0-.06,1.29c3.94,11,8.26,21.75,17.72,29.4.09.08.29,0,.43,0,2.69-7,5-7.54,10.54-2,2.22,2.2,3.27,2.24,4.64-.55.68-1.39,1.71-3.36,3.55-2.68s1,2.73.67,4.28c-.48,2.54-.39,5.13,1.66,6.91,2.24,2,4.53.31,6.59-.69,10.31-5,20.59-10,30.65-15.55,2.71-1.49,6.32-1.36,9.54-1.86,8.6-1.35,17.22-2.57,26-2.13a19,19,0,0,1,9.19,2.57,40.59,40.59,0,0,0-16.78,5.76,8.31,8.31,0,0,1-4.68.89c-11.46-.23-22.24,2-31.7,8.9-2.6,1.9-5.89,1.78-8.81,2.75-9.22,3-17.66,8.1-27.22,10.22-4.91,1.08-9.42,3.26-14,5.3-5.7,2.55-7.34,5.9-5.32,11.76.26.76.62,1.65-.14,1.88a10.84,10.84,0,0,1-4.23.39c-.66-.08-.59-1.17-.16-1.9,2.6-4.32-1.43-3-2.68-2.67C95.15,143.93,89.11,146.25,87.73,154.19Z" transform="translate(-33.51 -47.48)"/></svg>