<?xml version="1.0" encoding="UTF-8"?><svg id="Layer_2" xmlns="http://www.w3.org/2000/svg" viewBox="0 0 203.24 127.81"><g id="Layer_1-2"><path d="M97.02,97.14c-4.47,8.17-9.99,15.68-15.14,23.42-3.83,5.76-8.76,8.09-15.75,6.92-12.01-2.02-23.76-4.67-32-14.52-6.13-7.31-10.96-15.48-10.99-25.52-.01-4.71,1.68-8.83,5.12-12.08,2.29-2.16,4.79-4.11,7.52-6.42-1.66-.53-3.15-1.03-4.66-1.49-6.6-2.03-10.6-5.9-11.72-13.24-1.66-10.83-5.85-20.81-13.13-29.27C3.39,21.6,1.51,17.72,.45,13.44-1.6,5.08,3.51-.89,12.09,.11c14.99,1.75,28.67,7.11,41.31,15.32,14.58,9.47,26.17,22.1,37.43,35.09,1.4,1.61,2.73,3.28,4.15,4.99,2.66-4.59,1.27-8.31-1.77-11.78-4.17-4.76-8.45-9.42-12.44-14.33-2.91-3.59-2.4-5.14,2.06-7.05-1.15,5.18,2.07,8.12,5.28,10.98,4.02,3.58,7.34,7.71,10.26,12.2,2.17,3.34,4.24,3.23,6.39-.05,3.31-5.04,7.33-9.46,11.72-13.59,2.63-2.48,5.44-5.1,3.22-10.24,4.69,1.96,5.41,4.17,3.28,7.01-1.89,2.52-4.13,4.78-6.2,7.17-2.18,2.51-4.38,5.01-6.51,7.57-2.98,3.58-5.23,7.35-2.04,12.66,4.41-6.65,10.06-12.15,15.37-17.96C140,20.09,159.15,6.5,183.45,1.34c2.6-.55,5.24-1.03,7.89-1.27,8.57-.76,13.61,5.3,11.37,13.61-1.14,4.24-3.06,8.11-5.93,11.45-6.46,7.52-10.9,16.27-12.2,25.91-1.43,10.63-6.9,16.09-17.81,17.61,2.1,1.59,3.66,2.71,5.15,3.92,9.01,7.26,10.68,17.46,5.22,27.72-4.12,7.74-8.73,14.78-16.27,19.69-8.44,5.5-18.09,6.51-27.61,7.76-5.04,.66-8.72-2.5-11.55-6.62-5.73-8.36-11.67-16.58-17.02-25.47,.3,4.87,.61,9.75,.91,14.62,.11,1.83,.44,3.67,.26,5.47-.29,2.96-.47,6.99-4.16,6.95-3.23-.03-4.39-3.95-4.57-6.78-.4-6.13-.12-12.3-.12-18.76Z"/></g></svg>