<svg id="Layer_1" data-name="Layer 1" xmlns="http://www.w3.org/2000/svg" viewBox="0 0 175.26 151.21"><path d="M76.82,119.48l-8.15,6.17a43.36,43.36,0,0,1-6.86,4.13,17.59,17.59,0,0,0-8.7,8.74c-1.54,3.45-3.27,6.81-4.83,10.24a44.5,44.5,0,0,0-2.67,10A6.44,6.44,0,0,0,47.12,164c1.08,1.4,2.23,2.75,3.3,4.16s1,1.73-.72,2.2a12.94,12.94,0,0,1-7-.35,1.48,1.48,0,0,1-.94-.82,7.78,7.78,0,0,1-1-3.83c0-1.6-.26-2-1.74-2.48-1.08-.37-1.25-1.24-1.19-2.19a18.72,18.72,0,0,1,1.07-4.21c1-3.33,2.75-6.35,3.81-9.65,2-6.22,3.88-12.46,4.67-19a3.86,3.86,0,0,1,3-3.59c2.15-.7,3.87-2.36,5.63-3.81a44.5,44.5,0,0,0,4-3.64A13.82,13.82,0,0,0,63.12,112a63.67,63.67,0,0,0,3.43-12.49,33.57,33.57,0,0,0,.25-5.4,87.24,87.24,0,0,1,0-9.43c0-.38,0-.65-.41-.84-1.51-.63-1.79-1.37-1.08-2.89a11.49,11.49,0,0,1,3.24-4A26.57,26.57,0,0,1,84.14,71.3c3-.19,6-.28,9.07-.4,6.48-.25,12.85.79,19.23,1.68a35.19,35.19,0,0,0,8.58.25,4.68,4.68,0,0,0,3.31-2c1.57-1.94,3.38-3.72,5.87-4.37,5.4-1.4,10.87-2.41,16.37-.63a38,38,0,0,0,7.21,1.7,44.91,44.91,0,0,0,10.93-.11c1.24-.16,2.5-.26,3.75-.34.68,0,.84-.28.72-1A14.41,14.41,0,0,0,167.5,62a2.31,2.31,0,0,0-1.43-1,35.54,35.54,0,0,1-6.54-3.24c-2.31-1.51-3.55-4-5.25-6-1.5-1.81-2.83-3.76-4.36-5.55-2-2.4-4.87-3.65-7.73-4.79a33.09,33.09,0,0,0-3.77-1.34c-.35-.09-.86,0-.9-.57a1,1,0,0,1,.8-1,7,7,0,0,1,3.61-.16c1.62.23,3.24.58,4.86.86.7.13,1.44.32,1.82-.56a1.9,1.9,0,0,0-.46-2.26c-.67-.66-1.38-1.28-2.07-1.92a10.15,10.15,0,0,1-2.12-2.8,4,4,0,0,1-.56-1.78,1.37,1.37,0,0,1,.86-1.42c.58-.25,1,.19,1.25.61a12.38,12.38,0,0,0,4,3.89c.51.28,1,.73,1.63.39s.5-1.12.44-1.72a46,46,0,0,1-.47-5.63c0-.67,0-1.47.68-1.75s1.28.46,1.7,1a7.28,7.28,0,0,1,1.32,3.37,6.58,6.58,0,0,0,1.21,3,1.93,1.93,0,0,0,1.72.86c.78-.1.7-.85.78-1.41a56.87,56.87,0,0,1,.87-5.93c.21-.82.39-1.64,1.54-1.54s1.35,1,1.38,1.85c.06,2.2.06,4.41,0,6.61a7.72,7.72,0,0,0,1.2,4.36,25.14,25.14,0,0,0,3.15,4.25,5.6,5.6,0,0,0,2.76,1.5c.78.2,1.15,0,.84-.89a35.7,35.7,0,0,0-2.35-5,7.75,7.75,0,0,1-1.25-4.11c0-.74,0-1.5,1-1.66s1,.57,1.27,1.15a13.12,13.12,0,0,0,3,4.24c-.57-1.54-1-2.78-1.5-4a21.16,21.16,0,0,1-1.22-5c-.08-.65-.29-1.47.6-1.68a1.66,1.66,0,0,1,2.09.88,9,9,0,0,1,.58,1.91,27.87,27.87,0,0,0,1.76,5.61,25.16,25.16,0,0,1,1.38,7.25c.11.93.05,1.9.9,2.58s1.63.63,2.19-.41a5.25,5.25,0,0,0,.36-4,20,20,0,0,0-1.55-4,5.46,5.46,0,0,1-.64-3.19,1.6,1.6,0,0,1,1-1.45c.66-.19,1,.35,1.23.87,1,2.61,2.46,5,3.63,7.54a8.15,8.15,0,0,1,.47,6.19,2.68,2.68,0,0,0-.15,2c.55-.21.58-.69.74-1.06A17.12,17.12,0,0,1,186,42a6.44,6.44,0,0,0,1.16-5.36,14.38,14.38,0,0,1-.35-2.92,3.61,3.61,0,0,1,.39-1.71,1.25,1.25,0,0,1,1.25-.73c.57.06.79.48.87,1,.21,1.36.34,2.73.59,4.08a16.92,16.92,0,0,1-.37,9,46.83,46.83,0,0,0-2.22,7,17.08,17.08,0,0,0-.33,2.56c0,.55.16,1.16.82,1.28s.81-.41,1-.83A39.92,39.92,0,0,0,192.47,44a10.41,10.41,0,0,1,1.6-4.27c.34-.53.78-.92,1.46-.68a1.11,1.11,0,0,1,.79,1.31c-.7,3.15,0,6.35-.35,9.51a11.86,11.86,0,0,1-1,3.52A50.68,50.68,0,0,0,191.93,65c-.4,2.25.23,2.86,2.57,2.81a8.12,8.12,0,0,0,7.6-6.08,10.36,10.36,0,0,1,.71-2.12c.46-.92,1.15-.89,1.65,0a3.62,3.62,0,0,1,.39,1.59c0,.36-.2.93.31,1s.67-.52.8-1a33.53,33.53,0,0,0,1.15-5.53,11,11,0,0,1,.26-1.39c.11-.43.3-.86.82-.89s.77.34.93.76a11.45,11.45,0,0,1,.35,5.36c0,.47-.17.93-.24,1.39,0,.26-.17.59.18.72s.52-.16.69-.36a6.5,6.5,0,0,0,.92-2.52c.11-.35,0-.87.53-.93s.79.32,1,.71a6.09,6.09,0,0,1,.46,3.57,10.33,10.33,0,0,1-1.55,4,26.7,26.7,0,0,1-3.66,5.33,10.37,10.37,0,0,1-6.08,3.26,42.8,42.8,0,0,1-12.07,0,24.53,24.53,0,0,0,5.71,4.3A39.27,39.27,0,0,1,202,83.37a8.79,8.79,0,0,1,2.81,4,32.24,32.24,0,0,1,1.77,10.41,4.23,4.23,0,0,1-6.31,3.68,3.64,3.64,0,0,0-2.12-.44,4,4,0,0,1-3.45-1.73,12.39,12.39,0,0,1-1.67-3c-.92-2.21-2.41-2.55-4.08-.85-2,2-4.26,3.86-5.76,6.37a3.56,3.56,0,0,1-1.22,1.09c-2.2,1.42-2.85,3.57-2.7,6a2,2,0,0,1-.68,1.84c-1.17,1.1-2.22,2.33-3.36,3.47-.76.76-1.1.67-1.3-.37-.31-1.58-.83-3.11-1.29-4.65a6.55,6.55,0,0,1,1-5.51,2.78,2.78,0,0,0,.06-3.27,7.34,7.34,0,0,1-1.25-2.91c-.07-.57-.4-.59-.84-.46a37.23,37.23,0,0,0-8.13,3.12,4.34,4.34,0,0,0-2.39,4.49,17.92,17.92,0,0,1-.6,7.69,4.89,4.89,0,0,0,.75,4.67c1.84,2.55,3.44,5.26,5.17,7.88a88,88,0,0,0,6.69,8.23,13.57,13.57,0,0,1,3,5.11c.71,2.47,2.37,4.5,3.7,6.67,1.94,3.18,3.54,6.56,5.87,9.51s4.9,6,7.1,9.24c1,1.39,2,2.74,2.92,4.14.68,1,.53,1.45-.62,1.6a23.17,23.17,0,0,1-10.44-1.25,1.06,1.06,0,0,1-.69-.76,8,8,0,0,1-.47-1.69,2.54,2.54,0,0,0-2.51-2.67c-1.55-.21-2-1.44-2.37-2.75A50.79,50.79,0,0,0,170,142.63a88.8,88.8,0,0,0-9.43-10.37c-4.93-4.86-9.73-9.85-13.23-15.9-.69-1.18-1.21-.38-1.53.14-.79,1.27-1.48,2.6-2.15,3.93-2,3.94-3.51,8.08-5.84,11.84a7.36,7.36,0,0,0-.94,3.12,15.12,15.12,0,0,1-2.39,6.86c-2.74,4-4.37,8.51-6.18,12.95a74.1,74.1,0,0,0-3.27,8.71,2.5,2.5,0,0,0,.35,2.22c1,1.49,2.17,2.89,3,4.49s.62,2.09-1.08,2.44a17.26,17.26,0,0,1-8-.31c-1.79-.49-2.11-1-2-2.86,0-.55.1-1.1.12-1.64a1.34,1.34,0,0,0-1.06-1.5c-1-.27-1.11-.89-.89-1.81a7,7,0,0,1,1.38-2.3c4.76-7,8.48-14.47,9.91-23,.82-4.82,2.78-9.33,4.52-13.88a27.45,27.45,0,0,0,2-8.69c.07-1.5,0-1.59-1.52-1.22-2.78.68-5.54,1.48-8.33,2.15a42.27,42.27,0,0,1-25.14-1.58,19.22,19.22,0,0,1-4.3-2.21c-.74-.51-1-.34-1.33.44A87.2,87.2,0,0,1,84,131.3a10.71,10.71,0,0,0-1.36,9.46c1.88,6,3.59,12.14,5.94,18,.63,1.57,1.34,3.1,2,4.64A4.91,4.91,0,0,0,92,165.17c.78.65,1.45,1.44,2.16,2.16a1.44,1.44,0,0,1,.36,1.67c-.55,1.7.62,2.91,1.54,4.11.73.95.74,1.13-.41,1.41a9.68,9.68,0,0,1-7.09-.9A2.88,2.88,0,0,1,87.3,171a1.57,1.57,0,0,0-1.16-1.59A2.92,2.92,0,0,1,84,166.64a74.22,74.22,0,0,0-3.5-13.2,64.78,64.78,0,0,0-7.73-16.37,5.49,5.49,0,0,1,.24-7,20.78,20.78,0,0,0,3.79-9.78C76.78,120.06,76.79,119.86,76.82,119.48Z" transform="translate(-37.82 -23.62)"/></svg>