<svg id="Layer_1" data-name="Layer 1" xmlns="http://www.w3.org/2000/svg" viewBox="0 0 179.08 109.51"><path d="M114.05,103.1c-1.07,2.27-2.34,3-2.15,5,.24,2.46-1.89,4.31-4.2,5.4-1.17.56-2.42,1.44-1.13,2.46,3.85,3,6,7.68,10.41,10.17a19,19,0,0,0,10.6,2.89c3.44-.19,6.89.08,10.33-.05s3.88-1,2.45-3.86c-1.19-2.4-3.16-4.76-.9-7.5,1.66-2,5.17-2,8.77-.13a13.27,13.27,0,0,0,6.1,1.94c10.6-.1,21.23.69,31.8-.8a5.62,5.62,0,0,0,3.9-2.24c2.64-3.25,8.57-3.65,10.41-.1,2.46,4.77,7.06,6.55,10.65,9.69,4.59,4,4,9.35-1.75,11.69A43.35,43.35,0,0,1,191.68,141c-8.33-.3-16.19,1.92-24.25,3.08-1.78.25-3.62.8-4.5,3.14,3.95.08,7.65-.14,11.2,1.09,2,.69,4-.6,6-.27.85.14,1.84.14,2.14,1.11a1.68,1.68,0,0,1-1.24,2c-2.44,1-3.44,2.58-3.1,5.33.2,1.62-1.22,2.55-2.82,2.64a37.25,37.25,0,0,1-5.59,0c-3.64-.35-6.75-2.73-10.62-2.64a5,5,0,0,1-4.17-2.75c-1.51-3.12-4.05-3.15-6.92-2.8a158.49,158.49,0,0,1-29.22.35c-6-.38-12.1-2-16.56-7.14-1.86-2.14-4.71-3.42-7.83-5.59.83,3.15,2.85,4.26,4,6,2,2.82,1.06,9.15-1.75,10.92-1.55,1-3,.35-4.36-.69-5.44-4.29-9.68-9.38-10.75-16.51a9.42,9.42,0,0,0-7.08-8.27c-4.74-1.47-9.21-3.44-14.42-3.58-6.08-.15-11.82-2.67-17-5.78-4.35-2.62-6.52-7.16-7-12.27-.19-2,0-4-.63-6a3,3,0,0,1,.25-2.49C45.32,84.1,59.15,75.84,78,75.36c12-.32,24-.53,35.91,1.14,4.68.66,9.09,2.64,13.93,2.56,3.47-.06,6.89,0,10-1.87a4.13,4.13,0,0,1,2-.62c8.18,0,14.54-4.83,21.51-8,3.42-1.57,3.64-4.7.32-6.5-4.39-2.38-8.92-4.63-14.19-4.49-3.72.09-7.46,0-11.19,0a14.7,14.7,0,0,1-4.66-.68c-1.46-.49-2.62-1.25-2.63-3,0-2,1.27-2.77,3-3.11,10.54-2.11,20.78-1.41,30.53,3.46,2.43,1.21,4.85,2.47,7.22,3.81,3.22,1.82,4.84,5,5.78,8.27.81,2.82,0,5.49-2.63,7.62-4.56,3.75-9.94,5.69-15.39,7.37-10.14,3.12-20.38,6.2-31.06,6.31s-21.32-1.24-32-1.83C80.21,85,66.27,86.8,55.23,98c-4.1,4.15-1.67,9.55,2.65,10.83a23.09,23.09,0,0,0,6.76,1.14c3.44,0,6.91-.18,10.33.1,4.67.39,8.26-.32,10.35-5.35,1.1-2.65,3.62-4.76,5.67-7,1.82-1.92,5.21-1.16,6.2,1.8,1.08,3.2,3.08,3.67,5.88,3.58C106.47,103,109.88,103.1,114.05,103.1Z" transform="translate(-35.07 -49.65)"/></svg>