<svg id="Layer_1" data-name="Layer 1" xmlns="http://www.w3.org/2000/svg" viewBox="0 0 156.68 50.36"><path d="M124.58,108.22c-2.16-1.08-4-2.29-5.86-.15-.92,1-1.83.42-2.75-.11-.74-.43-1.43-.9-2.39-.18-3.64,2.73-7.85,2.75-12.1,2.27-1.58-.17-3.1,1.76-3.28,1.61-3.58-2.92-7,3.8-10.43.16-.52-.56-1.07.05-1.49.43-1.31,1.21-2.54,2.76-4.29.52a1.22,1.22,0,0,0-1.1-.08c-3.57,1.68-7.11,1.35-11,.94-1.71-.19-4.15.87-6.37,1.17-1.5.2-2.51,1.4-3.62-.52a1.32,1.32,0,0,0-1.22,0c-5,6.33-13,1.68-18.81,5-.78.44-2,1.51-3.53.12,5.91-5.18,11.71-10.08,18.68-14.1,6.54-3.76,13.45-5.09,20.26-7.11C85.89,95.11,95.74,90,106.57,87.63c11.12-2.46,21.35-7.67,31.7-12.16,14.25-6.17,24.92-1,35.28,8,6.16,5.36,10.35,12.38,16,18.2,1.77,1.83,2.59,4.76,3.36,7.33s-.77,3.29-3,2.34c-2.67-1.15-5.11-2.78-7.73-4.08s-4.34-1-6.84.58c3.15,1.35,3.57,3.08,1.38,5.42s-5.65,3.26-7.39,2.22c-12-7.14-13.84-7.69-26.66-5.74-2.23.34-2.84,1.06-2.22,3.06s.47,3.45-1.25,4.71c-1.91,1.4-3.25-.1-4.81-.77-1-.44-1.86-2.13-3.38-.55-1.28,1.32-.38,2.08.43,2.92s.43,1.71-.21,2.31c-2.47,2.32-5.54,1.88-8.36,1.16-2.46-.62-3.08-2.92-3-5.31S121,112.8,124.58,108.22Z" transform="translate(-36.39 -72.77)"/></svg>