<svg id="Layer_1" data-name="Layer 1" xmlns="http://www.w3.org/2000/svg" viewBox="0 0 148.27 113.59"><path d="M62.31,60.63c.65-1.54,3.06-.23,3.65-2.56H55.17c2.39-2.09,5.29-.2,6.91-2.46-2.21-1.07-5,.52-7.37-2C59.77,52,64.43,55,69.34,53.49c-3.11-2.2-7.07-3-10.45-7.14,5.94,2.42,10.76,4.15,15.35,6.34a32.71,32.71,0,0,0,14.48,3c7.22-.06,14.24,1,21.3,2.21a9.28,9.28,0,0,1,6.9,4.34c5.92,9.51,14.45,16.44,23.07,23.28,2.83,2.25,6.52,2.42,9.6,4.08,1.47.79,1.74-.12,2.23-1.47,2.43-6.75,8.33-9.86,15-7.42,9.6,3.53,19.59,5.16,29.6,6.78,1.44.23,3.46.11,3.49,2,0,2.67-2.3,1.17-3.44,1.3a103.46,103.46,0,0,1-21.9.52c-2.39-.24-4.06,0-4.22,3.21s-3,5-5.82,7.61c6.28,3.14,12,7.17,18.31,8.94,14.23,4,15.91,15.67,18.43,27.14.21,1-.19,2.24.3,3,3.94,5.75-1.19,9.87-2.8,14.42-1.07,3-1.72-.75-2.63-1.11-1.73,1.61-.1,5.85-3,5.38-2.53-.41-1-4-1.42-6.18a19,19,0,0,1-.1-1.95c-1.9,2.55-.88,6.21-4.16,8-1.37-2.61-.43-5.31-.86-7.75-1.71-.08-1.1,2.85-3,2.07-1.29-.54-1.32-2.15-1.11-3.06,1.14-5-3-7.58-5.25-10.62-7.34-9.73-17.69-15.64-28.35-21.13-6.65-3.43-12.94-3-19.46-.06a8.35,8.35,0,0,1-3.88.8c-7-.57-13.45,1.19-20,3.31-5.13,1.66-11.71-4.43-10.72-9.68.44-2.34,2.5-2.45,4.2-2.87,4.33-1,8.89-1.34,12.22-5,1.48-1.62,2.75-2.48.31-4.59a9.3,9.3,0,0,1-3-5.25,8.48,8.48,0,0,0-5.26-6.11C98.31,87.78,95,83.14,92,78.93,85.23,69.56,76.05,64.71,65.2,62.26,64.07,62,62.88,61.9,62.31,60.63Z" transform="translate(-54.71 -46.35)"/></svg>