<svg id="Layer_1" data-name="Layer 1" xmlns="http://www.w3.org/2000/svg" viewBox="0 0 177.24 62.49"><path d="M34.71,104.12c-.36-2.5,1.18-3.31,2.33-3.92,6.73-3.59,13.52-6.91,21.52-6.52,3.28.15,5.69,1.76,8,3.65,1.65,1.37,1.49,4.7-.22,6.7-2.46,2.9-5,5.68-8.87,6.9-2.09.66-4.35,1.31-6.18,3.92a34.35,34.35,0,0,0,12.47-5.18c9.25-5.77,19.78-7.22,29.81-10.35a12.92,12.92,0,0,0,2.73-.8c7.88-4.68,17-6.14,25.25-10.06,7.86-3.74,16.63-4.87,25.16-6.46a301.7,301.7,0,0,1,30.24-4.25c2.7-.22,5.4-.27,7.91,1,5.14,2.71,11,3.2,16.31,5.6,2.14,1,4,1.91,5.23,4.12A7,7,0,0,0,209.9,91c2.4.92,2,2.74,1.91,4.56,0,.8-.5,1.32-1.26,1.25-5.28-.46-10.41,1-15.68,1.06-4.47.06-8.2-1.34-12-3.27-6.1-3.13-12.27-3.7-18.84-.57,1.48,1.47,1.82,2.89.72,4.72s-.78,4.26-.46,6.38c.4,2.69.83,5.23.08,8s1.24,3.8,3.64,4.38,4.7,1.33,4.83,5.18c-2.51-2-4.62-2.55-7.33-1.47-2.23.88-7.56-2.79-8.62-5.64-1.59-4.31-3.48-8.55-4.21-13.13-.3-1.89-1.25-2.45-2.76-1.48-7.31,4.68-15.74,5.68-23.94,7.45-5.46,1.17-9.51,3.86-10.58,9.79-.26,1.47-1.33,2.07-2.64,2.75-3,1.56-5.24,3.9-5.52,7.53-.14,1.86.64,3.2,2.58,2.37,3.16-1.37,4.12,1.77,6.14,2.67.43.19.61,1.51.47,2.22s-1.15.61-1.76.63c-1.21.05-2.42-.11-4-.21.73,1.44,2.49,1.5,2.74,2.91-1.36,1.69-2.95.85-4.43.27s-3-1.21-4.55-1.72c-2.06-.68-3.88-1-5.74.43a2.91,2.91,0,0,1-3.83,0c4.84-5.86,4-12.87,3.85-19.66-.06-3.14-2.42-5-5.78-5.07-8.94-.3-17.64.79-25.65,5.12A82.52,82.52,0,0,1,48,125.79c-3.74.93-5.48-1.14-7.2-3.07-1.57-1.76-1.12-4.3.11-6.48,1.4-2.47,3.62-4,6-5.41,4.74-2.9,9.45-5.84,14.17-8.77.35-.21.67-.46,1-.68,1.15-.74,2.62-1.58,2.25-3.07-.47-1.85-2.4-1.5-3.81-1.5C51.38,96.85,42.58,98,34.71,104.12Z" transform="translate(-34.66 -77.63)"/></svg>