<?xml version="1.0" encoding="UTF-8"?><svg id="Layer_2" xmlns="http://www.w3.org/2000/svg" viewBox="0 0 222.46 96.76"><defs><style>.cls-1{fill:none;stroke:#000;stroke-linecap:round;stroke-linejoin:round;stroke-width:2px;}</style></defs><g id="Layer_1-2"><g><path d="M180.57,83.71c-7.43-6.67-16.42-6.57-24.9-7.87-5.81-.89-11.39-2.26-16.8-4.49-5.84-2.41-11.49-5.4-17.83-6.32-6.25-.91-12.52-1.85-18.82-2.26-9.01-.59-17.75-2.54-26.5-4.53-1.46-.33-2.91-.72-4.36-1.1-5.04-1.31-9.8-1.16-14.09,2.34-2.75,2.25-6.21,3.16-9.45,4.46-2.62,1.05-4.07,2.72-3.92,5.66,.1,1.83-.04,3.66,.01,5.49,.11,4.27,1.44,7.81,5.64,9.77,1.16,.54,2.42,1.18,2.82,3.04-2.04,.98-4.34,1.26-6.56,1.43-3.59,.26-6.44-1.6-7.69-5.16-1.37-3.91-2.64-7.88-3.17-12.04-.59-4.57-4.49-7.27-8.98-6.1-3.38,.88-6.68,2.17-9.6,4.13-6.09,4.11-6.44,10.49-6.21,16.92,.11,2.95,.82,5.87,1.39,9.68-4-1.97-7.37-3.48-10.59-5.28-1.32-.74-.97-2.38-.81-3.69,1.32-10.29,3.86-19.99,13.02-26.42,.82-.57,1.57-1.24,2.39-1.81,6.16-4.27,9.12-10.12,9.85-17.62,.52-5.33,.72-10.62,.62-15.93-.08-3.78-.84-4.24-5.32-3.95,3.21-3.66,6.2-7.15,9.29-10.56,2.2-2.44,5.02-3.9,8.27-4.24,11.6-1.21,22.9-4.22,34.46-5.6,1.16-.14,2.31-.42,3.47-.42,11.32,0,22.61-1.77,33.92-1.09,7.48,.45,14.96,.62,22.42,1.08,2.77,.17,5.55,1.09,8.22,1.97,7.11,2.35,14.22,4.73,21.23,7.36,4.05,1.52,8.14,1.5,12.3,1.34,1.89-.07,3.54-.86,5.02-2.01,.66-.51,1.27-1.08,1.94-1.57,1.59-1.17,3.15-2.84,5.34-1.99,2.52,.99,2.15,3.47,2.32,5.59,.03,.33,.08,.68,.01,1-1.88,9.42,4.33,14.06,11.07,18.03,5.92,3.48,12.44,5.5,19.39,5.86,.66,.03,1.32,.18,1.95,.35,.3,.08,.55,.34,.83,.52,1.35,5.96-2.47,11.95-8.99,13.75-2.55,.7-5.23,1.19-7.87,1.29-9.12,.33-18.19,.53-27.36-.25-7.09-.61-14.69-.73-21.36,3.29-.99,.6-2.26,.9-2.42,2.26-.2,1.71,1.19,2.34,2.38,2.8,4.97,1.9,9.98,3.68,14.98,5.49,5.34,1.93,10.35,4.58,15.36,7.21,1.86,.98,3.82,2.05,4.57,4.18-.65,1.68-2.34,2.08-3.17,3.34-.71,1.09-1.66,1.59-2.98,1.08-1.79-.7-3.2,.28-4.79,1.62Z"/><path class="cls-1" d="M25.96,19.86c-2.26-.1-3.69,1.62-5.5,2.5"/><path class="cls-1" d="M180.46,77.36c.16,2-.41,4.06,.5,6"/></g></g></svg>