<svg xmlns="http://www.w3.org/2000/svg" viewBox="0 0 192.04 110.28"><g id="Layer_2" data-name="Layer 2"><g id="Layer_1-2" data-name="Layer 1"><path d="M75.37,109C70,110.6,65,110.34,60,110.08c-4.15-.23-7.62-4.1-7.82-8.33-.22-4.48-.16-9-.35-13.48-.18-4-.49-8-.87-11.94a25.49,25.49,0,0,0-1-3.82,1.87,1.87,0,0,0-2.53-1.58c-3.43.62-6.95.81-10.33,1.62a24.66,24.66,0,0,1-6.91.75c-3.38-.14-5.67,1.56-7.66,3.93a4.42,4.42,0,0,0-1,4.15c.77,3.4,1.41,6.81,3.22,9.53-.1,1-.59,1.19-1.06,1.15-5.14-.47-10.24-1.07-14.2-4.94A12.22,12.22,0,0,0,6.74,85a9.41,9.41,0,0,1-4.52-5.72C1.82,78,1.28,76.8.77,75.59c-1.28-3-1.09-5.14,1.53-7a9.18,9.18,0,0,0,3.54-5.76,10.55,10.55,0,0,1,5.91-7.55c2.15-1,3.69-2.79,5.63-4,1-.65,1.83-1.56,1.46-2.9-.25-.92-.59-2.18-1.93-1.12s-2.73,1.59-4,.28c-1.4-1.47-3.27-2.52-2.84-5.35C11,36.4,12.85,30.87,13,25a3.9,3.9,0,0,1,1.27-2.63c4.33-4.3,8.52-8.74,13.62-12.21C30.15,8.68,32,6.8,34.44,5.37,39,2.68,43.85,2.19,48.67,1.29,58.9-.6,69.23-.22,79.47,1.21a80.45,80.45,0,0,1,17.2,4.94c5.41,2.06,10.79,4.45,16.22,6.17,5.69,1.8,12.28,3.41,18-1.16a8.86,8.86,0,0,1,5.52-2.07,12,12,0,0,0,2.37-.69c1.8-.4,1.55-3.85,4.05-2.89,1.75.66,3.21,0,4.82-.2,11.18-1.07,21.89.18,31.64,6.38a24.91,24.91,0,0,0,9.73,3.66c2.87.44,3.61,2,2.48,4.65a8.12,8.12,0,0,1-6.74,5.21c-.79.1-1.65-.32-2.57.45,1,1.64,3.25,2.39,3.23,5s.4,3.15-2.32,3.87a67.29,67.29,0,0,1-9.27,1.61,36,36,0,0,1-7.47.25,14.29,14.29,0,0,0-8.86,2.39A118.65,118.65,0,0,1,145.67,45c-4.34,2-7.61,5.41-10.93,8.54a96.26,96.26,0,0,1-17.63,13.61c-4.68,2.71-7.26,6.5-7.29,12.11a17.4,17.4,0,0,1-2.8,8.45c-2.73,4.66-5.06,9.62-9.27,13.32-5.09,4.48-11.08,4.79-17.35,4.21-1.29-.12-1.59-1.13-1.85-2a12.74,12.74,0,0,1,.93-10.15c1.84-3.22,3.41-6.9,8.41-6.35,1.71.18,3-2.15,2.8-4-.12-1-.48-1.93-.69-2.91a1.79,1.79,0,0,0-2.58-1.48,10.61,10.61,0,0,0-7.24,6.28,48.29,48.29,0,0,1-4.3,7.81C72.61,97.49,71.22,103,75.37,109Z"/></g></g></svg>