<svg id="Layer_1" data-name="Layer 1" xmlns="http://www.w3.org/2000/svg" viewBox="0 0 199.59 112.43"><path d="M183.19,112c10.72-.71,16.36,5.46,20.77,13,3.76,6.4,8.18,12.36,11.74,18.9,1.16,2.14,4.5,3.59,7.49,3.5,1.79-.06,3.24.09,4.71,1.86a8.32,8.32,0,0,1-7.35-.1c-7.06-3.25-13-8.35-19.81-11.93-9.5-5-19.21-9.59-28.43-15.11a3.15,3.15,0,0,0-3.69-.07c-9.6,6-20.28,5.51-30.94,5-5-.25-10-.58-14.94-1-4.81-.39-8.14-4-12.3-5.9-2.64-1.18-5.1-1.86-7.58-.42-7.9,4.61-17,6.39-24.77,11.53-11,7.27-21.37,15-28.4,26.36-2.06,3.33-5.24,4.19-8.8,4.19a2.65,2.65,0,0,1-2.9-3.22c.27-1.73.85-3.77,3.56-2.63,3.07,1.29,5.17-.3,6.77-2.64,5.83-8.57,13.59-15.42,20.4-23.11,1.26-1.42,3.56-2.89,2.6-4.92s-3.59-1.18-5.52-1.41c-4.41-.54-7.9,1-11.33,3.92C47.19,134,40.84,141.42,32.3,146.22c-1.2.67-2.18,1.95-3.36.66-1.33-1.46-.25-3.19.4-4.64.76-1.71,1.72-.9,2.61.09a4,4,0,0,0,1.26.65c.31-4.1,5.53-3.53,6.22-5.32,1.88-4.93,6.43-6.89,9.32-10.53,1.23-1.55,3.34-2.61,4.07-4.32,2.35-5.5,6.57-7,12-6.54,2.84.24,5.23-1.8,8.38-1.21,2.06.38,4.53-1.85,4.58-4.45.07-3.9,1-8-1.07-11.71a3,3,0,0,1-.12-3.28C79.39,90.77,88.58,87,94,89c1.61.57,2.85.13,4.28,0,4.43-.49,8.47-1.88,13,1.75,3,2.35,8.27,0,12.49-.45,9.18-1,18-3.86,27.11-5.36,5.5-.92,11.31.2,16.92-.31a31.94,31.94,0,0,0,19.86-9.22c3.25-3.15,5.89-6.42,6.86-11a4.77,4.77,0,0,1,5.23-4c-.36,2.36-2,4.46,0,7L206.4,59c-.19,4.69-3.51,7.47-2.06,11.39,4.73-5.94,8.26-12.13,6-21.07,3.59,2.63,3.16,5.68,4,8.52,1-2.07,2.22-3.66,1.16-5.91,2.91,1,2.69,3.1,2.09,5.14-.55,1.87-1.84,3.83,1.94,2.83,1-.28,3,.14,3.39.88.74,1.23-.55,2.44-1.53,3.34-2.05,1.89-4,4-6.29,5.52-6.77,4.28-5,7.74,0,12.27,2.43,2.22,5.76,3.44,7.87,6.06,1.21,1.49,4.93,2.72,2.74,4.84-1.81,1.74-3.87,5.19-7.86,3.33-4.67-2.18-9.76-1.49-14.74-1.53s-8.3,1.73-10.19,6.35C191.07,105.41,186.43,107.48,183.19,112ZM208,137.24c-3.74-7.07-7.33-14.25-15-18.16a6.6,6.6,0,0,0-5.3-.25c-1.8.59-2.29,1.56-.64,2.66C194.34,126.32,199.91,133.34,208,137.24Z" transform="translate(-28.31 -49.32)"/></svg>