<svg id="Layer_1" data-name="Layer 1" xmlns="http://www.w3.org/2000/svg" viewBox="0 0 203.41 116.46"><path d="M204.76,140.54c-6.79,6.39-15.42,8.79-23.62,12.23-15.67,6.57-32.3,6.9-48.77,8.85-17.45,2.07-34.2.47-51.38-3.57-11.62-2.73-22-7.75-32.27-12.66-11.14-5.31-18.3-15.21-19.49-28.24a73.61,73.61,0,0,1,2.63-27.66c2.91-9.9,7.59-18.64,16.06-25.18C53.43,60.07,58,54.69,65,52.57a110.59,110.59,0,0,1,19.37-4.33c7.58-.87,15.07-2.18,22.81-2.17C119.4,46.09,131,48.8,141,55S160.5,69.05,164.6,81.22c2.32,6.9,6.15,8.61,13.31,8.61,12.29,0,24.66-.42,36.83,1.61,5.78,1,10.76,3.46,11.21,10.68a12.41,12.41,0,0,0,4.46,8.73c3.8,3.11.89,6,.09,8.94-.86,3.18-3.53,3.06-6.11,2.82-8.61-.83-17.27-1.24-25.74-3.25a33,33,0,0,0-10.94-.43c-5.13.52-9.06,3-11.35,7.82-2.42,5.12.87,12.13,6.36,13.34,2,.45,5-.6,4.26,3.5-.19,1,1.45,1.06,2.46.84a21.41,21.41,0,0,0,8.66-3.64C200.18,139.21,202.42,138.26,204.76,140.54Zm-80.68-16.45c-1.69-1.84-.27-4-1.44-5.48-2.66-3.49-4.08-7.6-5.76-11.58a8.07,8.07,0,0,0-6.9-5.09c-3.4-.34-4.83-2.31-5.64-5.33s.17-5.08,2.38-7a21.52,21.52,0,0,1,9.62-5,14.81,14.81,0,0,0,6.33-2.79c4.4-3.74,4.44-6.86.32-10.8-5.27-5-12-6.74-18.8-6.88a171.61,171.61,0,0,0-27.37,1.57C63.54,67.52,53.16,75.3,46.33,86.2c-3.88,6.18-7.83,13-9.34,20.6-1.21,6.14-1.66,12.08,2,17.75,6.43,9.88,15.68,16.2,26.28,20.55,8.89,3.65,18.17,6.33,27.24,9.48,11.13,3.87,22.09,3.83,33.43,3,6-.4,11.89-2.3,17.85-1.18a30.24,30.24,0,0,0,12.37-.52,90.58,90.58,0,0,1,9.67-2c4.65-.51,5.5-3.23,2.64-6.92a6.47,6.47,0,0,1-1.16-2.18c-.51-1.87-1.41-2.89-3.54-2.56s-2.52-1-2.49-2.75a77.33,77.33,0,0,0-.07-8.48,11.46,11.46,0,0,1,2.43-8.37c1-1.39,3.31-2.74,2.4-4.56-1-2-3.68-1.83-5.78-2.11-.82-.11-1.69.07-2.49-.08-12-2.3-18.71-4.79-22.61-17.74-2.23-7.4-3.23-7.73-8.91-2.2a16.09,16.09,0,0,0-1.6,1.9c-1.87,2.5-2.47,4.33,1.33,6,4.13,1.82,4.79,3.93,3.83,7.47-2.71-.06-1.51-4.32-5.06-4.34,1.15,2.73.12,5.84,3.35,7.39a1.51,1.51,0,0,1,.6,2.17C127.3,119.08,126.3,121.9,124.08,124.09Z" transform="translate(-28.91 -46.07)"/></svg>