<svg id="Layer_1" data-name="Layer 1" xmlns="http://www.w3.org/2000/svg" viewBox="0 0 93.03 136.43"><path d="M142.51,75.24c-.11-3.42-.3-6.85-.23-10.28,0-1.71-.24-2-1.86-2.51a1.79,1.79,0,0,1-.86-.45,11,11,0,0,1-2.26-3.63,1,1,0,0,1,.11-1.11c.33-.33.74-.18,1.1,0a7.79,7.79,0,0,1,2.17,1.32c.19.16.35.51.62.38s.17-.54.12-.8a31.22,31.22,0,0,0-2.27-7.38c-.62-1.33-1.22-2.68-1.81-4a6.22,6.22,0,0,1-.51-2c0-.51.06-1,.64-1.19s.93.24,1.1.72c.25.67.42,1.37.63,2.06.44,1.54,1.15,1.81,2.25.69,2.1-2.16,3.62-4.58,2.66-7.81a3.21,3.21,0,0,1-.1-.88c0-.68.06-1.4.88-1.53s1.15.48,1.42,1.11a3.72,3.72,0,0,1,.11,1.93c-.07.65-.15,1.3-.17,1.95,0,.48,0,1.05.61,1.18s1-.27,1.24-.76a11.06,11.06,0,0,0,1-3.56c.29-1.67.52-3.35.78-5a4.91,4.91,0,0,1,.17-.66c.09-.28.17-.61.53-.63s.58.29.69.59a8.76,8.76,0,0,1,.39,3.48c-.07,1.66-.18,3.32-.25,5,0,.31-.12.74.25.87s.55-.28.76-.5a9.17,9.17,0,0,0,2.58-4.1c.08-.36.18-.84.64-.89s.6.44.78.76c1,1.93.89,2.8-.63,4.37-2.33,2.41-5.24,4-8.08,5.66-.59.35-1.17.71-1.78,1-2.59,1.4-3.11,3.76-3,6.42a2.52,2.52,0,0,0,1.09,1.79,6.15,6.15,0,0,1,1.88,1.95c.22.45.68.31,1.06.32a46.25,46.25,0,0,1,6.55.2,3.89,3.89,0,0,1,1.13.27c3.32,1.62,6.87,1.69,10.44,1.69,1.3,0,1.47.27.92,1.45a16.83,16.83,0,0,0-1.38,3.44c-.23,1-1.14,1.47-2,1.89A29.38,29.38,0,0,1,158,69.57c-2.28.67-2.61,1.24-2.76,3.6A32.94,32.94,0,0,0,158,89.11c.85,1.87,1.57,3.8,2.34,5.71a9.7,9.7,0,0,1,.82,3.6c0,1.18.5,1.51,1.67,1.19a24.61,24.61,0,0,0,3.73-1.71A17.57,17.57,0,0,1,176.73,96c2.91.42,3.88,2.68,2.37,5.2a5.9,5.9,0,0,1-.78,1.12c-1.92,1.94-2.15,4.3-1.8,6.83a20.34,20.34,0,0,1,.21,2.34,4.8,4.8,0,0,1-1.16,3.43,35.6,35.6,0,0,1-4.94,4.88c-1.15.89-1.68.92-2.3.25a2,2,0,0,1-.09-3,10.21,10.21,0,0,1,1-1,6,6,0,0,0,2.27-4.47c.16-2.24.49-4.47.52-6.72,0-1.1-.14-1.21-1.09-.62-3.4,2.14-7,4-10.47,6a64.49,64.49,0,0,1-12.53,5c-5.64,1.79-11.48,2.8-17.19,4.3-2.49.66-4.91,1.56-7.33,2.44a8.25,8.25,0,0,0-5.23,5.32,13.91,13.91,0,0,1-6.06,7.32c-.83.52-1.65,1.06-2.47,1.59-2.25,1.46-4.68,2.65-6.68,4.45-3.11,2.79-5.68,6-6.76,10.12a39.9,39.9,0,0,0-.89,7.47,8.34,8.34,0,0,1-2.65,6c-1.37,1.26-2.58,2.69-3.88,4-.35.36-.73.85-1.33.59a1.37,1.37,0,0,1-.72-1.4,7.67,7.67,0,0,1,.27-2.61,2.15,2.15,0,0,1,.84-1.29,5.9,5.9,0,0,0,2.56-3.58,21.16,21.16,0,0,0,.94-8.8,22.56,22.56,0,0,1-.06-4.11,7.65,7.65,0,0,1,2.19-4.39,33.37,33.37,0,0,0,6.06-8.85,14.61,14.61,0,0,0,0-12.35,7.18,7.18,0,0,1-.38-5.21c.73-2.59.24-3.23-2.47-3.58-.91-.12-1.82-.24-2.72-.39a4.37,4.37,0,0,1-3.87-4.92,8.6,8.6,0,0,1,2.28-4.78c.15-.17.31-.41.56-.32s.17.39.19.6c.08.68.14,1.37.22,2A3.21,3.21,0,0,0,95,107.3a26.55,26.55,0,0,0,4.26,2.39,4.65,4.65,0,0,0,3.71-.12,8.37,8.37,0,0,0,2.54-1.44c2-2,4.55-2.54,7.18-3a52.77,52.77,0,0,0,19.68-7.91c5.69-3.63,8.59-9,9.71-15.55A35.6,35.6,0,0,0,142.51,75.24Z" transform="translate(-86.78 -32.33)"/></svg>