<svg id="Layer_1" data-name="Layer 1" xmlns="http://www.w3.org/2000/svg" viewBox="0 0 218.75 138.94"><path d="M198.05,169.87c-2.62-.7-5.26-1.31-7.83-2.15a7.34,7.34,0,0,1-4.07-4c-1.54-3-3.38-2.81-5.44-.55-2.34,2.56-5,4.48-8.94,4.09.53-3.43,5-2.55,6.18-5.83-2.84,1.41-5.16.56-7.62-.53,2.27-3.43,6.79.31,9.28-3.17-5.09-2.63-10.44-4.16-15.73-5.8-5.85-1.81-8-4.74-7.63-10.87a20.34,20.34,0,0,1,.3-2.33c.56-3.2.06-4.8-4-4.1-5.11.89-10.15-.5-14.89-2.49-6.6-2.77-13-1.53-19.5.32-1.65.47-2.55,1.75-3.47,3-3.26,4.4-6.91,8.58-9.63,13.29-3.24,5.63-8.55,6.9-14,7.94-2.66.5-5.45.23-8.08,1.21-1.28.48-2.9.4-3.6-.72-1-1.64,1.26-1,1.61-1.74.83-1.7-1.83-1.12-1.63-2.66,5.09-2.28,10.77-.16,17-1.44-3.9-2.19-4.64-6.33-8.51-7.89,2.63-2,4.46-.74,6.14,1,.8.84,1.33,2,2.17,2.74,2.22,2.07,4.24,2.67,6.35-.47,2.9-4.33,6.08-8.48,9.32-12.56,1.8-2.27,1.21-4.05-1-5-3.07-1.38-1.84-2.52-.14-3.74,2.11-1.51,4.28-2.77,5.51-5.33.86-1.81.33-2.47-.78-3.9C106.65,104.88,93.55,100,82,92.77q-10-6.19-20.16-12C52.94,75.57,46.44,68,39.7,60.42c-3.18-3.57-7-6.84-10.07-10.54C26,45.56,20.52,43,18.4,37.32c-.41-1.12-1.72-1.91-2.62-2.84V31.35c2-1.07,3.57.17,5.14,1,12.94,6.54,25.46,13.78,37,22.6,13.91,10.61,28,21,41.62,32,6.5,5.24,13.33,10.2,22.29,10.41,5.52.13,11-.13,16-2.7C148.67,89.1,160.32,87,172.22,86c6.6-.55,11.44-4.53,12.85-10.86.62-2.76,1.48-5.46,2.34-8.16a7.79,7.79,0,0,1,3.86-4.63c2.41-1.37,5-2.37,7-4.61,2.25-2.48,7.14-1.17,9.05,2a58.84,58.84,0,0,1,5.39,11.71A6,6,0,0,0,218,75.93c4.76.76,9.56,1.53,14,3.49,1,.46,2.68.87,2.46,2.14-.29,1.6-2.1,1.2-3.28,1.19a29.26,29.26,0,0,1-7-.52c-8.42-2.16-15.63,1.36-22.93,4.52-2.1.91-4,2.22-4.14,4.77-1,15.58-10.25,26-21.87,35a17.48,17.48,0,0,1-3.52,2.47c-6.16,2.68-7.86,8.29-9.48,14-.85,3,.07,5.14,3,6.24,5.5,2.05,11,4,16.54,6.08,1.09.4,2.51.64,3.14,1.45,3.78,4.93,9.16,4.9,14.54,5,1.4,0,2.93-.32,3.86,1.23-3.88,2.15-8,1.54-12.79.68C193.22,166.46,197.56,165.88,198.05,169.87Z" transform="translate(-15.78 -30.93)"/></svg>