<svg xmlns="http://www.w3.org/2000/svg" viewBox="0 0 217.26 123"><defs><style>.cls-1{fill:none;stroke:#000;stroke-linecap:round;stroke-linejoin:round;stroke-width:2px;}</style></defs><g id="Layer_2" data-name="Layer 2"><g id="Layer_1-2" data-name="Layer 1"><path d="M113.52,120.3c0-7.2-4.64-5.07-9.46-4.44,4.46-4.23,2.26-5.37-1.12-6.53-3.75-1.29-7.62-2.62-10.65-5.34-3.62-3.24-4.09-9.48-.69-14.15,2.29-3.15,1.66-4.47-1.73-5.57-8.66-2.82-17.23-5.9-25.93-8.57a41.12,41.12,0,0,1-14-8c-3.2-2.63-5.8-4-9.15,0-2.38,2.86-6,5.33-9.69,3.82-6.26-2.56-10.95.34-16,3-2.1,1.09-9.57.78-13.84-.54,3.89-2.55,5.25-6.4,6.53-10.34,1.83-5.61,6.88-8.36,11.06-11.76A6.86,6.86,0,0,1,24.64,51c1.18.29,2.37,2.33,3.42.78s1.63-3.88.4-5.69C23.53,38.83,25.27,31,26.38,23.29c.58-4,3.76-6.46,6.85-8.79C42.91,7.18,54.62,6.36,65.86,3.75a108.45,108.45,0,0,1,12.51-2C85.55.93,93.05,3.57,99.81,2c5.57-1.28,7.52,5.63,12.37,3.23,5.65,6.7,15.19,4.31,21.58,9.25,4.59,3.54,9.13,7.16,13.72,10.7,2.63,2,9,1.55,7.05,6.43-1.43,3.68-6.07.27-9-.4-19.87-4.44-39.81-8.3-60.27-7.35-7.24.34-14.64-.46-21.75,1.83-1.06.35-2.37.19-2.85,2.05,7.83,1.93,15.4,4.82,23.54,5.36,13.7.89,25.86,5.6,37.74,12.63,6.51,3.86,13.88,9.54,23,5.56a6.56,6.56,0,0,1,7,1.71c3.59,3.66,7.56,4.68,12.54,4.07,3.07-.38,6.08,1.5,9.08,2,10,1.76,19.88,1.17,28.65-4.6,4.67-3.08,9-1.73,13.22.21,2.94,1.35,2,4,.08,5.75-2.07,1.93-4.76,4.07-7.37,3.81-7.23-.7-10.77,4.86-15.49,8.29-1.54,1.12-2.19,1.79-4,.68a7,7,0,0,0-6.72-.32c-4,1.76-4.57,4.35-1.36,7.31C184.62,84,187.79,89,194,89.8c1.92.26,3,2.24,3.54,3.92,1.1,3.58,3.68,5.35,6.93,6.3,3.78,1.09,6,3.35,8.38,6.62,3.59,4.87.51,5.61-2.55,7.08a5.56,5.56,0,0,1-2.93.47c-13.12-1.74-26.57-1.76-38.27-9.66-5.79-3.9-12.28-6.16-19.8-5-6.79,1.08-13.06-2.09-19.21-4.56-5.18-2.09-10.49,0-15.66-1-.51-.1-1.52.76-1.81,1.39-.43.93.52,1.5,1.22,1.89,5.69,3.2,8.83,9,13.5,13.19,3.2,2.9,2.12,6.21-.36,8.15-1.79,1.41-4.91,5.42-7.69-.11C117.33,114.48,115.87,118.4,113.52,120.3Z"/><path class="cls-1" d="M115.5,110,114,120"/><path class="cls-1" d="M189.5,67l1.5,8"/><path class="cls-1" d="M122.5,114c-1.06,2.67-.37,5.33,0,8"/><path class="cls-1" d="M97.5,35a11.79,11.79,0,0,1-1,6"/><path class="cls-1" d="M110,39l-.5,6"/><path class="cls-1" d="M70.5,2a11.79,11.79,0,0,0,1,6"/><path class="cls-1" d="M84,1c-.17,2-.33,4-.5,6"/><path class="cls-1" d="M192,89c-.17,2-.33,4-.5,6"/><path class="cls-1" d="M7,72.5c-2.35-.89-3.83,1.7-6,1.5"/><path class="cls-1" d="M11,69.5c-3.76.63-2.51,6.66-7,6.5"/></g></g></svg>