<svg id="Layer_1" data-name="Layer 1" xmlns="http://www.w3.org/2000/svg" viewBox="0 0 218.5 83.4"><path d="M28.6,130.54a91.42,91.42,0,0,1,6.42-26,12.6,12.6,0,0,0,.28-10A95.83,95.83,0,0,0,23.12,71.79a41,41,0,0,1-5.14-10c3.34-.24,5.57,1.56,7.87,2.94,10.91,6.55,19.07,16,26.89,25.79,1.68,2.11,3.18,2.85,5.79,2.41,3.77-.63,7.62-.77,11.41-1.27,1.78-.24,4-.26,4.91-2,1.2-2.25,2.41-2.12,4.26-1,2.85,1.79,5.87.45,8.72,0,12-2,23.94-4.13,35.9-6.24a13.13,13.13,0,0,0,11.12-12.07A59.5,59.5,0,0,1,136,62.43c1.25-5.23,3.47-5.89,7.65-2.64a35.51,35.51,0,0,1,11.19,15.63c1.09,2.79,2.41,3.72,5.36,3.75,24.82.25,48.81,6,72.88,11.15,1.18.26,2.74.24,3.4,2.08-4,1.92-6.63,6.24-11.6,6.62-.79.06-1.45.11-1.37,1.42.26,4.34-2.84,5.73-6.29,6.14-13.15,1.55-25.57,7.48-39.15,6.46-2.45-.19-3.21,1.73-4.21,3.55a59.54,59.54,0,0,1-21,22.27,13.53,13.53,0,0,1-2.68,1.3c-1.35.47-2.82,1.75-4.17.53s-.25-2.78.26-4.14a104.4,104.4,0,0,1,9.48-18.64c.75-1.19,2.3-2.31,1.39-3.94-.8-1.43-2.49-.85-3.67-.68-12.16,1.81-23.73-2.29-35.58-3.48-5.1-.51-10.08-1.84-15,1.08-1.26.75-4.54,2.62-4-2,.23-2-1.62-1.79-2.81-2.06a67.49,67.49,0,0,1-11.32-3.79c-2.85-1.2-5.69-1.85-8.23.91-1.39,1.52-2.79,1-4.33-.25-6.74-5.47-15.86-3.86-20.48,3.55-5.08,8.15-12.63,14-19.07,21C32,129,30.73,129.37,28.6,130.54Z" transform="translate(-17.98 -57.81)"/></svg>