<svg id="Layer_1" data-name="Layer 1" xmlns="http://www.w3.org/2000/svg" viewBox="0 0 182.39 122.42"><path d="M62.72,90.38c5.69-1.77,11.17-3.92,15-8.69,3-3.71,7.78-5.57,10.34-9.6,6.52-10.26,16.88-16.27,26-23.5,5.36-4.24,12.6-7.42,19.06-7.63,12-.39,24,1.59,34.06,9.56,11.37,9,13,25.53,3.58,38.68q-13,18.17-24.72,37.2c-1.08,1.75-1.78,3.73-2.76,5.54-2.33,4.32-2.06,4.79,3,4.82,7.51,0,9.09-1.81,9.45-9.43.64-13.93,4.56-20.4,19.3-23.74a21.11,21.11,0,0,0,5.88-1.84c4.73-2.72,9.24-5.79,15.13-5.26,1,.09,2.14-.88,3.19-1.42,3.34-1.7,6.43-3.44,9.68.67,1,1.3,3.75,1.39,5.33,2.8,2.89,2.54,3.09,5.47-.11,7.47-2.1,1.32-.33,3.53-2.21,4.89-2.85,2.06-5.51,4.46-8.76,5.83a37,37,0,0,1-19.81,2.92c-4.53-.62-8.34.45-11.32,4.33a6.8,6.8,0,0,0-1.37,6c1.49,9-.1,16.9-8.86,24-10,8.13-20.41,6.67-31.37,4.72-3.35-.6-5.32-3.35-7.27-5.54-4.15-4.69-6.94-9.9-5.44-16.86,2.37-10.93,8.42-20,13.39-29.72,3.88-7.56,9.2-14,14.77-20.38a32.19,32.19,0,0,0,7.28-12.56c1.43-5.18-.51-8.24-5.84-8.55a34.22,34.22,0,0,0-24.16,7.66C114.47,79.65,108,88.55,99.82,96A97.2,97.2,0,0,1,77.2,111.61c-7.3,3.63-14.43,6-22.38,4.92s-14.43-5-18-12.58c-2.67-5.72.69-16.78,6.1-20.42,5.15-3.46,10.81-6,16.44-8.64S70.54,69.4,73.52,63.4c1.42-2.88,4.14-5.78,2.23-9-2.15-3.59-6.35-4.95-10.32-5.11C60,49.11,54.9,50.4,50.93,54.64c-2.69,2.88-6.33,4.28-9.88,5.76a4.79,4.79,0,0,1-5.39-.69c-1.67-1.48-1.72-3.36-1.16-5.3,1.29-4.43,4.63-7,8.42-9.18,8-4.62,16.66-7.8,26-7.34,3,.14,6.45,1.79,9.36,3.43a54.68,54.68,0,0,1,7.11,5.27c3.25,2.61,1.88,6.93,3.58,10.14.19.37,0,.9.19,1.31.9,2.51,3.21,4.38.18,7.73-1.84,2-2.83,5.74-5.17,7.41-3.67,2.61-6.36,6.09-9.48,9.15C71.09,85.81,66.15,86.88,62.72,90.38Z" transform="translate(-34.18 -37.84)"/></svg>