<svg id="Layer_1" data-name="Layer 1" xmlns="http://www.w3.org/2000/svg" viewBox="0 0 161.03 116.13"><path d="M82.8,96.85c0-4.7,1.61-8.91,1.09-13.33-.25-2.1,1.16-4.11.45-6.26,0-.13.19-.47.35-.51,1.47-.39,2.23-1.78,3.55-2.43a5.22,5.22,0,0,1,4.33-.27,8.6,8.6,0,0,1,2.86,2.5c.43.56-.07,1.84-.18,2.8a1.83,1.83,0,0,1-.25.83C93.11,83,93.43,85.93,94.08,89c.45,2.09.85,4.19,1.12,6.3.2,1.5,1.4,2.31,2.12,3.43a92.15,92.15,0,0,1,5.48,11c.55,1.2.32,2.72,1.35,3.82a2.06,2.06,0,0,0,1.47.74c2.17.15,4.35.24,6.49.6,3.27.55,6.56,1,9.78,1.86,1.65.43,1.8,0,1.48-1.73-1-5.46-2.45-10.93-1-16.52,1.81-6.77,3.74-13.5,5.6-20.25a62.65,62.65,0,0,0,1.88-8.78,6.7,6.7,0,0,1,3.37-4.94,22.4,22.4,0,0,0,2.74-2c2-1.76,4.07-1.7,6.4-.85,1.81.66,3.31,1.86,5.09,2.56,1.32.52.78,1.8.8,2.74s-1.08.44-1.44.68c-1.54,1-2.71,1.05-3.75-.58-1,.87-1.65,0-2.66-.77.91,5.23-.09,10.1-.58,15a11.85,11.85,0,0,1-.62,2.86,5.84,5.84,0,0,0-.32,4c.54,1.89-.5,3.81-.72,5.75-.45,3.85-.78,7.69.58,11.38.6,1.62.26,3.44,1.28,4.92.18.26.16.73.6.74s.53-.41.65-.72c.65-1.64,1.68-3.14,1.49-5.06-.23-2.35,1.67-4,2.28-6a5.67,5.67,0,0,0,.45-1.29c.09-3,2.1-4.7,4.3-6.22,2.63-1.83,5.55-3.21,8-5.27,1.07-.88,1.74-2.13,2.92-2.91,3-2,5.33-4.8,8.65-6.38a19.61,19.61,0,0,0,4.74-3.33c2.61-2.43,5.77-4.1,8.34-6.59,1.67-1.61,4.13-2.43,6.28-3.49A23.64,23.64,0,0,1,194,61.23a4.63,4.63,0,0,0,2.36-2c1.67-2.31,3-4.86,5.11-6.85a.61.61,0,0,0,.17-.62c-.23-1.1-2.27-2.6-3.33-2.36-1.41.32-1.52-1.26-2.48-1.67-.51-.22-1-1.48-.63-2a4,4,0,0,1,3.24-1.34c1.6,0,3.19.4,4.81,0,.24-.06.72.06.78.22.68,1.74,2.61,2,3.7,3.22s1.11,2.73,1.6,4.12c.07.21,0,.46.08.68.58,2,1.76,3.78.36,6.07-1.12,1.82-1.39,4.17-2.64,6-2.43,3.5-4.63,7.21-7.86,10.09A4.36,4.36,0,0,1,196.78,76a4.36,4.36,0,0,0-3.19,2.14c-2.43,4-5.86,7-9.58,9.75a16.63,16.63,0,0,0-3.36,3.18,41.69,41.69,0,0,1-5.08,5.38,34.39,34.39,0,0,0-6.73,9.46,6.59,6.59,0,0,0-.59,2.68,2.37,2.37,0,0,0,.89,2.3c.78.5,1.73,0,2.4-.51,1.58-1.24,3.05-2.62,4.6-3.91,3.21-2.66,6.2-5.58,9.64-8,1.71-1.17,2.51-.73,2.75,1.43a2.88,2.88,0,0,1,3.89-.84c1.06.5,2-.4,3-.47a9.3,9.3,0,0,1,6,2.13,3.39,3.39,0,0,0,2.43.74,2.25,2.25,0,0,1,1.53.19c1.91,1,2,2.41,1.47,4.17-.93,3.14-1,6.48-2.41,9.49a8.89,8.89,0,0,1-1.54,2.45,23.31,23.31,0,0,0-4.05,6c-.52,1.09-2,1.81-3.21,2.45a42.3,42.3,0,0,0-8.12,6.06,8.58,8.58,0,0,1-1.92,1.45,3.55,3.55,0,0,0-2,2.3,9,9,0,0,1-3.67,4.81c-2,1.49-3,3.85-4.95,5.47a26.72,26.72,0,0,1-11.44,6.1,4.17,4.17,0,0,0-1,.32c-4,2.26-8.69,2.26-12.89,4-2,.81-4.43.14-6.67.61-1.51.31-3,1-4.54.92a18.19,18.19,0,0,0-5.76.42c-3.61.87-7.38.29-11,1.45a21.76,21.76,0,0,1-5.54.42c-5.26.17-10.44-.8-15.68-.93-3.15-.07-6.64-.64-9.18-2.38-2.24-1.55-4.92-1.92-7.06-3.65-1.48-1.19-3.74-1.35-5.52-2.34-2.11-1.16-4.14-2.43-6.2-3.66-2.43-1.44-5.28-1.82-7.91-2.79a41.6,41.6,0,0,0-10.95-2.2,4.32,4.32,0,0,1-4.2-3.5,2.61,2.61,0,0,1,.33-2.31c2-2.66,2.76-5.92,4.31-8.79.44-.81.18-1.77.54-2.67a15.35,15.35,0,0,1,4.9-6.09c.85-.68,1.59-1.5,2.37-2.26.41-.39.65-.85.25-1.37-1.52-2-2-4.49-3.6-6.44a3.25,3.25,0,0,0-1.81-1.45c-1.37-.31-1.91-1.07-1.81-2.61.14-2.11-1.12-4.08-1-6.25,0-.46-.11-1,.21-1.32,1.72-2,2.11-4.87,4.15-6.71a2.65,2.65,0,0,0,.8-1.31,12.64,12.64,0,0,1,5.67-7.93c1.6-1.09,2.64-2.87,4.22-4a6.17,6.17,0,0,1,5-1.49A4.8,4.8,0,0,0,75.9,76c2.48-.5,4.23.73,5.68,2.47a3,3,0,0,1,.4,3.28c-1.37,2.63-2.23,5.5-3.71,8.09-1.14,2-.67,3.57,1.28,5C80.48,95.44,81.48,96,82.8,96.85Z" transform="translate(-49.36 -44.45)"/></svg>