<svg id="Layer_1" data-name="Layer 1" xmlns="http://www.w3.org/2000/svg" viewBox="0 0 140.84 92.48"><path d="M73.64,135.15l-.3-.56a38,38,0,0,1-4.53-13.53,45.3,45.3,0,0,1-.2-10.79,58.37,58.37,0,0,1,5.1-18.84A35.68,35.68,0,0,1,92.22,73.38,43.62,43.62,0,0,1,103,70.22a50.56,50.56,0,0,1,29.1,4,35.36,35.36,0,0,1,13.11,10.94A62.94,62.94,0,0,1,152,96.82c1.65,3.59,3,7.28,4.45,11,.71,1.84,1.48,3.66,2.23,5.48a2.5,2.5,0,0,0,.44.71c0-.22.11-.44.16-.66.6-2.8,1.18-5.6,1.82-8.39a59.66,59.66,0,0,1,3-9.79,22,22,0,0,1,2.63-4.71,9.93,9.93,0,0,1,2.83-2.57,22.46,22.46,0,0,1,4.82-2.3.57.57,0,0,0,.44-.43,10.88,10.88,0,0,0,.28-1.38c.19-2,.4-4.09.51-6.15.29-5.33.39-10.68.48-16a.8.8,0,0,0-.42-.81,2.14,2.14,0,0,1-.84-2.66,2.35,2.35,0,0,1,2.56-1.37,2.24,2.24,0,0,1,1.88,1.69,2.14,2.14,0,0,1-.84,2.28c-.25.17-.53.29-.85.47v.45q.15,10.55.29,21.09c0,.73,0,1.45.09,2.18,0,.36.08.44.42.52a3.38,3.38,0,0,0,.7.1c.91,0,1.82-.06,2.73-.1a.73.73,0,0,0,.76-.6c.38-1.41.82-2.81,1.14-4.24,1.35-6,2.65-11.94,4-17.91.12-.52.22-1,.34-1.61a2.39,2.39,0,0,1-1.12-1.72,2.13,2.13,0,0,1,.29-1.31,2.37,2.37,0,0,1,2.62-1.08,2.23,2.23,0,0,1,1.74,2.1c0,1.12-.59,1.85-2.07,2.35-.12.64-.26,1.29-.37,1.95-.71,4.14-1.44,8.27-2.1,12.41-.4,2.49-.7,5-1,7.51-.09.7-.08,1.41-.12,2.12a1,1,0,0,0,.54.94,17.67,17.67,0,0,1,4,3.33,10.21,10.21,0,0,1,1.29,11.73,19.15,19.15,0,0,1-3,3.9c-1,1.06-2.06,2.09-3.08,3.15a14.37,14.37,0,0,0-1.9,2.42,6.62,6.62,0,0,0-.95,4.55,16,16,0,0,1-.1,4.84A35.22,35.22,0,0,1,170.23,142a19.08,19.08,0,0,1-5.66,3.48,35.82,35.82,0,0,1-4.65,1.35,77.16,77.16,0,0,1-8.53,1.34c-3.21.34-6.42.55-9.63.71-6.88.33-13.75.35-20.63.23-4.67-.08-9.34-.22-14-.38-4.11-.15-8.22-.36-12.33-.56-2.86-.14-5.72-.28-8.59-.44l-9.69-.57-10.65-.54c-1.84-.1-3.68-.15-5.51-.3a16.74,16.74,0,0,1-5.44-1.23,7.35,7.35,0,0,1-1.6-.95,2.71,2.71,0,0,1-.8-3.49,6.83,6.83,0,0,1,1.87-2.36,13.84,13.84,0,0,1,5.68-2.87,4,4,0,0,1,.85-.09l12.34-.14Z" transform="translate(-52.2 -56.68)"/></svg>