<svg id="Layer_1" data-name="Layer 1" xmlns="http://www.w3.org/2000/svg" viewBox="0 0 180.47 108.2"><path d="M178.21,54.9c2.92-1.47,4.46-4.75,8.14-3.6,1.85,1.2,2.49,3.25,3,5.51a15.66,15.66,0,0,1,4.57,3.08c4.31,4.42,9,8.5,11.84,14.2a12.62,12.62,0,0,0,4.16,4.35,12,12,0,0,1,3.43,3.14c-.86,2.3-.86,2.3-3.34,4.58h-2.81A2.22,2.22,0,0,0,206,89.25c-.74,1.26-1.68,1.67-2.45,1.49a40.33,40.33,0,0,1-7.46-2.13,22.59,22.59,0,0,0-16.6-.47c-7.36,2.65-14.44,6.59-18,14.57a15.41,15.41,0,0,1-7.36,7.71,12.92,12.92,0,0,0-5,3.84c-1,6.6,4,10.88,6.9,16.79.15,1.54,1.14,3.72.91,6a14.53,14.53,0,0,1-9.32,6.41c-3.21.8-6.1,2.52-9.1,3.92-1.13.53-2.12,1.6-3.58,1.23-2.23-3.23-1.32-6.3,3.2-10.22,1.79,0,3.75.91,6.27.25l3.28-2.34c-1-4.79-6.88-12.12-13.61-17-2.22,2.82-3.91,5.74-4,9.54a54.47,54.47,0,0,1-1.33,8.95,10.62,10.62,0,0,1-5.59,7.31,9.37,9.37,0,0,1-7-1.36c-3-1.94-6.42-2.24-10.19-2.75,0,4.17,3,5.85,5.52,7.75s5.92,2.64,9.18,3a17.69,17.69,0,0,1-1.26,5.67l-5.69,1.83c-4.1-1.88-7-5.57-11.28-7.51a14.42,14.42,0,0,0-5.62-6.54,8.91,8.91,0,0,1-4.41-7.93c0-2.3-.63-4.59-.79-6.9a5.35,5.35,0,0,0-2.28-3.92c-3.49,3.37-6.2,6.85-6.15,12.2s0,11,.34,16.62c-3.22.83-5.1-1.56-7.62-2.73L74.32,147c.55-3.6,1.29-7,1.67-10.42.39-3.62-2.06-6.59-2-9.69,1.37-2.9,4.48-3.33,5.79-5.61,1.52-4.53,0-8.25-2.93-11.61a77.28,77.28,0,0,0-6-6.78,8.24,8.24,0,0,1-3.08-5.49c-2.82,3.41-.54,6,.51,8.44A1.85,1.85,0,0,1,67,107.53c-3.28.25-4.57,2.16-5,5.17a4.88,4.88,0,0,1-2,3.65c-1.33.89-1.85,2.53-2.5,3.91-4.82,1.33-9.31,4-15,3L37.29,120l-2.91.22-.74-1.55c1.16-1.86,3.16-2.54,4.84-3.94-1.09-2.25-4-1.42-5.39-3.06-.16-1,.25-1.92-.22-2.74a9.7,9.7,0,0,1,9.42-.21c2.11,1,4.16.9,6.34.89a7,7,0,0,0,6.65-4.05c2.1-4.06,5.65-7.19,7-11.81.48-1.63,2.51-3.11,4-4.37,4.13-3.48,5.72-8.94,10.17-12.2,7.27-5.32,15.11-8.88,24.18-9.57a77.41,77.41,0,0,0,8.17-1.09,30.22,30.22,0,0,1,9.82-.07,53.51,53.51,0,0,0,15.88-.09c3.09-.53,6.06-1.87,9.23-2.32a5.47,5.47,0,0,0,2.76-1.17c4.2-3.79,9.57-4.3,14.68-5.81A52.76,52.76,0,0,1,178.21,54.9ZM120,115l-14.48-.71c-2.79,5.82-1.31,11.53-1.37,17.16a14.85,14.85,0,0,1,4.42,2.1c2.8,2,5.7,4.76,9.59,2.59C119.49,129.26,120.65,122.48,120,115Z" transform="translate(-32.87 -51.06)"/></svg>