<svg id="Layer_1" data-name="Layer 1" xmlns="http://www.w3.org/2000/svg" viewBox="0 0 144.1 134.84"><path d="M86.4,141.72c2.32.71,3.56,1,3,2.44s-1.66.64-2.47.33c-5.28-2-10.53-4.14-15.82-6.16-3.54-1.36-6.14.36-6.42,4.31a57.52,57.52,0,0,0,.17,6,16.72,16.72,0,0,1,0,2.74c-.31,2.24-.71,5.15-3.51,4.78s-3.57-3.34-3.14-5.78a81.77,81.77,0,0,1,5.89-19.47c1.46-3.27,4.32-3.79,7.42-4.2,6.08-.81,6.64-2.41,3.63-7.6-4.45-7.67-10.19-14.44-15-21.88-2.39-3.72-2-7.61-1.05-11.67.44-1.82,0-3.85.36-5.7a7.41,7.41,0,0,1,2-3.31c2-2.07,1.77-7.2.26-9.55-1.79-2.77-6.18-3.36-6.42-6.84C55.13,57,52.42,54.4,54,50.84c.71-1.62,2.14-4,0-5.9-.23-.21-.41-.54.15-.39,2.67.69,3.09-1.36,3.66-3.07a1.12,1.12,0,0,1,1.15-.91c2.75-.15,4.16-2.93,6.38-3.56,3.71-1,6.55-3.6,9.93-5.17a19.83,19.83,0,0,1,9.29-1.45c4.14.13,9.7-1.57,12.24,2.39,1.61,2.49,3.74,4.49,5.48,6.7,4.24,5.4,3.79,11.37,3,17.17-.4,2.87-3.13,5.58-5.27,7.95-.87,1-1.48,2.07-2.37,3-5,5.23-10.87,9.65-14.9,15.76a24.08,24.08,0,0,0-3.55,7.34c-.76,3.17,2.26,4.38,4.36,5.89,5.17,3.74,10.73,1.85,16.36,1.43,13-1,25.4,2.7,37.54,6.93,4.91,1.71,9.67,3.86,14.45,5.91,6.5,2.78,13.38,2.4,20.2,2.57,2.15,0,2.75-1.5,3.44-3.11.79-1.86,1.47-4.16,4.25-3.49s2.84,2.88,2.51,5.13c-.17,1.15.54,1.57,1.35,1.93,6.64,2.92,10.63,8.27,13.46,14.67,1.17,2.65.54,4.7-1.95,6.48-6.28,4.53-13,1.92-19.63,1.57a35.16,35.16,0,0,0-3.55-.18,13.73,13.73,0,0,0-2.56.59,8.67,8.67,0,0,0,2.41,1.57c3.27.8,6.89-.46,10,1.62.47.31,1.21.71,1.24,1.11.05.79-.79.47-1.27.57l-.4.09c1.89,3.08-1.65,2.11-2.47,3.15-1.17,1.48-2.34.08-3.17-.71-3.46-3.29-16.28-4.55-20.36-2.2-5.84,3.35-12.11,6.08-16.35,11.65a16.79,16.79,0,0,0-1.2,2.16c.83,0,1.67,0,2.51.08s2.55-.22,2.79.23c.59,1.08-.85.81-1.39,1.19a.9.9,0,0,0-.15.18c.25.08.5.13.74.23,1,.48,4-.27,1.6,2.48-.1.11.23.59.34.9.27.78,2.51-.49,1.58,1.37-1,2-2.46,2.94-4.35.78a1.84,1.84,0,0,0-.73-.33c-1.79,3.65-3,.9-4.39-.36-5.05-4.59-5.5-9.8-3-16,3.31-8.11,3-8.07-5.34-10.53-6-1.75-12.07-2.47-18.16-3.32-4.49-.63-7,3.57-10.74,4.88a22.62,22.62,0,0,0-3.28,1.69c-.62.35-1.21.76-1.82,1.14a14.15,14.15,0,0,1,1.66.81,1.55,1.55,0,0,1,.53.79,13.45,13.45,0,0,1-2.66,2.3c-.44.25-1.82-.12-1.9-.43C91,141.91,89.24,142.23,86.4,141.72Z" transform="translate(-53.5 -30.13)"/></svg>