<svg id="Layer_1" data-name="Layer 1" xmlns="http://www.w3.org/2000/svg" viewBox="0 0 207.72 57.95"><path d="M117.37,133l6.55-14.67c.56-1.26,1.32-2.93-1-2.66-9.38,1.11-18.45-1.45-27.68-2.09-5.24-.36-9.79,1.25-14.1,3.91-3.31,2-6.64,3-10.43.76.45-2.51,2.92-2.27,4.49-3.15a2.79,2.79,0,0,0,1.48-2.87c-.13-.92-1.17-1.4-2.3-1.54-6.66-.81-13.29-1.55-19.76-3.72-3.69-1.24-6.31,2.2-8.91,4.42-5.67,4.84-11,10.17-18.91,11.23-.78.1-1.57,0-3.29,0,5.85-6.11,14.32-10.31,13.38-19.14C36,95.35,28.53,91,21.53,85.94a14.35,14.35,0,0,1,12.88,2.29c5.15,3.62,10.25,7.32,15.2,11.21,1.57,1.24,3.06,2.12,4.94,1.61,18.13-4.93,36.69-7.25,55.3-9.37,2-.23,5.05-.14,5.65-2.28s-2.14-3.5-3.57-5.05-3.19-2.91-4.78-4.38c-.93-.86-2.77-1.4-2.27-2.9.62-1.84,2.61-1.12,4-1a21.44,21.44,0,0,1,13,5.42c6.52,6,13.67,10.2,22.63,11.46,8.54,1.2,16.9,4.33,25.52,4.22,13.58-.16,27,2.09,40.46,2.6,6.32.23,12.33,2.9,18.75,3.13-4.67,2.11-9.14.23-13.64-.06-11.93-.76-23.83-2-35.76-2.7-11.65-.65-22,3.69-31.78,9.55-3.15,1.89-6.13,3.49-10.09,3.45-4.13,0-7.15,2.26-9.36,6.1-2.93,5.08-6.59,9.72-9.94,14.55Z" transform="translate(-21.53 -75.83)"/></svg>