<svg id="Layer_1" data-name="Layer 1" xmlns="http://www.w3.org/2000/svg" viewBox="0 0 184.27 84.52"><path d="M125,146.08c2.67,2.1,5.08,3.32,8,3.34a8.75,8.75,0,0,1,2.57.61,1.5,1.5,0,0,1,1.21,1.41c0,.85-.68,1.17-1.32,1.22-4.7.37-9.51,1.78-13.85-1.47-1.86-1.39-3.82-2.66-5.72-4-3-2.17-4.53-4.74-3.65-8.79,1.19-5.55-.56-10.25-5.55-13.52-4.23-2.77-8.34-2.87-12.78-.34-5.59,3.17-10.89,6.93-16.52,9.86-10.33,5.37-20.32,11.92-32.29,13.48-1.9.25-4.57,1.15-5.49-.9-1-2.28,1.92-2.92,3.3-3.81,9.74-6.34,19.1-13.31,29.59-18.4,7.43-3.61,11.87-10.09,16.88-16.16,4.15-5,7.75-10.49,12.2-15.33a37.23,37.23,0,0,1,22.83-11.81c10-1.46,19.81-.72,29.81.72,6.57,1,13.63,1.57,20.32-1A5.17,5.17,0,0,0,178,77.55c.68-2.08,1-4.28,2.52-6.09,1.37-1.64,2.42-2,4-.21,1.28,1.47,2.82,2.72,4.3,4.12,1.19-1.32.44-2.55.5-3.69.14-3,1.15-3.64,3.68-2.12a9.79,9.79,0,0,1,3.86,3.6A6.42,6.42,0,0,0,203,77.05c4.61.18,8.32,3.48,12.72,4.68a36,36,0,0,1,5.58,2.17c2.83,1.34,3.27,3.2.84,5-1.74,1.28-1.49,3.29-2.47,4.67-1.65-.21-1.14-2.25-2.56-2.5-1.4,1,.48,2.61-.69,3.62a1,1,0,0,1-1.12-.48c-1.13-1.74-1.89-3.9-4.81-2.48s-4.46,3.85-4,6.88c.43,2.56,2.36,4.4,3,7,.44,1.9,2.53-.23,3.81.38-.71,4-3.64,5.91-7.48,4.76-3-.91-5.36-3.07-8.3-4.2a5.66,5.66,0,0,0-6.14.94c-6.7,5.29-13.42,10.52-21.46,13.75-2.64,1.06-3.67,3-3.26,6.1.68,5.12,2.81,9.48,5.49,13.75,1.31,2.08,3.52,3,5.08,4.71.55.61,1.44,1.28.84,2.28-.46.79-1.33.55-2.11.51-8.24-.41-14.76-3.66-18.56-11.28-2.22-4.44-5.1-8.55-6.27-13.52-.63-2.69-2.45-3.51-5.36-2.5a16.51,16.51,0,0,0-9.05,7.47c-1.86,3.32-4.74,5.12-7.3,7.46-.61.56-1.83.77-1.49,1.91s1.37,1.32,2.44,1.3a29.38,29.38,0,0,1,9.77,1.89c.89.31,2.25.45,2.11,1.7s-1.47,1.29-2.4,1.32C135.06,144.45,130.39,145.46,125,146.08Z" transform="translate(-39.43 -68.76)"/></svg>