<svg id="Layer_1" data-name="Layer 1" xmlns="http://www.w3.org/2000/svg" viewBox="0 0 181.31 90.03"><path d="M176.42,64.81c1.77-3.07.3-7.13,3.49-9.5,1.93.69.35,2.76,1.57,3.68,1.42-1.06.17-3.36,2.61-4.47-.55,9.29,6.66,15.6,8.29,24,.44,2.27,2.06,3.46,3.91,4.6s4.48,2.31,2.84,5.53c-1.56,3-3.91,4.37-7.29,3.73a12,12,0,0,1-1.26-.47c-8.46-2.8-13.64.16-15,9.2a14,14,0,0,1-3.53,7.94c-1.86,2-1.39,3.61,1.25,4.2,12.77,2.85,24.52,9.19,37.63,10.86,1.72.22,4.77.2,4.33,2.59s-3.35,1.3-5,1c-9.8-1.88-19.35-5-29.35-5.88-.72-.07-1.45-.08-3.29-.18a78.41,78.41,0,0,0,15.84,11.24c4.87,2.81,9.73,5.87,15.52,6.68a5.52,5.52,0,0,1,2.37,1.23c.82.62,1.85,1.42,1.43,2.56-.49,1.34-1.78,1.34-3.06,1.12-5.4-.93-10.18-3.26-14.84-6.07a290.35,290.35,0,0,0-33.06-17.68,4.61,4.61,0,0,0-3.45-.54c-13.6,4.37-26.47,2.7-38.82-4.41-3.59-2.07-7.8-2.9-11.21-5.55-1.63-1.27-4.22-1-6.11-.27-3.43,1.39-7.14,1-10.46,1.9-7,2-14,1.4-20.94,1.66a27,27,0,0,0-20.59,10.18,29.24,29.24,0,0,1-11.71,8.07c-1.36.56-3.37,1.6-4.22-.47-.75-1.81.14-3.47,2.08-4.38,3.9-1.84,7.91-3.54,10.26-7.91-2.41.48-5.55,2.82-6.52.39s2.94-2.84,4.61-4.27c5.9-5,11.52-10.43,17.23-15.71A22,22,0,0,0,65,96.11c2.72-3.86,5.77-4.79,9.78-1.76,2.45,1.86,4.18,1.78,4.68-2a13.7,13.7,0,0,1,3.9-7.94c.7-.71,1.63-1.59,1-2.73-.53-.88-1.62-.58-2.46-.54-6.1.3-12.37,0-17.5,4.28-.83.69-1.79,1.36-2.73.28s-.31-2,.41-2.82c2.85-3.11,5.74-5.57,10.61-5.7,9.71-.25,18.93,2,28.28,4,9.79,2.08,19,6.09,28.64,8.5A80.6,80.6,0,0,0,159,91.24a8.06,8.06,0,0,0,6.24-3.8c1.79-2.75,3.65-5.46,5.51-8.18a10,10,0,0,0,1.44-8.54,19.48,19.48,0,0,1-.49-4.89c0-1.73-.4-4.2,1.6-4.68S174.74,63.65,176.42,64.81Z" transform="translate(-33.99 -54.52)"/></svg>