<svg id="Layer_1" data-name="Layer 1" xmlns="http://www.w3.org/2000/svg" viewBox="0 0 200.27 133.8"><path d="M178.78,110c.71,4.52-3.5,6-2.74,9.32,0,.16-.72.62-1.15.73-4,1-6.58,4.46-10.23,6.08-1.37.61-1.39,1.68-.86,2.88a10.42,10.42,0,0,0,.66,1.34c4.54,7.34,6.29,15.63,8.11,23.89a7.69,7.69,0,0,1-.86,5.77c-1.73,2.94-3.32,3.51-6.59,2.18a100.67,100.67,0,0,1-14.36-7.61c-6.06-3.7-11-9-17.8-11.68-5.55-2.21-9-7.28-12.34-12-1.33-1.86-2.34-2.8-4.78-2.16-2.64.69-5.29-.47-7.83-1.16a20.81,20.81,0,0,0-8.38-.49c-11.08,1.49-22.19,2.26-33.36,1-2-.22-4-.47-5.44-2.07-.69-.76-1.23-1.69-.55-2.67s1.55-.57,2.24-.13c2.85,1.83,6,1.5,9.19,1.65a144.61,144.61,0,0,0,30.82-2.22c3.35-.56,6.59.65,10.26.14-2.52-3.09-5.36-4.79-9.11-4.76a40.58,40.58,0,0,1-8.93-.9,13.84,13.84,0,0,1-3.31-1c-2.88-1.46-3.26-2.83-1-5.28,1.43-1.57,1.06-2.44-.13-3.71-2.32-2.5-5.46-3.36-8.53-3.71-6.56-.76-12.38-3.64-18.38-5.93a52.52,52.52,0,0,0-6.58-2.07C46.43,93,38.91,86.3,31.58,79.29a46.52,46.52,0,0,1-9.89-13.05c-.44-.88-1.15-1.87-.14-2.68,1.18-.94,2.16,0,3.06.72.26.21.62.45.67.72.83,4.39,4.66,6.76,7,10,3.82,5.3,9.62,8.6,15.36,11.65,8,4.24,16.63,6.78,25.29,9.16,4.47,1.23,8.79,2.87,13.2,4.16,6.82,2,13.87,2.82,21.15,1.06a136,136,0,0,1,16.61-3.35,18.22,18.22,0,0,0,10.59-4.81c-4.9-5.67-10.12-11.25-14.8-17.26S108,65.87,104.56,58.25c4.9-.63,9.22-.63,13.49-1a11.18,11.18,0,0,1,7.85,2.8c3.55,3.06,7.83,4.83,11.84,7.68,0-6.51.36-12.54-1.37-18.66s-.22-12.24.86-18.3c.16-.93.89-2,2.09-1.64.94.29.72,1.37.61,2.16-.22,1.65-.68,3.28-.76,4.93-.21,4.66-.28,9.31,2,13.64a12.43,12.43,0,0,1,1.13,5.84c0,3,.58,6.12-.07,9-1.43,6.34,1.9,11.18,4.3,16.37.4.86,1.08,1.82,2.25,1.59,1-.18,1-1.15,1.2-2a31.5,31.5,0,0,0,.51-11.37,62,62,0,0,1-.54-7.95,1.5,1.5,0,0,1,1.62-1.53,1.27,1.27,0,0,1,1.39,1.6c-1,6,1.53,11.8,1.38,17.78-.06,2.06-.2,4-1.85,5.47a4.93,4.93,0,0,0-1.8,3.4c-.41,4.42.15,5.46,4.63,5.71,7.79.42,15.38,2.46,23.24,2.45,5.1,0,10,1.82,15.29,1.77,8.93-.09,15.52-4.2,21.41-10.18.7-.71,1.22-1.59,1.94-2.28s1.09-2.09,2.25-.86c.85.91.15,2-.48,2.68a30.37,30.37,0,0,1-7.75,6.3c3.39.46,5.9-.66,8.51-.83.69,0,1.36,0,1.57.83a1.21,1.21,0,0,1-1,1.5c-1.93.49-3.9.81-5.83,1.29-5.17,1.26-10.32,2.57-15.52,3.88-.08,1,.86,1.14,1.42,1.62,2.67,2.35,2.94,3.43,1.64,6.49s-3,4-6.54,3.73a8.94,8.94,0,0,1-4.94-1.85,12.7,12.7,0,0,0-9.73-1.73,28.12,28.12,0,0,0,8,3.39,87,87,0,0,0,15.15,2.86,23.52,23.52,0,0,1,11.89,4.76,10.24,10.24,0,0,1,1.94,15.11c-1.1-.62-.78-1.7-.74-2.59.17-5-2.29-8.53-6.32-11.14a34.37,34.37,0,0,0-13.95-5.09,73.7,73.7,0,0,1-12.24-2.36C182.66,113,180.55,113,178.78,110Z" transform="translate(-21.03 -29.1)"/></svg>