<svg id="Layer_1" data-name="Layer 1" xmlns="http://www.w3.org/2000/svg" viewBox="0 0 210.1 102.13"><path d="M48.75,80.83a5.16,5.16,0,0,0-5.07.73c-2.37,1.58-4.88,2.76-7.85,2.47-.3,0-.61,0-.91-.07-1.3-.17-2.55-.44-2.94-2a4,4,0,0,1,1.74-4c3.45-2,7-3.51,11.17-3.11,3,.28,6-.22,9-.4a5.3,5.3,0,0,1,4.19,1.11,1.41,1.41,0,0,0,1.25.26A4.25,4.25,0,0,0,61,75.4c2.54-1.86,4.67-1.07,6.83.77a44.1,44.1,0,0,0,4,2.58,2.43,2.43,0,0,0,3.4-.36,45.21,45.21,0,0,1,6.31-4.71A13.52,13.52,0,0,1,87,71.57c.7-.11,1.52-.09,2-.94-.07-.18-.09-.45-.24-.56-2.15-1.59-4.27-3.2-7.13-3.32a46.23,46.23,0,0,0-12,1.42,31.23,31.23,0,0,1-20.82-2.66c-8.3-4-16.34-8.44-24.41-12.85-1.52-.83-3.17-1.77-3.4-3.87a2.81,2.81,0,0,1,2.63-.32c4.63,1.47,8.77,4,13,6.2s8.73,4.64,13.2,6.76c6.27,3,12.67,3.82,19.38,1.6A45.17,45.17,0,0,1,79.9,61a16.85,16.85,0,0,1,7.58,1.26c2.94,1.14,5.8,2.46,8.75,3.56a71.05,71.05,0,0,0,11.62,2.72,77.45,77.45,0,0,1,22.51,8.52,35.87,35.87,0,0,0,17.75,4.35c4.43,0,8.79.11,13.13-1.16,8-2.37,16.18-4.41,24.21-6.85a24.52,24.52,0,0,1,6-.87,7.37,7.37,0,0,0,4.77-2.21,5.59,5.59,0,0,1,2-1.59c1,.18.83,1.25,1.64,1.49s1.61-1,2.81-.67c.37,2.57,2.7,3.26,4.61,4.27a22.1,22.1,0,0,1,7.76,6.71c1.65,2.31,3.5,4.49,5.33,6.66a3.25,3.25,0,0,1,.61,3.72c-1,2.38-2.18,4.66-3.08,7.09-.78,2.09-2.75,2.89-5,2.12a25,25,0,0,1-3.45-1.59C203,95.07,196.09,94.84,189,96.4c-1.67.37-2.41,1.8-3.19,3.1a16.5,16.5,0,0,1-1.47,2.32,3.32,3.32,0,0,0-.61,3.23,80.83,80.83,0,0,1,1.8,8.86,3,3,0,0,0,2,2.37c9.45,3.75,19.06,7,28.82,9.81a26.49,26.49,0,0,0,5.43.93c3.67.26,6.37,2.26,8.77,4.79a1.65,1.65,0,0,1-.1,2.37c-2.85,3.55-9.9,4.24-13.29,1.24a6.28,6.28,0,0,0-5.65-1.35,4,4,0,0,1-3.34-.73,8.93,8.93,0,0,0-3.85-1.55A48.74,48.74,0,0,0,193.8,131a1.5,1.5,0,0,0-1,.28c-.31.5-.05.93.17,1.35,1,1.86,2,3.7,3,5.56a6.86,6.86,0,0,0,5.46,3.61c3,.45,6,0,8.91.49a9.61,9.61,0,0,1,5.59,2.94c1,1,.9,1.8-.24,2.63a13.63,13.63,0,0,1-6.41,2.42,17.58,17.58,0,0,1-9.59-1.46,3.72,3.72,0,0,0-3.16.1c-1.67.74-2.22.61-3.42-.82-3.4-4.07-6.73-8.19-10.13-12.24a56.41,56.41,0,0,0-7.37-7.29,13.21,13.21,0,0,0-9.06-3.24,18.32,18.32,0,0,1-4.3-.51c-10-2-20-3.59-30-5a29.8,29.8,0,0,1-13-5c-3.08-2.1-6-4.37-8.91-6.73a24.24,24.24,0,0,0-8.91-4.58,80.37,80.37,0,0,1-9.78-3.43,18.68,18.68,0,0,0-13.2-1c-5.44,1.64-9.8-.22-13.35-4.37q-3.81-4.44-7.83-8.68c-1.67-1.75-2-1.75-3.64,0-.53.58-1.08,1.15-1.61,1.73a7.56,7.56,0,0,1-7.53,2.3,2,2,0,0,1-1.62-3A6.2,6.2,0,0,1,44.38,85Z" transform="translate(-20.97 -48.29)"/></svg>