<svg id="Layer_1" data-name="Layer 1" xmlns="http://www.w3.org/2000/svg" viewBox="0 0 224.81 125.42"><path d="M200.49,153.63a6,6,0,0,1-1.56,1.31,1.35,1.35,0,0,1-2-.71c-.24-.5-.45-1-.71-1.63-.75.58-1.39,1.15-2.12,1.61-1.26.78-1.64.68-2.25-.7-.16-.36-.17-.8-.51-1.09a1,1,0,0,0-.73.52,8.14,8.14,0,0,1-1.26,1.23,1.5,1.5,0,0,1-2.5-.65,4.54,4.54,0,0,1-.35-1.71,1.28,1.28,0,0,0-.23-.87c-.24-.14-.45.05-.67.06a.73.73,0,0,1-.88-.54c-.66-2.31-1-4.62.42-6.78.73-1.08.23-2.12.06-3.16-.55-3.29-1.26-6.54-1.51-9.88-.09-1.3,0-2.6-.14-3.94a5,5,0,0,0-2.16.49c-3.33,1.28-6.89,1.55-10.35,2.3a16.5,16.5,0,0,1-2.34.35,1.79,1.79,0,0,0-1.15.54c-1,1-2.17,1.88-3.3,2.75a33.38,33.38,0,0,0-2.93,3.13,60.29,60.29,0,0,1-7.43,6.86,7,7,0,0,0-1.38,1.33,16.43,16.43,0,0,1-5.22,4.07,15.16,15.16,0,0,1-3.42,1.7c-.49.12-.45.5-.44.85a5.63,5.63,0,0,1-.49,2.83c-.51,1-.91,1.16-2,.75-.1,0-.19-.08-.29-.12-1-.43-1-.43-1.42.59s-1,1.22-1.89.47a1.49,1.49,0,0,0-.25-.13c-1.36,1.16-1.37,1.16-2.3.37a.41.41,0,0,0-.4.17c-.34.93-1.08.89-1.69.53-2.34-1.35-5-2.36-6.16-5.13a1.94,1.94,0,0,0-.22-.4c-1.59-2.1-1.49-4.48-1.07-6.89a28.57,28.57,0,0,1,2.88-8.26.49.49,0,0,0,0-.62,6.13,6.13,0,0,0-2,.3,23.53,23.53,0,0,1-4.09.56c-2.54.2-5.1.22-7.65.33s-5,.43-7.49.44c-2.08,0-4.12-.37-6.18-.54a46.08,46.08,0,0,0-6.75,0c-1.68.11-3.36.22-5,.26a56.43,56.43,0,0,1-10.3-.74,59,59,0,0,0-9.7-.34,9.24,9.24,0,0,0,.16,3,38.27,38.27,0,0,1,.1,7.1,34.61,34.61,0,0,0,0,3.53,8,8,0,0,1-.58,3.21,5.14,5.14,0,0,0-.36,1.79,5.72,5.72,0,0,1-1.35,3.35A16.7,16.7,0,0,1,64.16,160a5,5,0,0,1-2.08.92,1.31,1.31,0,0,1-1.73-1.14c-.08-.38-.1-.76-.18-1.13a2.2,2.2,0,0,0-.34-1.14c-.63.63-1.26,1.21-1.84,1.83a5.71,5.71,0,0,1-2.71,1.51.87.87,0,0,1-1.16-.56,7.08,7.08,0,0,0-.64-1.57c-.42-.12-.52.2-.7.4s-.47.55-.69.83c-.86,1-1.34,1-2.16,0-.15-.18-.23-.4-.49-.52-.41.07-.55.46-.79.75a.88.88,0,0,1-1.53.07c-.37-.38-.7-.8-1-1.2-.12.06-.19.08-.25.12-1.61,1.23-1.85,1.21-2.89-.49a10.73,10.73,0,0,1-1.56-4.18,17.79,17.79,0,0,1-.41-3.09c-1.16.2-1.35.42-1.27,1.5a8.23,8.23,0,0,1-.53,3.37c-.13.37-.3.75-.74.8s-.62-.29-.83-.59-.44-.81-1-1a12.3,12.3,0,0,1-1.37,2.25c-.58.64-1.06.7-1.68.1a4.17,4.17,0,0,1-.66-.74c-.37-.59-.72-.46-1.09,0-.11.12-.2.24-.31.35-.74.79-1.18.76-1.83-.12-.28-.37-.53-.76-.82-1.11s-.7-.49-1.15,0c-1.43,1.41-1.85,1.33-2.52-.58a6.66,6.66,0,0,0-1.87-2.79,8.5,8.5,0,0,1-2.71-7.82c.32-2.58,1.86-4,3.83-5.27a34.75,34.75,0,0,0,7.66-6.55c.11-.14.19-.29.27-.41,0-.34-.26-.48-.44-.65a11,11,0,0,1-2.08-2.44.66.66,0,0,0-.75-.41c-1.74.33-3-.63-4.21-1.61a11.26,11.26,0,0,1-2.95-3.49.65.65,0,0,0-.8-.41,7,7,0,0,1-2.88,0,4,4,0,0,1-3.38-2.41,3,3,0,0,0-1.25-1.4c-1.06-.68-1-1.77-.87-2.82a13.09,13.09,0,0,1,1.38-4.35c1.53-2.83,2.82-5.81,4.61-8.48a69.23,69.23,0,0,1,6.83-8.65c1-1.06,1.94-2.18,2.86-3.3,1.54-1.87,3.42-3.39,5.05-5.15a12.13,12.13,0,0,0,3.22-6.62c.71-4.68,1.51-9.36,3.62-13.69A53.57,53.57,0,0,1,44,60.41a11.37,11.37,0,0,1,3.9-3.18c1.56-.92,3.17-1.76,4.73-2.68a19.5,19.5,0,0,1,5.49-1.83A57.8,57.8,0,0,0,65,50.58a9.62,9.62,0,0,0,3.74-2.19C70.54,46.63,72,44.57,74,43a12.73,12.73,0,0,1,3.19-1.94,43.6,43.6,0,0,1,8.75-3c1.58-.26,3.17-.52,4.76-.68a8.32,8.32,0,0,1,3.38.52c1.21.4,2.46.66,3.69,1a3.58,3.58,0,0,0,2.78-.53,20,20,0,0,1,6.74-2.16,35.75,35.75,0,0,1,5.92-.65,24.76,24.76,0,0,1,13.16,3.12c.81.47,1.69.83,2.54,1.24a2.49,2.49,0,0,0,1.12.22c1.86,0,3.73,0,5.6,0a29.46,29.46,0,0,1,8.06,1.25c1.88.58,3.32,1.87,4.9,2.94,3.19,2.15,5.91,4.87,8.86,7.31a24.54,24.54,0,0,1,3,2.84,4,4,0,0,0,2.7,1.34c2,.28,4,.49,5.75,1.69,2.33,1.65,4.82,3.16,6.52,5.52a24.14,24.14,0,0,1,2.71,4.87,2.31,2.31,0,0,0,1.24,1.2A20.9,20.9,0,0,1,183.63,72a12.24,12.24,0,0,1,1.51,1.72q2.51,3,5,5.92a3.61,3.61,0,0,0,.84.94.71.71,0,0,0,.66-.5,5.29,5.29,0,0,1,1.84-2.39C195,76.4,196.41,75,198,73.85A10.8,10.8,0,0,1,203.17,72a56.19,56.19,0,0,1,6.46-.7A17.59,17.59,0,0,0,217.34,69a4.43,4.43,0,0,1,2-.42c2.4,0,4.76-.81,7.16-.49,2.8.37,5.62.69,8.13,2.18a5,5,0,0,1,2.62,3.92,25.75,25.75,0,0,1-1.78,13.71,8.54,8.54,0,0,1-4.14,4.44,8.36,8.36,0,0,0-1.28.85c-1.68,1.2-3.69,1.42-5.63,1.82a14.8,14.8,0,0,0-4.52,1.82,54.78,54.78,0,0,1-8.59,4.4c-2,.75-3.95,1.64-6,2.29a1.93,1.93,0,0,0-.38.19c-.07.25.08.36.19.5a8.4,8.4,0,0,1,1.68,3.16c.42,1.63,1.25,3.13,1.49,4.81a19.19,19.19,0,0,1,.21,2.13c0,1.28.24,2.54.31,3.81a14.52,14.52,0,0,1-.17,3.73,19.91,19.91,0,0,0,.13,7.5,29,29,0,0,1,.14,7,48.22,48.22,0,0,1-.52,5.09,11.66,11.66,0,0,1-2.1,5.36,5.34,5.34,0,0,0-.64,2.64,6.62,6.62,0,0,1-2.88,4.34C201.93,154.46,201.51,154.39,200.49,153.63Z" transform="translate(-12.68 -35.57)"/></svg>