<svg id="Layer_1" data-name="Layer 1" xmlns="http://www.w3.org/2000/svg" viewBox="0 0 153.93 78.84"><path d="M125.65,119.05c5.35.36,10.53-.21,14.25,6.08-.6-4.16-.9-7.13-1.48-10-.71-3.57-2.67-5.38-6-4.11-8,3-16,2.16-24.05,1.4-3.23-.3-3.55,1.15-3.38,3.65a22.57,22.57,0,0,1,0,5.69c-.86,4.43,1.42,7.05,4.61,9.52,2.7,2.1,5.79,3.45,8.62,5.28.75.48,1.88,1,1.52,2.15s-1.61.81-2.47.84c-2.85.1-5.42-.12-7.78-2.41a149.09,149.09,0,0,0-12-10,3.24,3.24,0,0,1-1.1-3.47c.77-5.22-2.14-9-4.88-12.91-.66-.93-1.58-1.83-3-.92-6.25,4-13.45,5.76-20.38,7.83a12.75,12.75,0,0,0-9,8.5,14.84,14.84,0,0,1-8,8.51c-1,.47-2,1.87-2.93.22-.68-1.2-.42-3,.74-3.52,7.41-3.18,7.85-10.43,10.09-16.64.77-2.14,1.46-3.75,4.45-4.09,6.37-.74,9.63-6,9.1-14.22-.19-2.8.17-5.19,2-7.25a8.88,8.88,0,0,0,2.23-5.88c.12-8.06,5.72-11.81,11.65-15.24C92,66,96,64.57,99.19,61.9a6.67,6.67,0,0,1,4-1.17c1-.07,1.79-.16,1.87,1.29.07,1.22-.22,1.73-1.47,1.81-9.3.59-15.88,6.08-22.09,12.25a4.48,4.48,0,0,0-1.69,3.37c.05,2,.72,3.55,3,2.23,6.83-3.93,14.26-3.84,21.8-3.84,12.12,0,24.18-.46,36-4,4.69-1.42,9.82-1.3,14.51-3.15,2.16-.85,3.63-2,4.16-4.34.57-2.6,1.85-2.75,4.63-2.16,4.73,1,8.61,2.39,10.83,7,.33.66,1.6,1,2.5,1.24,2.72.66,4,2.3,4.74,5,1.25,4.47,5.2,7.18,8.65,9.58,3,2.06,4.71,5,7.39,7.18a8.47,8.47,0,0,1,1.11,1.39c.89,1.17,3.73,1.73,2.08,3.68a6.46,6.46,0,0,1-6.16,2.55c-7.17-.56-13.68-3.24-20.57-4.54a3,3,0,0,0-2.4.41c-.66.49-1.41.86-2.08,1.34-9.94,7.13-9.95,7.15-1.75,16,2.15,2.32,4.28,4.38,5,7.87.66,3.12,4.26,4.32,6.89,5.77a8.37,8.37,0,0,1,4.14,4.8c-4.81.32-8.53-.41-11.9-4.44-3.1-3.71-7.49-6.42-11.54-9.25-2.89-2-5.28-4.74-8.66-6.1-2.63-1.06-3.58-.14-3.66,2.47-.1,2.84-.34,5.68-.53,8.51-.35,5-4.09,7-8.38,4.43-3.73-2.24-7.77-3.94-11.29-6.56A6,6,0,0,1,125.65,119.05Z" transform="translate(-47.79 -60.7)"/></svg>