<svg id="Layer_1" data-name="Layer 1" xmlns="http://www.w3.org/2000/svg" viewBox="0 0 165.37 90.78"><path d="M93.1,71.15c5.79,3.63,4.9,5.75,3.37,12-.33,1.35-1,2.61-1.43,3.93-2,5.57-.56,7.8,5.33,9,14.25,3,28.53,2.44,42.64-.35a20.79,20.79,0,0,0,13-8.86c2.42-3.59,4.59-7.35,6.84-11,.55-.91,1.22-1.62-.12-2.79-5.66-5-7.63-11.6-6.34-20.44,2.45,2.64.31,6.75,3.27,9.42,2-1.62.91-4.67,2.82-6.22.78.19.45.84.5,1.3.15,1.31-.58,3.41,1.28,3.49,2.15.1.94-2.15,1.35-3.31.26-.76.4-1.56.64-2.54,1.44,1.2.59,3,2.75,4.24.77.29,1.1-4.38,3.51-1.36.47.59,1-.92,1.36-1.54,1.63-2.55,2.09-5.8,4.89-8.36.19,3-1.61,4.77-2.27,6.89-.36,1.16-1.31,3.38-.66,3.32,1.9-.18,2.77,2.23,4.91,1.29,1.68-.74,2.45-2.19,4-3.51,0,3.39,2.16,2.58,4.36,2.21-2.39,4.33-6.76,3.73-10.05,5.23a17.63,17.63,0,0,1-2.46.57c-1.93.55-5.05.32-5,2.81.11,2.86,2.57,4.9,5.53,5.49,5.9,1.17,8.9,6.06,12.32,10,1.85,2.16-1.1,4.53-3.29,4.34-7-.6-10.43.77-11.28,9.13A69.37,69.37,0,0,1,171,110.74c-.93,2.61.46,3.71,2.93,3.58a10.33,10.33,0,0,1,8.85,3.58c2.47,2.71,6.06,4,9.42,5.4a12.06,12.06,0,0,1,6.68,6.64c.34.8,1.37,1.67.54,2.56a2.14,2.14,0,0,1-2.76,0c-2.29-2.16-6.44-1.41-7.85-5.4,1.56,6.38-3.33,8.19-7,11,.56-2.88-3-6.28,1.71-8.64,1.22-.61-3.09-6.43-5.27-6.46-3,0-5.83.19-8.76,2-3.5,2.15-8.06,3.19-12.06,1.32a8.88,8.88,0,0,0-6.71-.32c-13,3.76-26.08,3.08-39.18.61a39.38,39.38,0,0,0-14.16-.14c-7.78,1.3-15.63.16-23.29-1.76-3.42-.86-6.94-.63-10.4-1.27s-5.32,2.85-6.77,5.4a7.62,7.62,0,0,1-4.28,3.67c-.92.34-2.14.48-2.66,1.15-3,3.86-7.21,4.29-11.56,4.58-1.42.09-3.37,1.21-3.94-.79s1.29-3,2.76-3.8c.76-.41,1.89-.15,2.85-.21,2.4-.16,2.93-.75,2.88-3.26a1.32,1.32,0,0,1,1.19-1.48c7.11-.65,9.7-7.1,14.24-11,3.53-3.06,7.49-5.57,10.35-9.44,1.5-2,3.15-.23,4.59,1,1,.85,2.22,2.33,3.58,1.49s.3-2.34-.09-3.48c-1.31-3.92,1-6.73,2.93-9.61C85.17,89.31,90.85,81.24,93.1,71.15Z" transform="translate(-34.39 -47.76)"/></svg>