<svg id="Layer_1" data-name="Layer 1" xmlns="http://www.w3.org/2000/svg" viewBox="0 0 206.43 107.25"><path d="M200.39,52.81c2.6,1.32,1.52,3.58,1.84,5.41.17,1-.56,2.53,1.36,2.65a3,3,0,0,0,2.91-1.5c2.28-3.33,1.7-6.19-1.56-8.83,5.5.55,7,2.43,6.4,7.44-.08.65-.27,1.83-.06,1.91,5.24,2.09,2.66,8.52,6.37,11.45a3.89,3.89,0,0,1,1.19,2.17,86.7,86.7,0,0,1,.43,31.63c-.7,4-6.42,4.87-9.6,1.9-1.87-1.74-1.87-1.74-4.13.48-1.75-2.78-1.9-6.24-4.37-8.7-2.19-2.17-4.11-3.13-7-1.58a74.47,74.47,0,0,0-15.79,12.07c-1.53,1.46-1.48,2.85.35,4.08,1,.66,1.89,1.36,2.82,2.07,7.22,5.45,7.26,7.39.73,13.76a26,26,0,0,0-4.58,5.91c-3.55,6.45-9.62,9.91-15.51,13.61-1,.61-2.16,1.29-3.21.29-1.25-1.19-.32-2.66.2-3.67,1.86-3.62,5.52-5.5,8.7-7.52,5.27-3.36,8.11-8.65,11.95-13.14a2,2,0,0,0-.69-3.33c-4.06-2-8-4.73-12.92-2.84-2.63,1-5.25,1.11-7.65-.42-2.61-1.67-3.59-.4-4.1,2-1.21,5.51-2.51,11-2.35,16.71.18,6.54-1.95,7.93-8.32,7.19-6-.69-11.82,1.07-17.62,2.36-2.49.56-1.4,2.42-.45,3.37,2.45,2.43,5.17,4.59,7.28,7.61-3.56.62-6.17,1.27-9.14-2.16-1.49-1.72-3.33-7.09-8.27-4.63-.82.41-2.2-.83-1.31-1.82,2.81-3.14,0-4.82-1.59-6.65-3.1-3.7-6.2-7.45-10.2-10.22-2.44-1.68-3.27-3.61-2.19-6.37a10.42,10.42,0,0,0,.5-1.92c.55-3.21,1.84-6.53.24-9.63-.72-1.39-2,0-2.81.8-3.38,3.14-9.68,4.49-7,11.38,1.09,2.79,1.74,5.82,3.24,8.35a28,28,0,0,1,3.67,17.69c-.17,1.7.81,4.72-1.23,4.65-2.56-.09-5.2-3-4.9-5.46,1.18-9.47-3.37-17-7.18-24.91-.08-.15-.17-.29-.26-.43-4.88-8.62-4.88-8.62,2.32-15.59,2.16-2.1,3.49-3.53-.38-5.85-5-3-5.21-9.29-7.72-14-.88-1.66-.11-4.6-2.4-4.94-1.91-.3-3.37,1.75-4.73,3.27-4.1,4.55-7.53,3.62-12.46-.35-4.76-3.83-10-7.78-16.26-9.13-5.26-1.14-9.52,1.57-12.25,6.88-.49,1-1.36,4.07-2.25-.06-.11-.51-3.47,2.54-6.16,1.62,1-2.59,3.64-2.74,5.43-4,.76-.53,1.29-1.25.81-2.06a1.88,1.88,0,0,0-1.72-.43c-3.81,1.36-7.93-.21-12.77,2.33,4.46-6.85,11.18-7.79,16.21-11.11-.14-2.13-2.42-1.66-3.25-3.37H35.4c-3.3-2-6.09-1.82-8.61-2.78,5.08-.87,10.38-1.37,14.58,2.1,4,3.34,8.52,6.2,11.78,10.58,4,5.38,11.25,6.44,18.06,3.79C78.26,80.11,84,75.27,90.34,71.41c8-4.88,17-5.41,25.87-6.5a33.75,33.75,0,0,1,9,0c7.23,1.08,13.16-2.57,19.51-4.8,6-2.1,12.11-1.48,18.23-.68,1,.13,2.39.17,2.81.79,3.38,5,7.53,3.82,11.83,1.67,3.42-1.71,6.48-.07,9.55,1,8.83,3.21,8.83,3.25,11.75-5.45C199.39,56,199.87,54.42,200.39,52.81Zm-55.55,81.27c-.34-5.81-.74-10.94-.88-16.07-.08-2.79-1.26-3.79-4-3.78-5.32,0-10.63-.15-15.94-.28-3.6-.09-8-3.29-10.31-1.22s-2.5,6.93-3.15,10.65c-1.4,8,4.74,12.53,8.66,18.1,2.59,3.69,3.76-1.07,6-.94,4.55.26,9.15-.72,13.74-.77S146.22,138.6,144.84,134.08Z" transform="translate(-14.09 -50.54)"/></svg>