<svg id="Layer_1" data-name="Layer 1" xmlns="http://www.w3.org/2000/svg" viewBox="0 0 192.53 121.29"><path d="M162,92.88c-1.83,1.51-5.13,3.61-7.58,6.45-4.45,5.13-4.36,11.93-2.68,17.56,2.28,7.64,2.16,15,1.81,22.66-.27,5.74,1,11.08,7.44,13.83,2,.87,3.15,4,4.69,6.08l-1.21,1.88c-5.11-.83-10.25-1.53-15.31-2.59-.9-.19-1.74-1.81-2.15-2.93-1.58-4.26-3-8.59-4.22-12.29-4.82,1.46-8.21,2.86-11.72,3.39-1.85.27-5.42-.68-5.63-1.64-.71-3.32-.89-7.11,3.75-8.46,2.7-.78,5.31-1.9,8-2.73,4.16-1.28,5.4-4.49,4.53-8.13-2.27-9.5-4.76-18.94-11.14-26.85-1.32-1.63-1.27-4.38-2.1-7.54L104.3,88.08C103.36,101,93,106.59,85.38,114.21c-5,5-7,10.21-4.27,17,2.11,5.23,4.15,10.5,5.87,15.86.9,2.81,1.59,6.29-2.21,7.67s-5.92-1-7.44-4.11a20.68,20.68,0,0,1-1-2.79c-2.93-9.23-5.86-18.48-9-28.47-7.26,9.13-8.5,21.17-3.62,29.56.63,1.09,2.21,1.65,3.4,2.38,1.39.85,3.25,1.32,4.14,2.52a6.39,6.39,0,0,1,.85,4.55c-.13.69-2.18,1.53-3.27,1.42A106.31,106.31,0,0,1,57,157.86,3.67,3.67,0,0,1,55,155.48c-1.89-7.72-3.42-15.53-5.46-23.2-1-3.72,0-6.55,1.53-9.9,3.58-7.61,6.6-15.5,9.5-23.41.72-2,.11-4.43-.59-6.86-.47,7.35-5.8,9.8-11.17,12.44-5.14,2.53-10,5.54-15.12,8.18-1.52.79-3.32,1-6,1.8.61-2.28.62-3.82,1.35-4.83,6.2-8.67,12.75-17.09,18.7-25.92,2-3,2.2-7.23,4-10.45,5.18-9.26,7.2-20.4,16.4-27.3,5.76-4.31,12.6-3.79,19.1-4.78,17.57-2.69,34.83-.52,52,3.21,3.28.71,6.86-.1,10.29,0a10.09,10.09,0,0,1,4.56,1.14c10.17,6,20.32,11.93,30.33,18.11,3.27,2,5.58,2.24,8.49-.79,4.29-4.49,10.23-4.22,15.84-3.84,1.12.08,3,2.5,3,3.84,0,3.08-1.14,6.14-1.43,9.24s-.85,6.26.09,8.93c2.7,7.7,6.15,15.14,9.18,22.74,1.28,3.23.76,6.42-3.17,6.77a37.2,37.2,0,0,1-12.18-.87c-4.28-1.07-9.15-2.35-12.18-5.22-4.12-3.92-9.26-2.4-13.54-4.53C173.47,97.54,168.23,95.56,162,92.88ZM74.49,108.51C83,100.7,85.36,92.29,80.18,89.08,78.26,95.62,76.3,102.33,74.49,108.51Z" transform="translate(-27.62 -40.05)"/></svg>