<svg id="Layer_1" data-name="Layer 1" xmlns="http://www.w3.org/2000/svg" viewBox="0 0 199.02 139.74"><path d="M99.24,125.11c-8.29,4.73-16,9.63-24.54,13a5,5,0,0,0-2.86,2.73,68.7,68.7,0,0,0-4.72,12.53c-.68,2.69.59,5.35,1.95,7.7s3.8,5.11,2.56,7.41c-1,1.84-4.44.26-6.77.14-5.22-.27-6.35-2.08-4.35-7,.79-1.93,1.44-3.24-1.6-3.67-1.76-.24-2.31-2.2-1.9-3.91.51-2.11.83-4.48,2-6.15,4.15-5.77,5.88-12.39,7.37-19.12.75-3.43,2.29-5.73,6-6.7,4.13-1.1,6.29-4.74,8.72-7.92.71-.93.27-2,.19-3-.52-6.76-1.12-13.54.45-20.23.42-1.81-.54-2-1.71-2.09-5.77-.68-11.24-.18-15.83,4a16.82,16.82,0,0,1-4.19,3,6.27,6.27,0,0,1-7.77-1.9,7.59,7.59,0,0,0-5.68-2.64,49.53,49.53,0,0,1-7.1-1.32c-3.11-.69-5.93-.48-8.26,2.59-.78-1.47-.21-4.33-3.05-3,.08-1.74-1.8-2.52-2-4.17-.5-4.18,2.09-7.6,6.35-7.82A17.88,17.88,0,0,1,48,84.05c1.55,1.85,3.21,3.6,4.85,5.37,2.46,2.65,5.33,2.08,7.79.36A32.25,32.25,0,0,1,79.35,84,19.62,19.62,0,0,0,88,81.49c9.29-4.91,19-7.9,29.77-4.89,6.58,1.84,13.38,1.94,20.18,1.59a26,26,0,0,0,7.38-1.54c3.58-1.26,5.82-3.28,5.33-7.48-.2-1.72,3.56-7.69,5.18-8.28.75-.28.89-.53.74-1.12-.73-3,1.07-4.39,3.14-6.15,1.35-1.16,1.81-3.29,3.5-4.72,1.31-1.1,4.41-1.33,3.72-4.39-.06-.29.85-.91,1.71-.62,1.36.47,2.11-.36,2.53-1.54.8-2.26,2-2.48,3.76-.77.38-1.44-.88-4.52,2.62-2.63.15.08.42.14.53.06,2.43-1.71,2.43-1.71,4.15-.1,1-4,1.47-4.26,5.54-3.19.41.1.86.59,1.11-.09,1.75-4.82,5.93-3.49,9.32-3.36,2.4.08,4.54.13,6.89-1.84.3,5.1,3.89,7.08,7.51,9A9.12,9.12,0,0,1,214,40.55c3.2,2.65,2.75,5.46.27,8.38-.71.13-.94-.81-1.58-1s-1.21-.37-1.61-.16c-.77.4-.45,1.15-.18,1.8,1.83,4.36,3.85,8.72,7.34,11.92s4.25,7.77,6,11.81c.76,1.78-.69,3.56-1.54,5.13-2.36,4.33-10.57,5.26-13,1.15-1.92-3.28-5.1-3.59-7.85-4.76-2.1-.89-4.72-.59-7.11-.79a1.81,1.81,0,0,0-2,1c-2.26,4.24-4.59,8.44-6.88,12.66a6.53,6.53,0,0,0-.7,4.69c1.47,5.56.12,10.75-2,15.75-1.07,2.55-.35,3.74,1.84,4.8,4.71,2.28,8.38,6.32,13.53,7.93,1.75.54,3,2.13,4.13,3.57C207,130,212.21,134.57,217,139.6c4.23,4.45,6.84,10.47,8,16.74.43,2.26-.78,3.54-3.17,3.25-3.33-.4-6-2.23-8.53-4.22-1.14-.88-.48-2.11-.33-3.21.34-2.48.92-4.94-2.29-6.23a4.5,4.5,0,0,1-1.9-2.36c-3.74-8.76-10.89-12.86-19.83-14.19-5.34-.8-10.69-1.49-15.83-3.14-1.81-.59-2.72-.33-3.52,1.37-1.12,2.38-2.56,4.61-3.15,7.23A30.41,30.41,0,0,1,161,146.92c-2.44,3.2-3,7.37-3.46,11.39a3.52,3.52,0,0,0,1.2,3c2,2.13,4,5.18,3.06,7.56s-4.58.84-7,1-3.84-1.19-3.62-3.82c.17-2-.05-3.68-1.78-5.2-2.34-2.08-1.58-4.63,0-6.84,5.74-8.08,6.74-17.59,8.34-26.93.27-1.61-.4-2.12-1.87-1.9-13.13,1.9-25.17-2.09-37.15-6.91-.16.34-.41.63-.39.89.59,7.52-1.26,10.43-8.31,12.86-1.61.55-4.08.93-4.19,2.39-.12,1.75,2.15,2.73,3.8,3.58,1.83.94,3.76,1.72,5.5,2.8,2.33,1.45,3.62,3.55,2.76,6.41-.51,1.67,0,3.22.48,4.72.95,3.31,0,6.36-.93,9.44-.18.61-.38,1.34-1.22,1.48-2.41.39-7.75-5-7.27-7.41a29,29,0,0,1,1.14-4c.4-1.17.67-2.22-.81-2.86-.4-.18-1-.53-1-.87-1-5.93-6.29-6.19-10.5-7.86-2-.81-4.76-.77-5.11-3.81A6.24,6.24,0,0,1,96,129.44,6.49,6.49,0,0,0,99.24,125.11Z" transform="translate(-26.09 -30.43)"/></svg>